<svg xmlns="http://www.w3.org/2000/svg" xmlns:xlink="http://www.w3.org/1999/xlink" contentStyleType="text/css" height="164px" preserveAspectRatio="none" style="width:632px;height:164px;background:#FFFFFF;" version="1.1" viewBox="0 0 632 164" width="632px" zoomAndPan="magnify"><title>Pricing - Class Diagram</title><defs/><g><text fill="#000000" font-family="sans-serif" font-size="14" font-weight="bold" lengthAdjust="spacing" textLength="157.165" x="230.7087" y="24.5332">Pricing - Class Diagram</text><!--class main--><g id="elem_main"><rect codeLine="6" fill="#F1F1F1" height="111.5313" id="main" rx="2.5" ry="2.5" style="stroke:#181818;stroke-width:0.5;" width="431.8564" x="7" y="45.6094"/><ellipse cx="192.9927" cy="66.9609" fill="#ADD1B2" rx="11" ry="11" style="stroke:#181818;stroke-width:1.0;"/><path d="M195.7583,62.8359 Q195.9146,62.6172 196.1021,62.5078 Q196.2896,62.3984 196.5083,62.3984 Q196.8833,62.3984 197.1177,62.6641 Q197.3521,62.9141 197.3521,63.5234 L197.3521,64.9766 Q197.3521,65.5859 197.1177,65.8516 Q196.8833,66.1172 196.5083,66.1172 Q196.1646,66.1172 195.9614,65.9141 Q195.7583,65.7266 195.6489,65.2109 Q195.6021,64.8516 195.4146,64.6641 Q195.0864,64.2891 194.4771,64.0703 Q193.8677,63.8516 193.2427,63.8516 Q192.4771,63.8516 191.8364,64.1797 Q191.2114,64.5078 190.7114,65.2578 Q190.2271,66.0078 190.2271,67.0391 L190.2271,68.1328 Q190.2271,69.3672 191.1177,70.1953 Q192.0083,71.0078 193.6021,71.0078 Q194.5396,71.0078 195.1958,70.7578 Q195.5864,70.6016 196.0083,70.1641 Q196.2739,69.8984 196.4146,69.8203 Q196.5708,69.7422 196.7739,69.7422 Q197.1021,69.7422 197.3521,70.0078 Q197.6177,70.2578 197.6177,70.6016 Q197.6177,70.9453 197.2739,71.3516 Q196.7739,71.9297 195.9771,72.2578 Q194.8989,72.7109 193.6021,72.7109 Q192.0864,72.7109 190.8833,72.0859 Q189.8989,71.5859 189.2114,70.5234 Q188.5239,69.4453 188.5239,68.1641 L188.5239,67.0078 Q188.5239,65.6797 189.1333,64.5391 Q189.7583,63.3828 190.8521,62.7734 Q191.9458,62.1484 193.1802,62.1484 Q193.9146,62.1484 194.5552,62.3203 Q195.2114,62.4766 195.7583,62.8359 Z " fill="#000000"/><text fill="#000000" font-family="sans-serif" font-size="12" font-style="italic" lengthAdjust="spacing" textLength="55.3711" x="211.4927" y="63.0664">&#171;effectful&#187;</text><text fill="#000000" font-family="sans-serif" font-size="14" lengthAdjust="spacing" textLength="30.3447" x="224.0059" y="80.2363">main</text><line style="stroke:#181818;stroke-width:0.5;" x1="8" x2="437.8564" y1="88.3125" y2="88.3125"/><line style="stroke:#181818;stroke-width:0.5;" x1="8" x2="437.8564" y1="96.3125" y2="96.3125"/><text fill="#000000" font-family="sans-serif" font-size="14" lengthAdjust="spacing" text-decoration="underline" textLength="415.9668" x="13" y="114.8457">+async calculate_present_value(request: Request): JsonResponse</text><text fill="#000000" font-family="sans-serif" font-size="14" lengthAdjust="spacing" text-decoration="underline" textLength="387.9326" x="13" y="132.4551">+async calculate_scenarios(request: Request): JsonResponse</text><text fill="#000000" font-family="sans-serif" font-size="14" lengthAdjust="spacing" text-decoration="underline" textLength="419.8564" x="13" y="150.0645">+async calculate_key_rate_pv01(request: Request): JsonResponse</text></g><g id="elem_GMN3"><path d="M474.5,72.1094 L474.5,97.6094 L439.29,101.6094 L474.5,105.6094 L474.5,131.1641 A0,0 0 0 0 474.5,131.1641 L625.5825,131.1641 A0,0 0 0 0 625.5825,131.1641 L625.5825,82.1094 L615.5825,72.1094 L474.5,72.1094 A0,0 0 0 0 474.5,72.1094 " fill="#FEFFDD" style="stroke:#181818;stroke-width:0.5;"/><path d="M615.5825,72.1094 L615.5825,82.1094 L625.5825,82.1094 L615.5825,72.1094 " fill="#FEFFDD" style="stroke:#181818;stroke-width:0.5;"/><text fill="#000000" font-family="sans-serif" font-size="13" lengthAdjust="spacing" textLength="78.0381" x="480.5" y="90.6045">Module: main</text><text fill="#000000" font-family="sans-serif" font-size="13" lengthAdjust="spacing" textLength="3.6118" x="480.5" y="106.9561">&#160;</text><text fill="#000000" font-family="sans-serif" font-size="13" lengthAdjust="spacing" textLength="130.0825" x="480.5" y="123.3076">Stereotype: &#171;effectful&#187;</text></g><!--SRC=[fP11ImD138NlyojoL4IerwKKH2yM16b_m1AdRxUXqymwoHRMql_kxegW5pq8ERoGvEFbkNW2lHI9eYtTqaDYCteKRWiVGx23QCUZf3WDxjsBlFQEfvXrA- -WnRUL90eVEb0kliyXp2TqP55QBj4qYDxqQRMYSo2wEPkpIxmGsw2H8gVO9tRKNO51lJvnwd5LyDR3lABDfxYkQ6rPDx0kg-5NaaKe5ydsBye1GrrcOwV5tP-aIz3ie2BjtYaty_iZ_Zdl-eJggnrhwoZ8KrxLptW2T4SJ98GF]--></g></svg>