<svg xmlns="http://www.w3.org/2000/svg" xmlns:xlink="http://www.w3.org/1999/xlink" contentStyleType="text/css" height="472px" preserveAspectRatio="none" style="width:7201px;height:472px;background:#FFFFFF;" version="1.1" viewBox="0 0 7201 472" width="7201px" zoomAndPan="magnify"><title>Daycount - Class Diagram</title><defs/><g><text fill="#000000" font-family="sans-serif" font-size="14" font-weight="bold" lengthAdjust="spacing" textLength="173.4961" x="3506.79" y="24.5332">Daycount - Class Diagram</text><!--class ActorClaim--><g id="elem_ActorClaim"><rect codeLine="6" fill="#F1F1F1" height="153.6563" id="ActorClaim" rx="2.5" ry="2.5" style="stroke:#181818;stroke-width:0.5;" width="100.6895" x="16" y="311.6094"/><ellipse cx="31.1055" cy="327.6094" fill="#B4A7E5" rx="11" ry="11" style="stroke:#181818;stroke-width:1.0;"/><path d="M32.0586,324.25 L32.0586,330.9063 L33.7773,330.9063 Q34.3867,330.9063 34.6523,331.1406 Q34.918,331.375 34.918,331.7656 Q34.918,332.1406 34.6523,332.375 Q34.3867,332.6094 33.7773,332.6094 L28.6367,332.6094 Q28.0273,332.6094 27.7617,332.375 Q27.4961,332.1406 27.4961,331.75 Q27.4961,331.375 27.7617,331.1406 Q28.0273,330.9063 28.6367,330.9063 L30.3555,330.9063 L30.3555,324.25 L28.6367,324.25 Q28.0273,324.25 27.7617,324.0156 Q27.4961,323.7813 27.4961,323.3906 Q27.4961,323.0156 27.7617,322.7813 Q28.0273,322.5469 28.6367,322.5469 L33.7773,322.5469 Q34.3867,322.5469 34.6523,322.7813 Q34.918,323.0156 34.918,323.3906 Q34.918,323.7813 34.6523,324.0156 Q34.3867,324.25 33.7773,324.25 L32.0586,324.25 Z " fill="#000000"/><text fill="#000000" font-family="sans-serif" font-size="14" font-style="italic" lengthAdjust="spacing" textLength="68.4551" x="45.1289" y="333.3379">ActorClaim</text><line style="stroke:#181818;stroke-width:0.5;" x1="17" x2="115.6895" y1="343.6094" y2="343.6094"/><text fill="#000000" font-family="sans-serif" font-size="14" lengthAdjust="spacing" textLength="59.124" x="22" y="362.1426">iss: string</text><text fill="#000000" font-family="sans-serif" font-size="14" lengthAdjust="spacing" textLength="64.5859" x="22" y="379.752">sub: string</text><text fill="#000000" font-family="sans-serif" font-size="14" lengthAdjust="spacing" textLength="73.1445" x="22" y="397.3613">role?: string</text><text fill="#000000" font-family="sans-serif" font-size="14" lengthAdjust="spacing" textLength="88.6895" x="22" y="414.9707">perms: string[]</text><text fill="#000000" font-family="sans-serif" font-size="14" lengthAdjust="spacing" textLength="70.0342" x="22" y="432.5801">org?: string</text><text fill="#000000" font-family="sans-serif" font-size="14" lengthAdjust="spacing" textLength="68.4824" x="22" y="450.1895">uid?: string</text><line style="stroke:#181818;stroke-width:0.5;" x1="17" x2="115.6895" y1="457.2656" y2="457.2656"/></g><g id="elem_GMN3"><path d="M152.5,359.1094 L152.5,384.6094 L117.22,388.6094 L152.5,392.6094 L152.5,418.1641 A0,0 0 0 0 152.5,418.1641 L408.8774,418.1641 A0,0 0 0 0 408.8774,418.1641 L408.8774,369.1094 L398.8774,359.1094 L152.5,359.1094 A0,0 0 0 0 152.5,359.1094 " fill="#FEFFDD" style="stroke:#181818;stroke-width:0.5;"/><path d="M398.8774,359.1094 L398.8774,369.1094 L408.8774,369.1094 L398.8774,359.1094 " fill="#FEFFDD" style="stroke:#181818;stroke-width:0.5;"/><text fill="#000000" font-family="sans-serif" font-size="13" lengthAdjust="spacing" textLength="7.2236" x="158.5" y="377.6045">&#160;&#160;</text><text fill="#000000" font-family="sans-serif" font-size="13" lengthAdjust="spacing" textLength="170.4727" x="158.5" y="393.9561">Actor claim from internal JWT</text><text fill="#000000" font-family="sans-serif" font-size="13" lengthAdjust="spacing" textLength="235.3774" x="158.5" y="410.3076">Represents "Service X acting for User Y"</text></g><!--class DateComponents--><g id="elem_DateComponents"><rect codeLine="20" fill="#F1F1F1" height="100.8281" id="DateComponents" rx="2.5" ry="2.5" style="stroke:#181818;stroke-width:0.5;" width="140.9512" x="349" y="98.1094"/><ellipse cx="364" cy="114.1094" fill="#B4A7E5" rx="11" ry="11" style="stroke:#181818;stroke-width:1.0;"/><path d="M364.9531,110.75 L364.9531,117.4063 L366.6719,117.4063 Q367.2813,117.4063 367.5469,117.6406 Q367.8125,117.875 367.8125,118.2656 Q367.8125,118.6406 367.5469,118.875 Q367.2813,119.1094 366.6719,119.1094 L361.5313,119.1094 Q360.9219,119.1094 360.6563,118.875 Q360.3906,118.6406 360.3906,118.25 Q360.3906,117.875 360.6563,117.6406 Q360.9219,117.4063 361.5313,117.4063 L363.25,117.4063 L363.25,110.75 L361.5313,110.75 Q360.9219,110.75 360.6563,110.5156 Q360.3906,110.2813 360.3906,109.8906 Q360.3906,109.5156 360.6563,109.2813 Q360.9219,109.0469 361.5313,109.0469 L366.6719,109.0469 Q367.2813,109.0469 367.5469,109.2813 Q367.8125,109.5156 367.8125,109.8906 Q367.8125,110.2813 367.5469,110.5156 Q367.2813,110.75 366.6719,110.75 L364.9531,110.75 Z " fill="#000000"/><text fill="#000000" font-family="sans-serif" font-size="14" font-style="italic" lengthAdjust="spacing" textLength="108.9512" x="378" y="119.8379">DateComponents</text><line style="stroke:#181818;stroke-width:0.5;" x1="350" x2="488.9512" y1="130.1094" y2="130.1094"/><text fill="#000000" font-family="sans-serif" font-size="14" lengthAdjust="spacing" textLength="82.4824" x="355" y="148.6426">year: number</text><text fill="#000000" font-family="sans-serif" font-size="14" lengthAdjust="spacing" textLength="94.1582" x="355" y="166.252">month: number</text><text fill="#000000" font-family="sans-serif" font-size="14" lengthAdjust="spacing" textLength="77.8203" x="355" y="183.8613">day: number</text><line style="stroke:#181818;stroke-width:0.5;" x1="350" x2="488.9512" y1="190.9375" y2="190.9375"/></g><g id="elem_GMN7"><path d="M525.5,119.1094 L525.5,144.6094 L490.03,148.6094 L525.5,152.6094 L525.5,178.1641 A0,0 0 0 0 525.5,178.1641 L781.3569,178.1641 A0,0 0 0 0 781.3569,178.1641 L781.3569,129.1094 L771.3569,119.1094 L525.5,119.1094 A0,0 0 0 0 525.5,119.1094 " fill="#FEFFDD" style="stroke:#181818;stroke-width:0.5;"/><path d="M771.3569,119.1094 L771.3569,129.1094 L781.3569,129.1094 L771.3569,119.1094 " fill="#FEFFDD" style="stroke:#181818;stroke-width:0.5;"/><text fill="#000000" font-family="sans-serif" font-size="13" lengthAdjust="spacing" textLength="7.2236" x="531.5" y="137.6045">&#160;&#160;</text><text fill="#000000" font-family="sans-serif" font-size="13" lengthAdjust="spacing" textLength="234.8569" x="531.5" y="153.9561">Parsed date components for calculations</text><text fill="#000000" font-family="sans-serif" font-size="13" lengthAdjust="spacing" textLength="3.6118" x="531.5" y="170.3076">&#160;</text></g><!--class DatePair--><g id="elem_DatePair"><rect codeLine="31" fill="#F1F1F1" height="83.2188" id="DatePair" rx="2.5" ry="2.5" style="stroke:#181818;stroke-width:0.5;" width="86.4688" x="549.5" y="347.1094"/><ellipse cx="564.5" cy="363.1094" fill="#B4A7E5" rx="11" ry="11" style="stroke:#181818;stroke-width:1.0;"/><path d="M565.4531,359.75 L565.4531,366.4063 L567.1719,366.4063 Q567.7813,366.4063 568.0469,366.6406 Q568.3125,366.875 568.3125,367.2656 Q568.3125,367.6406 568.0469,367.875 Q567.7813,368.1094 567.1719,368.1094 L562.0313,368.1094 Q561.4219,368.1094 561.1563,367.875 Q560.8906,367.6406 560.8906,367.25 Q560.8906,366.875 561.1563,366.6406 Q561.4219,366.4063 562.0313,366.4063 L563.75,366.4063 L563.75,359.75 L562.0313,359.75 Q561.4219,359.75 561.1563,359.5156 Q560.8906,359.2813 560.8906,358.8906 Q560.8906,358.5156 561.1563,358.2813 Q561.4219,358.0469 562.0313,358.0469 L567.1719,358.0469 Q567.7813,358.0469 568.0469,358.2813 Q568.3125,358.5156 568.3125,358.8906 Q568.3125,359.2813 568.0469,359.5156 Q567.7813,359.75 567.1719,359.75 L565.4531,359.75 Z " fill="#000000"/><text fill="#000000" font-family="sans-serif" font-size="14" font-style="italic" lengthAdjust="spacing" textLength="54.4688" x="578.5" y="368.8379">DatePair</text><line style="stroke:#181818;stroke-width:0.5;" x1="550.5" x2="634.9688" y1="379.1094" y2="379.1094"/><text fill="#000000" font-family="sans-serif" font-size="14" lengthAdjust="spacing" textLength="69.2412" x="555.5" y="397.6426">start: string</text><text fill="#000000" font-family="sans-serif" font-size="14" lengthAdjust="spacing" textLength="65.3721" x="555.5" y="415.252">end: string</text><line style="stroke:#181818;stroke-width:0.5;" x1="550.5" x2="634.9688" y1="422.3281" y2="422.3281"/></g><g id="elem_GMN11"><path d="M671,367.1094 L671,384.6094 L635.78,388.6094 L671,392.6094 L671,409.8125 A0,0 0 0 0 671,409.8125 L903.7134,409.8125 A0,0 0 0 0 903.7134,409.8125 L903.7134,377.1094 L893.7134,367.1094 L671,367.1094 A0,0 0 0 0 671,367.1094 " fill="#FEFFDD" style="stroke:#181818;stroke-width:0.5;"/><path d="M893.7134,367.1094 L893.7134,377.1094 L903.7134,377.1094 L893.7134,367.1094 " fill="#FEFFDD" style="stroke:#181818;stroke-width:0.5;"/><text fill="#000000" font-family="sans-serif" font-size="13" lengthAdjust="spacing" textLength="7.2236" x="677" y="385.6045">&#160;&#160;</text><text fill="#000000" font-family="sans-serif" font-size="13" lengthAdjust="spacing" textLength="211.7134" x="677" y="401.9561">Date pair for year fraction calculation</text></g><!--class DayCountOptions--><g id="elem_DayCountOptions"><rect codeLine="40" fill="#F1F1F1" height="83.2188" id="DayCountOptions" rx="2.5" ry="2.5" style="stroke:#181818;stroke-width:0.5;" width="142.5029" x="939" y="347.1094"/><ellipse cx="954" cy="363.1094" fill="#B4A7E5" rx="11" ry="11" style="stroke:#181818;stroke-width:1.0;"/><path d="M954.9531,359.75 L954.9531,366.4063 L956.6719,366.4063 Q957.2813,366.4063 957.5469,366.6406 Q957.8125,366.875 957.8125,367.2656 Q957.8125,367.6406 957.5469,367.875 Q957.2813,368.1094 956.6719,368.1094 L951.5313,368.1094 Q950.9219,368.1094 950.6563,367.875 Q950.3906,367.6406 950.3906,367.25 Q950.3906,366.875 950.6563,366.6406 Q950.9219,366.4063 951.5313,366.4063 L953.25,366.4063 L953.25,359.75 L951.5313,359.75 Q950.9219,359.75 950.6563,359.5156 Q950.3906,359.2813 950.3906,358.8906 Q950.3906,358.5156 950.6563,358.2813 Q950.9219,358.0469 951.5313,358.0469 L956.6719,358.0469 Q957.2813,358.0469 957.5469,358.2813 Q957.8125,358.5156 957.8125,358.8906 Q957.8125,359.2813 957.5469,359.5156 Q957.2813,359.75 956.6719,359.75 L954.9531,359.75 Z " fill="#000000"/><text fill="#000000" font-family="sans-serif" font-size="14" font-style="italic" lengthAdjust="spacing" textLength="110.5029" x="968" y="368.8379">DayCountOptions</text><line style="stroke:#181818;stroke-width:0.5;" x1="940" x2="1080.5029" y1="379.1094" y2="379.1094"/><text fill="#000000" font-family="sans-serif" font-size="14" lengthAdjust="spacing" textLength="121.4199" x="945" y="397.6426">eomRule?: boolean</text><text fill="#000000" font-family="sans-serif" font-size="14" lengthAdjust="spacing" textLength="124.5166" x="945" y="415.252">frequency?: number</text><line style="stroke:#181818;stroke-width:0.5;" x1="940" x2="1080.5029" y1="422.3281" y2="422.3281"/></g><g id="elem_GMN15"><path d="M1117,367.1094 L1117,384.6094 L1082.09,388.6094 L1117,392.6094 L1117,409.8125 A0,0 0 0 0 1117,409.8125 L1333.8252,409.8125 A0,0 0 0 0 1333.8252,409.8125 L1333.8252,377.1094 L1323.8252,367.1094 L1117,367.1094 A0,0 0 0 0 1117,367.1094 " fill="#FEFFDD" style="stroke:#181818;stroke-width:0.5;"/><path d="M1323.8252,367.1094 L1323.8252,377.1094 L1333.8252,377.1094 L1323.8252,367.1094 " fill="#FEFFDD" style="stroke:#181818;stroke-width:0.5;"/><text fill="#000000" font-family="sans-serif" font-size="13" lengthAdjust="spacing" textLength="7.2236" x="1123" y="385.6045">&#160;&#160;</text><text fill="#000000" font-family="sans-serif" font-size="13" lengthAdjust="spacing" textLength="195.8252" x="1123" y="401.9561">Options for day-count calculations</text></g><!--class DayCountRequest--><g id="elem_DayCountRequest"><rect codeLine="49" fill="#F1F1F1" height="118.4375" id="DayCountRequest" rx="2.5" ry="2.5" style="stroke:#181818;stroke-width:0.5;" width="220.5781" x="817" y="89.6094"/><ellipse cx="865.8394" cy="105.6094" fill="#B4A7E5" rx="11" ry="11" style="stroke:#181818;stroke-width:1.0;"/><path d="M866.7925,102.25 L866.7925,108.9063 L868.5112,108.9063 Q869.1206,108.9063 869.3862,109.1406 Q869.6519,109.375 869.6519,109.7656 Q869.6519,110.1406 869.3862,110.375 Q869.1206,110.6094 868.5112,110.6094 L863.3706,110.6094 Q862.7612,110.6094 862.4956,110.375 Q862.23,110.1406 862.23,109.75 Q862.23,109.375 862.4956,109.1406 Q862.7612,108.9063 863.3706,108.9063 L865.0894,108.9063 L865.0894,102.25 L863.3706,102.25 Q862.7612,102.25 862.4956,102.0156 Q862.23,101.7813 862.23,101.3906 Q862.23,101.0156 862.4956,100.7813 Q862.7612,100.5469 863.3706,100.5469 L868.5112,100.5469 Q869.1206,100.5469 869.3862,100.7813 Q869.6519,101.0156 869.6519,101.3906 Q869.6519,101.7813 869.3862,102.0156 Q869.1206,102.25 868.5112,102.25 L866.7925,102.25 Z " fill="#000000"/><text fill="#000000" font-family="sans-serif" font-size="14" font-style="italic" lengthAdjust="spacing" textLength="114.3994" x="886.3394" y="111.3379">DayCountRequest</text><line style="stroke:#181818;stroke-width:0.5;" x1="818" x2="1036.5781" y1="121.6094" y2="121.6094"/><text fill="#000000" font-family="sans-serif" font-size="14" lengthAdjust="spacing" textLength="100.3721" x="823" y="140.1426">pairs: DatePair[]</text><text fill="#000000" font-family="sans-serif" font-size="14" lengthAdjust="spacing" textLength="208.5781" x="823" y="157.752">convention: DayCountConvention</text><text fill="#000000" font-family="sans-serif" font-size="14" lengthAdjust="spacing" textLength="171.2129" x="823" y="175.3613">options?: DayCountOptions</text><text fill="#000000" font-family="sans-serif" font-size="14" lengthAdjust="spacing" textLength="94.9307" x="823" y="192.9707">version?: string</text><line style="stroke:#181818;stroke-width:0.5;" x1="818" x2="1036.5781" y1="200.0469" y2="200.0469"/></g><g id="elem_GMN19"><path d="M1073,127.1094 L1073,144.6094 L1038.41,148.6094 L1073,152.6094 L1073,169.8125 A0,0 0 0 0 1073,169.8125 L1380.1968,169.8125 A0,0 0 0 0 1380.1968,169.8125 L1380.1968,137.1094 L1370.1968,127.1094 L1073,127.1094 A0,0 0 0 0 1073,127.1094 " fill="#FEFFDD" style="stroke:#181818;stroke-width:0.5;"/><path d="M1370.1968,127.1094 L1370.1968,137.1094 L1380.1968,137.1094 L1370.1968,127.1094 " fill="#FEFFDD" style="stroke:#181818;stroke-width:0.5;"/><text fill="#000000" font-family="sans-serif" font-size="13" lengthAdjust="spacing" textLength="7.2236" x="1079" y="145.6045">&#160;&#160;</text><text fill="#000000" font-family="sans-serif" font-size="13" lengthAdjust="spacing" textLength="286.1968" x="1079" y="161.9561">Request body for /api/daycount/v1/count endpoint</text></g><!--class DayCountResponse--><g id="elem_DayCountResponse"><rect codeLine="60" fill="#F1F1F1" height="100.8281" id="DayCountResponse" rx="2.5" ry="2.5" style="stroke:#181818;stroke-width:0.5;" width="220.5781" x="1415" y="98.1094"/><ellipse cx="1458.477" cy="114.1094" fill="#B4A7E5" rx="11" ry="11" style="stroke:#181818;stroke-width:1.0;"/><path d="M1459.4301,110.75 L1459.4301,117.4063 L1461.1489,117.4063 Q1461.7583,117.4063 1462.0239,117.6406 Q1462.2895,117.875 1462.2895,118.2656 Q1462.2895,118.6406 1462.0239,118.875 Q1461.7583,119.1094 1461.1489,119.1094 L1456.0083,119.1094 Q1455.3989,119.1094 1455.1333,118.875 Q1454.8676,118.6406 1454.8676,118.25 Q1454.8676,117.875 1455.1333,117.6406 Q1455.3989,117.4063 1456.0083,117.4063 L1457.727,117.4063 L1457.727,110.75 L1456.0083,110.75 Q1455.3989,110.75 1455.1333,110.5156 Q1454.8676,110.2813 1454.8676,109.8906 Q1454.8676,109.5156 1455.1333,109.2813 Q1455.3989,109.0469 1456.0083,109.0469 L1461.1489,109.0469 Q1461.7583,109.0469 1462.0239,109.2813 Q1462.2895,109.5156 1462.2895,109.8906 Q1462.2895,110.2813 1462.0239,110.5156 Q1461.7583,110.75 1461.1489,110.75 L1459.4301,110.75 Z " fill="#000000"/><text fill="#000000" font-family="sans-serif" font-size="14" font-style="italic" lengthAdjust="spacing" textLength="125.2959" x="1478.8052" y="119.8379">DayCountResponse</text><line style="stroke:#181818;stroke-width:0.5;" x1="1416" x2="1634.5781" y1="130.1094" y2="130.1094"/><text fill="#000000" font-family="sans-serif" font-size="14" lengthAdjust="spacing" textLength="158.7305" x="1421" y="148.6426">results: DayCountResult[]</text><text fill="#000000" font-family="sans-serif" font-size="14" lengthAdjust="spacing" textLength="208.5781" x="1421" y="166.252">convention: DayCountConvention</text><text fill="#000000" font-family="sans-serif" font-size="14" lengthAdjust="spacing" textLength="87.1445" x="1421" y="183.8613">version: string</text><line style="stroke:#181818;stroke-width:0.5;" x1="1416" x2="1634.5781" y1="190.9375" y2="190.9375"/></g><g id="elem_GMN23"><path d="M1671,127.1094 L1671,144.6094 L1636.11,148.6094 L1671,152.6094 L1671,169.8125 A0,0 0 0 0 1671,169.8125 L1988.3149,169.8125 A0,0 0 0 0 1988.3149,169.8125 L1988.3149,137.1094 L1978.3149,127.1094 L1671,127.1094 A0,0 0 0 0 1671,127.1094 " fill="#FEFFDD" style="stroke:#181818;stroke-width:0.5;"/><path d="M1978.3149,127.1094 L1978.3149,137.1094 L1988.3149,137.1094 L1978.3149,127.1094 " fill="#FEFFDD" style="stroke:#181818;stroke-width:0.5;"/><text fill="#000000" font-family="sans-serif" font-size="13" lengthAdjust="spacing" textLength="7.2236" x="1677" y="145.6045">&#160;&#160;</text><text fill="#000000" font-family="sans-serif" font-size="13" lengthAdjust="spacing" textLength="296.3149" x="1677" y="161.9561">Response body for /api/daycount/v1/count endpoint</text></g><!--class DayCountResult--><g id="elem_DayCountResult"><rect codeLine="70" fill="#F1F1F1" height="100.8281" id="DayCountResult" rx="2.5" ry="2.5" style="stroke:#181818;stroke-width:0.5;" width="145.0547" x="1453" y="338.1094"/><ellipse cx="1473.0027" cy="354.1094" fill="#B4A7E5" rx="11" ry="11" style="stroke:#181818;stroke-width:1.0;"/><path d="M1473.9559,350.75 L1473.9559,357.4063 L1475.6746,357.4063 Q1476.284,357.4063 1476.5496,357.6406 Q1476.8152,357.875 1476.8152,358.2656 Q1476.8152,358.6406 1476.5496,358.875 Q1476.284,359.1094 1475.6746,359.1094 L1470.534,359.1094 Q1469.9246,359.1094 1469.659,358.875 Q1469.3934,358.6406 1469.3934,358.25 Q1469.3934,357.875 1469.659,357.6406 Q1469.9246,357.4063 1470.534,357.4063 L1472.2527,357.4063 L1472.2527,350.75 L1470.534,350.75 Q1469.9246,350.75 1469.659,350.5156 Q1469.3934,350.2813 1469.3934,349.8906 Q1469.3934,349.5156 1469.659,349.2813 Q1469.9246,349.0469 1470.534,349.0469 L1475.6746,349.0469 Q1476.284,349.0469 1476.5496,349.2813 Q1476.8152,349.5156 1476.8152,349.8906 Q1476.8152,350.2813 1476.5496,350.5156 Q1476.284,350.75 1475.6746,350.75 L1473.9559,350.75 Z " fill="#000000"/><text fill="#000000" font-family="sans-serif" font-size="14" font-style="italic" lengthAdjust="spacing" textLength="101.9375" x="1488.1145" y="359.8379">DayCountResult</text><line style="stroke:#181818;stroke-width:0.5;" x1="1454" x2="1597.0547" y1="370.1094" y2="370.1094"/><text fill="#000000" font-family="sans-serif" font-size="14" lengthAdjust="spacing" textLength="84.8203" x="1459" y="388.6426">days: number</text><text fill="#000000" font-family="sans-serif" font-size="14" lengthAdjust="spacing" textLength="133.0547" x="1459" y="406.252">yearFraction: number</text><text fill="#000000" font-family="sans-serif" font-size="14" lengthAdjust="spacing" textLength="87.9307" x="1459" y="423.8613">basis: number</text><line style="stroke:#181818;stroke-width:0.5;" x1="1454" x2="1597.0547" y1="430.9375" y2="430.9375"/></g><g id="elem_GMN27"><path d="M1633.5,367.1094 L1633.5,384.6094 L1598.06,388.6094 L1633.5,392.6094 L1633.5,409.8125 A0,0 0 0 0 1633.5,409.8125 L1851.7788,409.8125 A0,0 0 0 0 1851.7788,409.8125 L1851.7788,377.1094 L1841.7788,367.1094 L1633.5,367.1094 A0,0 0 0 0 1633.5,367.1094 " fill="#FEFFDD" style="stroke:#181818;stroke-width:0.5;"/><path d="M1841.7788,367.1094 L1841.7788,377.1094 L1851.7788,377.1094 L1841.7788,367.1094 " fill="#FEFFDD" style="stroke:#181818;stroke-width:0.5;"/><text fill="#000000" font-family="sans-serif" font-size="13" lengthAdjust="spacing" textLength="7.2236" x="1639.5" y="385.6045">&#160;&#160;</text><text fill="#000000" font-family="sans-serif" font-size="13" lengthAdjust="spacing" textLength="197.2788" x="1639.5" y="401.9561">Single day-count calculation result</text></g><!--class Env--><g id="elem_Env"><rect codeLine="80" fill="#F1F1F1" height="118.4375" id="Env" rx="2.5" ry="2.5" style="stroke:#181818;stroke-width:0.5;" width="312.2959" x="2023.5" y="89.6094"/><ellipse cx="2163.3359" cy="105.6094" fill="#B4A7E5" rx="11" ry="11" style="stroke:#181818;stroke-width:1.0;"/><path d="M2164.2891,102.25 L2164.2891,108.9063 L2166.0078,108.9063 Q2166.6172,108.9063 2166.8828,109.1406 Q2167.1484,109.375 2167.1484,109.7656 Q2167.1484,110.1406 2166.8828,110.375 Q2166.6172,110.6094 2166.0078,110.6094 L2160.8672,110.6094 Q2160.2578,110.6094 2159.9922,110.375 Q2159.7266,110.1406 2159.7266,109.75 Q2159.7266,109.375 2159.9922,109.1406 Q2160.2578,108.9063 2160.8672,108.9063 L2162.5859,108.9063 L2162.5859,102.25 L2160.8672,102.25 Q2160.2578,102.25 2159.9922,102.0156 Q2159.7266,101.7813 2159.7266,101.3906 Q2159.7266,101.0156 2159.9922,100.7813 Q2160.2578,100.5469 2160.8672,100.5469 L2166.0078,100.5469 Q2166.6172,100.5469 2166.8828,100.7813 Q2167.1484,101.0156 2167.1484,101.3906 Q2167.1484,101.7813 2166.8828,102.0156 Q2166.6172,102.25 2166.0078,102.25 L2164.2891,102.25 Z " fill="#000000"/><text fill="#000000" font-family="sans-serif" font-size="14" font-style="italic" lengthAdjust="spacing" textLength="24.124" x="2183.8359" y="111.3379">Env</text><line style="stroke:#181818;stroke-width:0.5;" x1="2024.5" x2="2334.7959" y1="121.6094" y2="121.6094"/><text fill="#000000" font-family="sans-serif" font-size="14" lengthAdjust="spacing" textLength="220.1582" x="2029.5" y="140.1426">INTERNAL_JWT_SECRET?: string</text><text fill="#000000" font-family="sans-serif" font-size="14" lengthAdjust="spacing" textLength="296.3857" x="2029.5" y="157.752">INTERNAL_JWT_SECRET_CURRENT?: string</text><text fill="#000000" font-family="sans-serif" font-size="14" lengthAdjust="spacing" textLength="300.2959" x="2029.5" y="175.3613">INTERNAL_JWT_SECRET_PREVIOUS?: string</text><text fill="#000000" font-family="sans-serif" font-size="14" lengthAdjust="spacing" textLength="153.248" x="2029.5" y="192.9707">ENVIRONMENT?: string</text><line style="stroke:#181818;stroke-width:0.5;" x1="2024.5" x2="2334.7959" y1="200.0469" y2="200.0469"/></g><g id="elem_GMN31"><path d="M2371,127.1094 L2371,144.6094 L2335.71,148.6094 L2371,152.6094 L2371,169.8125 A0,0 0 0 0 2371,169.8125 L2623.9434,169.8125 A0,0 0 0 0 2623.9434,169.8125 L2623.9434,137.1094 L2613.9434,127.1094 L2371,127.1094 A0,0 0 0 0 2371,127.1094 " fill="#FEFFDD" style="stroke:#181818;stroke-width:0.5;"/><path d="M2613.9434,127.1094 L2613.9434,137.1094 L2623.9434,137.1094 L2613.9434,127.1094 " fill="#FEFFDD" style="stroke:#181818;stroke-width:0.5;"/><text fill="#000000" font-family="sans-serif" font-size="13" lengthAdjust="spacing" textLength="7.2236" x="2377" y="145.6045">&#160;&#160;</text><text fill="#000000" font-family="sans-serif" font-size="13" lengthAdjust="spacing" textLength="231.9434" x="2377" y="161.9561">Cloudflare Worker environment bindings</text></g><!--class ErrorResponse--><g id="elem_ErrorResponse"><rect codeLine="91" fill="#F1F1F1" height="206.4844" id="ErrorResponse" rx="2.5" ry="2.5" style="stroke:#181818;stroke-width:0.5;" width="126.1514" x="2659.5" y="45.6094"/><ellipse cx="2674.5" cy="61.6094" fill="#B4A7E5" rx="11" ry="11" style="stroke:#181818;stroke-width:1.0;"/><path d="M2675.4531,58.25 L2675.4531,64.9063 L2677.1719,64.9063 Q2677.7813,64.9063 2678.0469,65.1406 Q2678.3125,65.375 2678.3125,65.7656 Q2678.3125,66.1406 2678.0469,66.375 Q2677.7813,66.6094 2677.1719,66.6094 L2672.0313,66.6094 Q2671.4219,66.6094 2671.1563,66.375 Q2670.8906,66.1406 2670.8906,65.75 Q2670.8906,65.375 2671.1563,65.1406 Q2671.4219,64.9063 2672.0313,64.9063 L2673.75,64.9063 L2673.75,58.25 L2672.0313,58.25 Q2671.4219,58.25 2671.1563,58.0156 Q2670.8906,57.7813 2670.8906,57.3906 Q2670.8906,57.0156 2671.1563,56.7813 Q2671.4219,56.5469 2672.0313,56.5469 L2677.1719,56.5469 Q2677.7813,56.5469 2678.0469,56.7813 Q2678.3125,57.0156 2678.3125,57.3906 Q2678.3125,57.7813 2678.0469,58.0156 Q2677.7813,58.25 2677.1719,58.25 L2675.4531,58.25 Z " fill="#000000"/><text fill="#000000" font-family="sans-serif" font-size="14" font-style="italic" lengthAdjust="spacing" textLength="94.1514" x="2688.5" y="67.3379">ErrorResponse</text><line style="stroke:#181818;stroke-width:0.5;" x1="2660.5" x2="2784.6514" y1="77.6094" y2="77.6094"/><text fill="#000000" font-family="sans-serif" font-size="14" lengthAdjust="spacing" textLength="68.4756" x="2665.5" y="96.1426">type: string</text><text fill="#000000" font-family="sans-serif" font-size="14" lengthAdjust="spacing" textLength="63.7998" x="2665.5" y="113.752">title: string</text><text fill="#000000" font-family="sans-serif" font-size="14" lengthAdjust="spacing" textLength="92.5996" x="2665.5" y="131.3613">status: number</text><text fill="#000000" font-family="sans-serif" font-size="14" lengthAdjust="spacing" textLength="75.4824" x="2665.5" y="148.9707">detail: string</text><text fill="#000000" font-family="sans-serif" font-size="14" lengthAdjust="spacing" textLength="101.9443" x="2665.5" y="166.5801">instance?: string</text><text fill="#000000" font-family="sans-serif" font-size="14" lengthAdjust="spacing" textLength="98.4238" x="2665.5" y="184.1895">errors?: Array&lt;{</text><text fill="#000000" font-family="sans-serif" font-size="14" lengthAdjust="spacing" textLength="79.3721" x="2665.5" y="201.7988">field?: string;</text><text fill="#000000" font-family="sans-serif" font-size="14" lengthAdjust="spacing" textLength="102.71" x="2665.5" y="219.4082">message: string;</text><text fill="#000000" font-family="sans-serif" font-size="14" lengthAdjust="spacing" textLength="12.8516" x="2665.5" y="237.0176">}&gt;</text><line style="stroke:#181818;stroke-width:0.5;" x1="2660.5" x2="2784.6514" y1="244.0938" y2="244.0938"/></g><g id="elem_GMN35"><path d="M2820.5,127.1094 L2820.5,144.6094 L2785.75,148.6094 L2820.5,152.6094 L2820.5,169.8125 A0,0 0 0 0 2820.5,169.8125 L3194.8359,169.8125 A0,0 0 0 0 3194.8359,169.8125 L3194.8359,137.1094 L3184.8359,127.1094 L2820.5,127.1094 A0,0 0 0 0 2820.5,127.1094 " fill="#FEFFDD" style="stroke:#181818;stroke-width:0.5;"/><path d="M3184.8359,127.1094 L3184.8359,137.1094 L3194.8359,137.1094 L3184.8359,127.1094 " fill="#FEFFDD" style="stroke:#181818;stroke-width:0.5;"/><text fill="#000000" font-family="sans-serif" font-size="13" lengthAdjust="spacing" textLength="7.2236" x="2826.5" y="145.6045">&#160;&#160;</text><text fill="#000000" font-family="sans-serif" font-size="13" lengthAdjust="spacing" textLength="353.3359" x="2826.5" y="161.9561">Standard error response following RFC 7807 Problem Details</text></g><!--class index--><g id="elem_index"><rect codeLine="107" fill="#F1F1F1" height="93.9219" id="index" rx="2.5" ry="2.5" style="stroke:#181818;stroke-width:0.5;" width="795.6104" x="3229.5" y="101.6094"/><ellipse cx="3597.3696" cy="122.9609" fill="#ADD1B2" rx="11" ry="11" style="stroke:#181818;stroke-width:1.0;"/><path d="M3600.1353,118.8359 Q3600.2915,118.6172 3600.479,118.5078 Q3600.6665,118.3984 3600.8853,118.3984 Q3601.2603,118.3984 3601.4946,118.6641 Q3601.729,118.9141 3601.729,119.5234 L3601.729,120.9766 Q3601.729,121.5859 3601.4946,121.8516 Q3601.2603,122.1172 3600.8853,122.1172 Q3600.5415,122.1172 3600.3384,121.9141 Q3600.1353,121.7266 3600.0259,121.2109 Q3599.979,120.8516 3599.7915,120.6641 Q3599.4634,120.2891 3598.854,120.0703 Q3598.2446,119.8516 3597.6196,119.8516 Q3596.854,119.8516 3596.2134,120.1797 Q3595.5884,120.5078 3595.0884,121.2578 Q3594.604,122.0078 3594.604,123.0391 L3594.604,124.1328 Q3594.604,125.3672 3595.4946,126.1953 Q3596.3853,127.0078 3597.979,127.0078 Q3598.9165,127.0078 3599.5728,126.7578 Q3599.9634,126.6016 3600.3853,126.1641 Q3600.6509,125.8984 3600.7915,125.8203 Q3600.9478,125.7422 3601.1509,125.7422 Q3601.479,125.7422 3601.729,126.0078 Q3601.9946,126.2578 3601.9946,126.6016 Q3601.9946,126.9453 3601.6509,127.3516 Q3601.1509,127.9297 3600.354,128.2578 Q3599.2759,128.7109 3597.979,128.7109 Q3596.4634,128.7109 3595.2603,128.0859 Q3594.2759,127.5859 3593.5884,126.5234 Q3592.9009,125.4453 3592.9009,124.1641 L3592.9009,123.0078 Q3592.9009,121.6797 3593.5103,120.5391 Q3594.1353,119.3828 3595.229,118.7734 Q3596.3228,118.1484 3597.5571,118.1484 Q3598.2915,118.1484 3598.9321,118.3203 Q3599.5884,118.4766 3600.1353,118.8359 Z " fill="#000000"/><text fill="#000000" font-family="sans-serif" font-size="12" font-style="italic" lengthAdjust="spacing" textLength="55.3711" x="3615.8696" y="119.0664">&#171;effectful&#187;</text><text fill="#000000" font-family="sans-serif" font-size="14" lengthAdjust="spacing" textLength="33.4688" x="3626.8208" y="136.2363">index</text><line style="stroke:#181818;stroke-width:0.5;" x1="3230.5" x2="4024.1104" y1="144.3125" y2="144.3125"/><line style="stroke:#181818;stroke-width:0.5;" x1="3230.5" x2="4024.1104" y1="152.3125" y2="152.3125"/><text fill="#000000" font-family="sans-serif" font-size="14" lengthAdjust="spacing" text-decoration="underline" textLength="698.4893" x="3235.5" y="170.8457">-createErrorBody(status: number, title: string, detail: string, errors?: ValidationError[] | undefined): ErrorResponse</text><text fill="#000000" font-family="sans-serif" font-size="14" lengthAdjust="spacing" text-decoration="underline" textLength="783.6104" x="3235.5" y="188.4551">-calculateSingle(startStr: string, endStr: string, convention: DayCountConvention, options: DayCountOptions): DayCountResult</text></g><g id="elem_GMN39"><path d="M4061,119.1094 L4061,144.6094 L4025.74,148.6094 L4061,152.6094 L4061,178.1641 A0,0 0 0 0 4061,178.1641 L4212.0825,178.1641 A0,0 0 0 0 4212.0825,178.1641 L4212.0825,129.1094 L4202.0825,119.1094 L4061,119.1094 A0,0 0 0 0 4061,119.1094 " fill="#FEFFDD" style="stroke:#181818;stroke-width:0.5;"/><path d="M4202.0825,119.1094 L4202.0825,129.1094 L4212.0825,129.1094 L4202.0825,119.1094 " fill="#FEFFDD" style="stroke:#181818;stroke-width:0.5;"/><text fill="#000000" font-family="sans-serif" font-size="13" lengthAdjust="spacing" textLength="80.939" x="4067" y="137.6045">Module: index</text><text fill="#000000" font-family="sans-serif" font-size="13" lengthAdjust="spacing" textLength="3.6118" x="4067" y="153.9561">&#160;</text><text fill="#000000" font-family="sans-serif" font-size="13" lengthAdjust="spacing" textLength="130.0825" x="4067" y="170.3076">Stereotype: &#171;effectful&#187;</text></g><!--class logger--><g id="elem_logger"><rect codeLine="117" fill="#F1F1F1" height="76.3125" id="logger" rx="2.5" ry="2.5" style="stroke:#181818;stroke-width:0.5;" width="163.375" x="4247" y="110.6094"/><ellipse cx="4298.752" cy="131.9609" fill="#ADD1B2" rx="11" ry="11" style="stroke:#181818;stroke-width:1.0;"/><path d="M4301.5176,127.8359 Q4301.6738,127.6172 4301.8613,127.5078 Q4302.0488,127.3984 4302.2676,127.3984 Q4302.6426,127.3984 4302.877,127.6641 Q4303.1113,127.9141 4303.1113,128.5234 L4303.1113,129.9766 Q4303.1113,130.5859 4302.877,130.8516 Q4302.6426,131.1172 4302.2676,131.1172 Q4301.9238,131.1172 4301.7207,130.9141 Q4301.5176,130.7266 4301.4082,130.2109 Q4301.3613,129.8516 4301.1738,129.6641 Q4300.8457,129.2891 4300.2363,129.0703 Q4299.627,128.8516 4299.002,128.8516 Q4298.2363,128.8516 4297.5957,129.1797 Q4296.9707,129.5078 4296.4707,130.2578 Q4295.9863,131.0078 4295.9863,132.0391 L4295.9863,133.1328 Q4295.9863,134.3672 4296.877,135.1953 Q4297.7676,136.0078 4299.3613,136.0078 Q4300.2988,136.0078 4300.9551,135.7578 Q4301.3457,135.6016 4301.7676,135.1641 Q4302.0332,134.8984 4302.1738,134.8203 Q4302.3301,134.7422 4302.5332,134.7422 Q4302.8613,134.7422 4303.1113,135.0078 Q4303.377,135.2578 4303.377,135.6016 Q4303.377,135.9453 4303.0332,136.3516 Q4302.5332,136.9297 4301.7363,137.2578 Q4300.6582,137.7109 4299.3613,137.7109 Q4297.8457,137.7109 4296.6426,137.0859 Q4295.6582,136.5859 4294.9707,135.5234 Q4294.2832,134.4453 4294.2832,133.1641 L4294.2832,132.0078 Q4294.2832,130.6797 4294.8926,129.5391 Q4295.5176,128.3828 4296.6113,127.7734 Q4297.7051,127.1484 4298.9395,127.1484 Q4299.6738,127.1484 4300.3145,127.3203 Q4300.9707,127.4766 4301.5176,127.8359 Z " fill="#000000"/><text fill="#000000" font-family="sans-serif" font-size="12" font-style="italic" lengthAdjust="spacing" textLength="55.3711" x="4317.252" y="128.0664">&#171;effectful&#187;</text><text fill="#000000" font-family="sans-serif" font-size="14" lengthAdjust="spacing" textLength="38.917" x="4325.479" y="145.2363">logger</text><line style="stroke:#181818;stroke-width:0.5;" x1="4248" x2="4409.375" y1="153.3125" y2="153.3125"/><line style="stroke:#181818;stroke-width:0.5;" x1="4248" x2="4409.375" y1="161.3125" y2="161.3125"/><text fill="#000000" font-family="sans-serif" font-size="14" lengthAdjust="spacing" text-decoration="underline" textLength="151.375" x="4253" y="179.8457">+createLogger(): Logger</text></g><g id="elem_GMN43"><path d="M4445,119.1094 L4445,144.6094 L4410.2,148.6094 L4445,152.6094 L4445,178.1641 A0,0 0 0 0 4445,178.1641 L4596.0825,178.1641 A0,0 0 0 0 4596.0825,178.1641 L4596.0825,129.1094 L4586.0825,119.1094 L4445,119.1094 A0,0 0 0 0 4445,119.1094 " fill="#FEFFDD" style="stroke:#181818;stroke-width:0.5;"/><path d="M4586.0825,119.1094 L4586.0825,129.1094 L4596.0825,129.1094 L4586.0825,119.1094 " fill="#FEFFDD" style="stroke:#181818;stroke-width:0.5;"/><text fill="#000000" font-family="sans-serif" font-size="13" lengthAdjust="spacing" textLength="85.998" x="4451" y="137.6045">Module: logger</text><text fill="#000000" font-family="sans-serif" font-size="13" lengthAdjust="spacing" textLength="3.6118" x="4451" y="153.9561">&#160;</text><text fill="#000000" font-family="sans-serif" font-size="13" lengthAdjust="spacing" textLength="130.0825" x="4451" y="170.3076">Stereotype: &#171;effectful&#187;</text></g><!--class scopes--><g id="elem_scopes"><rect codeLine="126" fill="#F1F1F1" height="111.5313" id="scopes" rx="2.5" ry="2.5" style="stroke:#181818;stroke-width:0.5;" width="635.7178" x="4631.5" y="92.6094"/><ellipse cx="4919.4233" cy="113.9609" fill="#ADD1B2" rx="11" ry="11" style="stroke:#181818;stroke-width:1.0;"/><path d="M4922.189,109.8359 Q4922.3452,109.6172 4922.5327,109.5078 Q4922.7202,109.3984 4922.939,109.3984 Q4923.314,109.3984 4923.5483,109.6641 Q4923.7827,109.9141 4923.7827,110.5234 L4923.7827,111.9766 Q4923.7827,112.5859 4923.5483,112.8516 Q4923.314,113.1172 4922.939,113.1172 Q4922.5952,113.1172 4922.3921,112.9141 Q4922.189,112.7266 4922.0796,112.2109 Q4922.0327,111.8516 4921.8452,111.6641 Q4921.5171,111.2891 4920.9077,111.0703 Q4920.2983,110.8516 4919.6733,110.8516 Q4918.9077,110.8516 4918.2671,111.1797 Q4917.6421,111.5078 4917.1421,112.2578 Q4916.6577,113.0078 4916.6577,114.0391 L4916.6577,115.1328 Q4916.6577,116.3672 4917.5483,117.1953 Q4918.439,118.0078 4920.0327,118.0078 Q4920.9702,118.0078 4921.6265,117.7578 Q4922.0171,117.6016 4922.439,117.1641 Q4922.7046,116.8984 4922.8452,116.8203 Q4923.0015,116.7422 4923.2046,116.7422 Q4923.5327,116.7422 4923.7827,117.0078 Q4924.0483,117.2578 4924.0483,117.6016 Q4924.0483,117.9453 4923.7046,118.3516 Q4923.2046,118.9297 4922.4077,119.2578 Q4921.3296,119.7109 4920.0327,119.7109 Q4918.5171,119.7109 4917.314,119.0859 Q4916.3296,118.5859 4915.6421,117.5234 Q4914.9546,116.4453 4914.9546,115.1641 L4914.9546,114.0078 Q4914.9546,112.6797 4915.564,111.5391 Q4916.189,110.3828 4917.2827,109.7734 Q4918.3765,109.1484 4919.6108,109.1484 Q4920.3452,109.1484 4920.9858,109.3203 Q4921.6421,109.4766 4922.189,109.8359 Z " fill="#000000"/><text fill="#000000" font-family="sans-serif" font-size="12" font-style="italic" lengthAdjust="spacing" textLength="55.3711" x="4937.9233" y="110.0664">&#171;effectful&#187;</text><text fill="#000000" font-family="sans-serif" font-size="14" lengthAdjust="spacing" textLength="44.3584" x="4943.4297" y="127.2363">scopes</text><line style="stroke:#181818;stroke-width:0.5;" x1="4632.5" x2="5266.2178" y1="135.3125" y2="135.3125"/><line style="stroke:#181818;stroke-width:0.5;" x1="4632.5" x2="5266.2178" y1="143.3125" y2="143.3125"/><text fill="#000000" font-family="sans-serif" font-size="14" lengthAdjust="spacing" text-decoration="underline" textLength="610.4834" x="4637.5" y="161.8457">+requireScopes(requiredScopes: string[]): (c: Context&lt;any, any, {}&gt;, next: Next) =&gt; Promise&lt;void&gt;</text><text fill="#000000" font-family="sans-serif" font-size="14" lengthAdjust="spacing" text-decoration="underline" textLength="623.7178" x="4637.5" y="179.4551">+requireAnyScope(allowedScopes: string[]): (c: Context&lt;any, any, {}&gt;, next: Next) =&gt; Promise&lt;void&gt;</text><text fill="#000000" font-family="sans-serif" font-size="14" lengthAdjust="spacing" text-decoration="underline" textLength="577.7871" x="4637.5" y="197.0645">+requireRole(allowedRoles: string[]): (c: Context&lt;any, any, {}&gt;, next: Next) =&gt; Promise&lt;void&gt;</text></g><g id="elem_GMN47"><path d="M5303,119.1094 L5303,144.6094 L5267.74,148.6094 L5303,152.6094 L5303,178.1641 A0,0 0 0 0 5303,178.1641 L5454.0825,178.1641 A0,0 0 0 0 5454.0825,178.1641 L5454.0825,129.1094 L5444.0825,119.1094 L5303,119.1094 A0,0 0 0 0 5303,119.1094 " fill="#FEFFDD" style="stroke:#181818;stroke-width:0.5;"/><path d="M5444.0825,119.1094 L5444.0825,129.1094 L5454.0825,129.1094 L5444.0825,119.1094 " fill="#FEFFDD" style="stroke:#181818;stroke-width:0.5;"/><text fill="#000000" font-family="sans-serif" font-size="13" lengthAdjust="spacing" textLength="91.0508" x="5309" y="137.6045">Module: scopes</text><text fill="#000000" font-family="sans-serif" font-size="13" lengthAdjust="spacing" textLength="3.6118" x="5309" y="153.9561">&#160;</text><text fill="#000000" font-family="sans-serif" font-size="13" lengthAdjust="spacing" textLength="130.0825" x="5309" y="170.3076">Stereotype: &#171;effectful&#187;</text></g><!--class utils--><g id="elem_utils"><rect codeLine="137" fill="#F1F1F1" height="164.3594" id="utils" rx="2.5" ry="2.5" style="stroke:#181818;stroke-width:0.5;" width="500.3115" x="5489.5" y="66.6094"/><ellipse cx="5709.7202" cy="87.9609" fill="#ADD1B2" rx="11" ry="11" style="stroke:#181818;stroke-width:1.0;"/><path d="M5712.4858,83.8359 Q5712.6421,83.6172 5712.8296,83.5078 Q5713.0171,83.3984 5713.2358,83.3984 Q5713.6108,83.3984 5713.8452,83.6641 Q5714.0796,83.9141 5714.0796,84.5234 L5714.0796,85.9766 Q5714.0796,86.5859 5713.8452,86.8516 Q5713.6108,87.1172 5713.2358,87.1172 Q5712.8921,87.1172 5712.689,86.9141 Q5712.4858,86.7266 5712.3765,86.2109 Q5712.3296,85.8516 5712.1421,85.6641 Q5711.814,85.2891 5711.2046,85.0703 Q5710.5952,84.8516 5709.9702,84.8516 Q5709.2046,84.8516 5708.564,85.1797 Q5707.939,85.5078 5707.439,86.2578 Q5706.9546,87.0078 5706.9546,88.0391 L5706.9546,89.1328 Q5706.9546,90.3672 5707.8452,91.1953 Q5708.7358,92.0078 5710.3296,92.0078 Q5711.2671,92.0078 5711.9233,91.7578 Q5712.314,91.6016 5712.7358,91.1641 Q5713.0015,90.8984 5713.1421,90.8203 Q5713.2983,90.7422 5713.5015,90.7422 Q5713.8296,90.7422 5714.0796,91.0078 Q5714.3452,91.2578 5714.3452,91.6016 Q5714.3452,91.9453 5714.0015,92.3516 Q5713.5015,92.9297 5712.7046,93.2578 Q5711.6265,93.7109 5710.3296,93.7109 Q5708.814,93.7109 5707.6108,93.0859 Q5706.6265,92.5859 5705.939,91.5234 Q5705.2515,90.4453 5705.2515,89.1641 L5705.2515,88.0078 Q5705.2515,86.6797 5705.8608,85.5391 Q5706.4858,84.3828 5707.5796,83.7734 Q5708.6733,83.1484 5709.9077,83.1484 Q5710.6421,83.1484 5711.2827,83.3203 Q5711.939,83.4766 5712.4858,83.8359 Z " fill="#000000"/><text fill="#000000" font-family="sans-serif" font-size="12" font-style="italic" lengthAdjust="spacing" textLength="55.3711" x="5728.2202" y="84.0664">&#171;effectful&#187;</text><text fill="#000000" font-family="sans-serif" font-size="14" lengthAdjust="spacing" textLength="24.8965" x="5743.4575" y="101.2363">utils</text><line style="stroke:#181818;stroke-width:0.5;" x1="5490.5" x2="5988.8115" y1="109.3125" y2="109.3125"/><line style="stroke:#181818;stroke-width:0.5;" x1="5490.5" x2="5988.8115" y1="117.3125" y2="117.3125"/><text fill="#000000" font-family="sans-serif" font-size="14" lengthAdjust="spacing" text-decoration="underline" textLength="304.6572" x="5495.5" y="135.8457">+parseDate(dateString: string): DateComponents</text><text fill="#000000" font-family="sans-serif" font-size="14" lengthAdjust="spacing" text-decoration="underline" textLength="228.416" x="5495.5" y="153.4551">+isLeapYear(year: number): boolean</text><text fill="#000000" font-family="sans-serif" font-size="14" lengthAdjust="spacing" text-decoration="underline" textLength="488.3115" x="5495.5" y="171.0645">+actualDaysBetween(start: DateComponents, end: DateComponents): number</text><text fill="#000000" font-family="sans-serif" font-size="14" lengthAdjust="spacing" text-decoration="underline" textLength="337.3262" x="5495.5" y="188.6738">+daysInMonth(year: number, month: number): number</text><text fill="#000000" font-family="sans-serif" font-size="14" lengthAdjust="spacing" text-decoration="underline" textLength="307.7949" x="5495.5" y="206.2832">+isEndOfMonth(date: DateComponents): boolean</text><text fill="#000000" font-family="sans-serif" font-size="14" lengthAdjust="spacing" text-decoration="underline" textLength="456.4014" x="5495.5" y="223.8926">+validateDateOrder(start: DateComponents, end: DateComponents): void</text></g><g id="elem_GMN51"><path d="M6025,119.1094 L6025,144.6094 L5989.73,148.6094 L6025,152.6094 L6025,178.1641 A0,0 0 0 0 6025,178.1641 L6176.0825,178.1641 A0,0 0 0 0 6176.0825,178.1641 L6176.0825,129.1094 L6166.0825,119.1094 L6025,119.1094 A0,0 0 0 0 6025,119.1094 " fill="#FEFFDD" style="stroke:#181818;stroke-width:0.5;"/><path d="M6166.0825,119.1094 L6166.0825,129.1094 L6176.0825,129.1094 L6166.0825,119.1094 " fill="#FEFFDD" style="stroke:#181818;stroke-width:0.5;"/><text fill="#000000" font-family="sans-serif" font-size="13" lengthAdjust="spacing" textLength="72.979" x="6031" y="137.6045">Module: utils</text><text fill="#000000" font-family="sans-serif" font-size="13" lengthAdjust="spacing" textLength="3.6118" x="6031" y="153.9561">&#160;</text><text fill="#000000" font-family="sans-serif" font-size="13" lengthAdjust="spacing" textLength="130.0825" x="6031" y="170.3076">Stereotype: &#171;effectful&#187;</text></g><!--class ValidationError--><g id="elem_ValidationError"><rect codeLine="151" fill="#F1F1F1" height="83.2188" id="ValidationError" rx="2.5" ry="2.5" style="stroke:#181818;stroke-width:0.5;" width="124.5996" x="6211" y="107.1094"/><ellipse cx="6226" cy="123.1094" fill="#B4A7E5" rx="11" ry="11" style="stroke:#181818;stroke-width:1.0;"/><path d="M6226.9531,119.75 L6226.9531,126.4063 L6228.6719,126.4063 Q6229.2813,126.4063 6229.5469,126.6406 Q6229.8125,126.875 6229.8125,127.2656 Q6229.8125,127.6406 6229.5469,127.875 Q6229.2813,128.1094 6228.6719,128.1094 L6223.5313,128.1094 Q6222.9219,128.1094 6222.6563,127.875 Q6222.3906,127.6406 6222.3906,127.25 Q6222.3906,126.875 6222.6563,126.6406 Q6222.9219,126.4063 6223.5313,126.4063 L6225.25,126.4063 L6225.25,119.75 L6223.5313,119.75 Q6222.9219,119.75 6222.6563,119.5156 Q6222.3906,119.2813 6222.3906,118.8906 Q6222.3906,118.5156 6222.6563,118.2813 Q6222.9219,118.0469 6223.5313,118.0469 L6228.6719,118.0469 Q6229.2813,118.0469 6229.5469,118.2813 Q6229.8125,118.5156 6229.8125,118.8906 Q6229.8125,119.2813 6229.5469,119.5156 Q6229.2813,119.75 6228.6719,119.75 L6226.9531,119.75 Z " fill="#000000"/><text fill="#000000" font-family="sans-serif" font-size="14" font-style="italic" lengthAdjust="spacing" textLength="92.5996" x="6240" y="128.8379">ValidationError</text><line style="stroke:#181818;stroke-width:0.5;" x1="6212" x2="6334.5996" y1="139.1094" y2="139.1094"/><text fill="#000000" font-family="sans-serif" font-size="14" lengthAdjust="spacing" textLength="67.6963" x="6217" y="157.6426">field: string</text><text fill="#000000" font-family="sans-serif" font-size="14" lengthAdjust="spacing" textLength="98.8203" x="6217" y="175.252">message: string</text><line style="stroke:#181818;stroke-width:0.5;" x1="6212" x2="6334.5996" y1="182.3281" y2="182.3281"/></g><g id="elem_GMN55"><path d="M6371,127.1094 L6371,144.6094 L6336.03,148.6094 L6371,152.6094 L6371,169.8125 A0,0 0 0 0 6371,169.8125 L6579.8716,169.8125 A0,0 0 0 0 6579.8716,169.8125 L6579.8716,137.1094 L6569.8716,127.1094 L6371,127.1094 A0,0 0 0 0 6371,127.1094 " fill="#FEFFDD" style="stroke:#181818;stroke-width:0.5;"/><path d="M6569.8716,127.1094 L6569.8716,137.1094 L6579.8716,137.1094 L6569.8716,127.1094 " fill="#FEFFDD" style="stroke:#181818;stroke-width:0.5;"/><text fill="#000000" font-family="sans-serif" font-size="13" lengthAdjust="spacing" textLength="7.2236" x="6377" y="145.6045">&#160;&#160;</text><text fill="#000000" font-family="sans-serif" font-size="13" lengthAdjust="spacing" textLength="187.8716" x="6377" y="161.9561">Validation error with field context</text></g><!--class validators--><g id="elem_validators"><rect codeLine="160" fill="#F1F1F1" height="93.9219" id="validators" rx="2.5" ry="2.5" style="stroke:#181818;stroke-width:0.5;" width="411.6084" x="6615.5" y="101.6094"/><ellipse cx="6787.0957" cy="122.9609" fill="#ADD1B2" rx="11" ry="11" style="stroke:#181818;stroke-width:1.0;"/><path d="M6789.8613,118.8359 Q6790.0176,118.6172 6790.2051,118.5078 Q6790.3926,118.3984 6790.6113,118.3984 Q6790.9863,118.3984 6791.2207,118.6641 Q6791.4551,118.9141 6791.4551,119.5234 L6791.4551,120.9766 Q6791.4551,121.5859 6791.2207,121.8516 Q6790.9863,122.1172 6790.6113,122.1172 Q6790.2676,122.1172 6790.0645,121.9141 Q6789.8613,121.7266 6789.752,121.2109 Q6789.7051,120.8516 6789.5176,120.6641 Q6789.1895,120.2891 6788.5801,120.0703 Q6787.9707,119.8516 6787.3457,119.8516 Q6786.5801,119.8516 6785.9395,120.1797 Q6785.3145,120.5078 6784.8145,121.2578 Q6784.3301,122.0078 6784.3301,123.0391 L6784.3301,124.1328 Q6784.3301,125.3672 6785.2207,126.1953 Q6786.1113,127.0078 6787.7051,127.0078 Q6788.6426,127.0078 6789.2988,126.7578 Q6789.6895,126.6016 6790.1113,126.1641 Q6790.377,125.8984 6790.5176,125.8203 Q6790.6738,125.7422 6790.877,125.7422 Q6791.2051,125.7422 6791.4551,126.0078 Q6791.7207,126.2578 6791.7207,126.6016 Q6791.7207,126.9453 6791.377,127.3516 Q6790.877,127.9297 6790.0801,128.2578 Q6789.002,128.7109 6787.7051,128.7109 Q6786.1895,128.7109 6784.9863,128.0859 Q6784.002,127.5859 6783.3145,126.5234 Q6782.627,125.4453 6782.627,124.1641 L6782.627,123.0078 Q6782.627,121.6797 6783.2363,120.5391 Q6783.8613,119.3828 6784.9551,118.7734 Q6786.0488,118.1484 6787.2832,118.1484 Q6788.0176,118.1484 6788.6582,118.3203 Q6789.3145,118.4766 6789.8613,118.8359 Z " fill="#000000"/><text fill="#000000" font-family="sans-serif" font-size="12" font-style="italic" lengthAdjust="spacing" textLength="37.3652" x="6818.8716" y="119.0664">&#171;pure&#187;</text><text fill="#000000" font-family="sans-serif" font-size="14" lengthAdjust="spacing" textLength="59.917" x="6807.5957" y="136.2363">validators</text><line style="stroke:#181818;stroke-width:0.5;" x1="6616.5" x2="7026.1084" y1="144.3125" y2="144.3125"/><line style="stroke:#181818;stroke-width:0.5;" x1="6616.5" x2="7026.1084" y1="152.3125" y2="152.3125"/><text fill="#000000" font-family="sans-serif" font-size="14" lengthAdjust="spacing" text-decoration="underline" textLength="399.6084" x="6621.5" y="170.8457">+normalizeConvention(convention: string): DayCountConvention</text><text fill="#000000" font-family="sans-serif" font-size="14" lengthAdjust="spacing" text-decoration="underline" textLength="345.666" x="6621.5" y="188.4551">+validateRequest(body: unknown): ValidationError | null</text></g><g id="elem_GMN59"><path d="M7062.5,119.1094 L7062.5,144.6094 L7027.55,148.6094 L7062.5,152.6094 L7062.5,178.1641 A0,0 0 0 0 7062.5,178.1641 L7194.0762,178.1641 A0,0 0 0 0 7194.0762,178.1641 L7194.0762,129.1094 L7184.0762,119.1094 L7062.5,119.1094 A0,0 0 0 0 7062.5,119.1094 " fill="#FEFFDD" style="stroke:#181818;stroke-width:0.5;"/><path d="M7184.0762,119.1094 L7184.0762,129.1094 L7194.0762,129.1094 L7184.0762,119.1094 " fill="#FEFFDD" style="stroke:#181818;stroke-width:0.5;"/><text fill="#000000" font-family="sans-serif" font-size="13" lengthAdjust="spacing" textLength="105.498" x="7068.5" y="137.6045">Module: validators</text><text fill="#000000" font-family="sans-serif" font-size="13" lengthAdjust="spacing" textLength="3.6118" x="7068.5" y="153.9561">&#160;</text><text fill="#000000" font-family="sans-serif" font-size="13" lengthAdjust="spacing" textLength="110.5762" x="7068.5" y="170.3076">Stereotype: &#171;pure&#187;</text></g><!--class Variables--><g id="elem_Variables"><rect codeLine="170" fill="#F1F1F1" height="83.2188" id="Variables" rx="2.5" ry="2.5" style="stroke:#181818;stroke-width:0.5;" width="119.3584" x="7" y="107.1094"/><ellipse cx="35.0469" cy="123.1094" fill="#B4A7E5" rx="11" ry="11" style="stroke:#181818;stroke-width:1.0;"/><path d="M36,119.75 L36,126.4063 L37.7188,126.4063 Q38.3282,126.4063 38.5938,126.6406 Q38.8594,126.875 38.8594,127.2656 Q38.8594,127.6406 38.5938,127.875 Q38.3282,128.1094 37.7188,128.1094 L32.5782,128.1094 Q31.9688,128.1094 31.7032,127.875 Q31.4375,127.6406 31.4375,127.25 Q31.4375,126.875 31.7032,126.6406 Q31.9688,126.4063 32.5782,126.4063 L34.2969,126.4063 L34.2969,119.75 L32.5782,119.75 Q31.9688,119.75 31.7032,119.5156 Q31.4375,119.2813 31.4375,118.8906 Q31.4375,118.5156 31.7032,118.2813 Q31.9688,118.0469 32.5782,118.0469 L37.7188,118.0469 Q38.3282,118.0469 38.5938,118.2813 Q38.8594,118.5156 38.8594,118.8906 Q38.8594,119.2813 38.5938,119.5156 Q38.3282,119.75 37.7188,119.75 L36,119.75 Z " fill="#000000"/><text fill="#000000" font-family="sans-serif" font-size="14" font-style="italic" lengthAdjust="spacing" textLength="58.3652" x="51.9462" y="128.8379">Variables</text><line style="stroke:#181818;stroke-width:0.5;" x1="8" x2="125.3584" y1="139.1094" y2="139.1094"/><text fill="#000000" font-family="sans-serif" font-size="14" lengthAdjust="spacing" textLength="100.3857" x="13" y="157.6426">requestId: string</text><text fill="#000000" font-family="sans-serif" font-size="14" lengthAdjust="spacing" textLength="107.3584" x="13" y="175.252">actor: ActorClaim</text><line style="stroke:#181818;stroke-width:0.5;" x1="8" x2="125.3584" y1="182.3281" y2="182.3281"/></g><g id="elem_GMN63"><path d="M161,127.1094 L161,144.6094 L126.31,148.6094 L161,152.6094 L161,169.8125 A0,0 0 0 0 161,169.8125 L314.2407,169.8125 A0,0 0 0 0 314.2407,169.8125 L314.2407,137.1094 L304.2407,127.1094 L161,127.1094 A0,0 0 0 0 161,127.1094 " fill="#FEFFDD" style="stroke:#181818;stroke-width:0.5;"/><path d="M304.2407,127.1094 L304.2407,137.1094 L314.2407,137.1094 L304.2407,127.1094 " fill="#FEFFDD" style="stroke:#181818;stroke-width:0.5;"/><text fill="#000000" font-family="sans-serif" font-size="13" lengthAdjust="spacing" textLength="7.2236" x="167" y="145.6045">&#160;&#160;</text><text fill="#000000" font-family="sans-serif" font-size="13" lengthAdjust="spacing" textLength="132.2407" x="167" y="161.9561">Hono context variables</text></g><!--link DayCountRequest to DatePair--><g id="link_DayCountRequest_DatePair"><path codeLine="180" d="M816.88,203.6094 C719.3,203.6094 592.5,203.6094 592.5,203.6094 C592.5,203.6094 592.5,286.5494 592.5,341.0894 " fill="none" id="DayCountRequest-to-DatePair" style="stroke:#181818;stroke-width:1.0;stroke-dasharray:7.0,7.0;"/><polygon fill="#181818" points="592.5,347.0894,596.5,338.0894,592.5,342.0894,588.5,338.0894,592.5,347.0894" style="stroke:#181818;stroke-width:1.0;"/><text fill="#000000" font-family="sans-serif" font-size="13" lengthAdjust="spacing" textLength="27.46" x="604.95" y="200.1045">uses</text></g><!--link DayCountRequest to DayCountOptions--><g id="link_DayCountRequest_DayCountOptions"><path codeLine="181" d="M988.5,207.6294 C988.5,250.7894 988.5,302.2894 988.5,340.7894 " fill="none" id="DayCountRequest-to-DayCountOptions" style="stroke:#181818;stroke-width:1.0;stroke-dasharray:7.0,7.0;"/><polygon fill="#181818" points="988.5,346.7894,992.5,337.7894,988.5,341.7894,984.5,337.7894,988.5,346.7894" style="stroke:#181818;stroke-width:1.0;"/><text fill="#000000" font-family="sans-serif" font-size="13" lengthAdjust="spacing" textLength="27.46" x="960.5" y="273.7045">uses</text></g><!--link DayCountResponse to DayCountResult--><g id="link_DayCountResponse_DayCountResult"><path codeLine="182" d="M1525.5,199.2094 C1525.5,240.0594 1525.5,291.2494 1525.5,332.0694 " fill="none" id="DayCountResponse-to-DayCountResult" style="stroke:#181818;stroke-width:1.0;stroke-dasharray:7.0,7.0;"/><polygon fill="#181818" points="1525.5,338.0694,1529.5,329.0694,1525.5,333.0694,1521.5,329.0694,1525.5,338.0694" style="stroke:#181818;stroke-width:1.0;"/><text fill="#000000" font-family="sans-serif" font-size="13" lengthAdjust="spacing" textLength="27.46" x="1497.5" y="265.1345">uses</text></g><!--link Variables to ActorClaim--><g id="link_Variables_ActorClaim"><path codeLine="183" d="M66.5,190.1394 C66.5,223.4094 66.5,265.0194 66.5,305.2594 " fill="none" id="Variables-to-ActorClaim" style="stroke:#181818;stroke-width:1.0;stroke-dasharray:7.0,7.0;"/><polygon fill="#181818" points="66.5,311.2594,70.5,302.2594,66.5,306.2594,62.5,302.2594,66.5,311.2594" style="stroke:#181818;stroke-width:1.0;"/><text fill="#000000" font-family="sans-serif" font-size="13" lengthAdjust="spacing" textLength="27.46" x="38.5" y="247.1945">uses</text></g><!--SRC=[jLTHRzis47xtho3wCXjpckwfWvivI1qNyv3OWPoaAueYeAMJGqGYDP9owcRvxxkZ98ko72S1Ei0mHEfuztrtnxkJ5JO1TihNeSgbPGTib71ZsAdWIytJJiVS2PbnV6GXlJYnLej5Rc4IAZaNFu2zyqGI8S6kCs1AsrlLwGXfGSSy17OIMgLHjKZPGuSnOSo06LGbbxWo-S9RQPN0iRVEGASRwQ_VS4VffI-GYwXUFdQaii2qMDvQfcBFC4fst8gO88vOgvGvX98dxA_Fbvq0CWq6f3NipHpqIY3mlnaFBIfcCHwyCg3PbpSTa14ZCpx3KsvXfD9CIQU0MAw1wm6JURe0ZSjKINlhhIE-tgosOJUr4VGBhWr4U0Z5mjeEmGfv4kO9jq99qtaIt0KNsi4obclh-GyFFEc-wY0Xe6UMaHOoIkJGX-GT9Nq8Jm1OZoZ1Pfb3wN20IeFSnNgXCEPSubwiuPySPBW-tkEQXYf2LcabNEZLWoAN6sxP1oeWcyOwKCGFiwtYxV8DKts5paOzWysPqMQF4hAmVppO0Mu5sk3ZyHuNDr0GdmhGGaLhH-gGP-8mAY_fuUgtmu8XaieKydc6dS5aCU3eONxdYJK3_orkl8ncIUK5J0gB1PNI-i_YWcWT4zHWlCj4wVYfp4PlUy6DCC-cKg6MuCwH5zR3dKbKEcydmB5SELIJwUKuc9wStM0zkPcFHy7uqYzLErxVZAw2O3nzLkmY65zFPbTpNsuylPu4i-bvu_WsIOH6p4Q9ogCuuHhOPwNli921N0cjP8hnPGiX8poy-vwCjLQwaKPKv3qSbfg8Nz0jjxaVdGWi5uad8IJAoB1Hw87Cq2KwqPglZyWE5WG1ILtUFxYz58pXI_0t7uTjtZvg5rkq674T5OOecWMXM2M9kgSQ7tmQiVU_ltlFBhHQ992oKuVRzuhhWWW_Wk_iw0ZY648RvybmwFnoy43KHVZ8GWrOGXo6ZvZvtQPB-asNzRSSrAzzSSqJ4RdqSxg-VcF_iXojnzXgezwWnT93K6Ok53dTTML_RhLdH4QDzVu2qA_ANAlAzRRBIIiMpb-8xbn5ET6krlYROvQ1AXAguT2MqnErN6BQjht-wvRNpvnW5s4LJoquXIOFpsRZLO1Cg38mUm5HEnCQvawoMwwYObdFD8Yq6muO-jh2Ttl4vRhFtD_3ux3F9EuDs1J_U-oF8ULcAWmShPI8XhkCdSYrCz3bbDV_jxK0MtTbYPv_Zg7jY1MkzYAssNXLn7ABjtblm38QiwZxTsdIcZic5QFUe3sNrIU5EGEUVS4-rFK7lvu_tjJIsAbodk2rCH_1tWF8RZcMDItqY-cikTdpAckjaHhYH9xJaDa0q6yEdhiF2pEMqImkJXFp7JPtqLWLvSbvRAOZl7Mlea71RiNQ1SaBTRL-OQJhlhLLErsaNJ_ncivMBsc1sT91CEgjifFS2tjRAAOIIhdUIhpIJrZJ4NUMQsWbdbGwHQ4VK5VShb-GlHJSCPgr8rBEa5sQkz27yawgUzbhDHHi9p9FaXRl6h0NYSPcAnm5hISYeGN7ZchA8TH1c_XnuFHbDl0_rzgHA7MGxJ-LL9Mp4LRrfhRz2mkWdFrlHMOwsxF-sxV3-gi8_MFWAPdcXqjBj1mYVDboIYr5Q-uautq8b-__0m00]--></g></svg>