<svg xmlns="http://www.w3.org/2000/svg" xmlns:xlink="http://www.w3.org/1999/xlink" contentStyleType="text/css" height="402px" preserveAspectRatio="none" style="width:8980px;height:402px;background:#FFFFFF;" version="1.1" viewBox="0 0 8980 402" width="8980px" zoomAndPan="magnify"><title>Ui - Class Diagram</title><defs/><g><text fill="#000000" font-family="sans-serif" font-size="14" font-weight="bold" lengthAdjust="spacing" textLength="123.71" x="4421.1914" y="24.5332">Ui - Class Diagram</text><!--class ApiError--><g id="elem_ApiError"><rect codeLine="6" fill="#F1F1F1" height="48" id="ApiError" rx="2.5" ry="2.5" style="stroke:#181818;stroke-width:0.5;" width="83.3447" x="7" y="116.1094"/><ellipse cx="22" cy="132.1094" fill="#ADD1B2" rx="11" ry="11" style="stroke:#181818;stroke-width:1.0;"/><path d="M24.7656,127.9844 Q24.9219,127.7656 25.1094,127.6563 Q25.2969,127.5469 25.5156,127.5469 Q25.8906,127.5469 26.125,127.8125 Q26.3594,128.0625 26.3594,128.6719 L26.3594,130.125 Q26.3594,130.7344 26.125,131 Q25.8906,131.2656 25.5156,131.2656 Q25.1719,131.2656 24.9688,131.0625 Q24.7656,130.875 24.6563,130.3594 Q24.6094,130 24.4219,129.8125 Q24.0938,129.4375 23.4844,129.2188 Q22.875,129 22.25,129 Q21.4844,129 20.8438,129.3281 Q20.2188,129.6563 19.7188,130.4063 Q19.2344,131.1563 19.2344,132.1875 L19.2344,133.2813 Q19.2344,134.5156 20.125,135.3438 Q21.0156,136.1563 22.6094,136.1563 Q23.5469,136.1563 24.2031,135.9063 Q24.5938,135.75 25.0156,135.3125 Q25.2813,135.0469 25.4219,134.9688 Q25.5781,134.8906 25.7813,134.8906 Q26.1094,134.8906 26.3594,135.1563 Q26.625,135.4063 26.625,135.75 Q26.625,136.0938 26.2813,136.5 Q25.7813,137.0781 24.9844,137.4063 Q23.9063,137.8594 22.6094,137.8594 Q21.0938,137.8594 19.8906,137.2344 Q18.9063,136.7344 18.2188,135.6719 Q17.5313,134.5938 17.5313,133.3125 L17.5313,132.1563 Q17.5313,130.8281 18.1406,129.6875 Q18.7656,128.5313 19.8594,127.9219 Q20.9531,127.2969 22.1875,127.2969 Q22.9219,127.2969 23.5625,127.4688 Q24.2188,127.625 24.7656,127.9844 Z " fill="#000000"/><text fill="#000000" font-family="sans-serif" font-size="14" lengthAdjust="spacing" textLength="51.3447" x="36" y="137.8379">ApiError</text><line style="stroke:#181818;stroke-width:0.5;" x1="8" x2="89.3447" y1="148.1094" y2="148.1094"/><line style="stroke:#181818;stroke-width:0.5;" x1="8" x2="89.3447" y1="156.1094" y2="156.1094"/></g><g id="elem_GMN3"><path d="M125,86.1094 L125,136.6094 L90.27,140.6094 L125,144.6094 L125,194.2188 A0,0 0 0 0 125,194.2188 L530.3887,194.2188 A0,0 0 0 0 530.3887,194.2188 L530.3887,96.1094 L520.3887,86.1094 L125,86.1094 A0,0 0 0 0 125,86.1094 " fill="#FEFFDD" style="stroke:#181818;stroke-width:0.5;"/><path d="M520.3887,86.1094 L520.3887,96.1094 L530.3887,96.1094 L520.3887,86.1094 " fill="#FEFFDD" style="stroke:#181818;stroke-width:0.5;"/><text fill="#000000" font-family="sans-serif" font-size="13" lengthAdjust="spacing" textLength="7.2236" x="131" y="104.6045">&#160;&#160;</text><text fill="#000000" font-family="sans-serif" font-size="13" lengthAdjust="spacing" textLength="378.5806" x="131" y="120.9561">Custom error class for API errors with field-level validation details.</text><text fill="#000000" font-family="sans-serif" font-size="13" lengthAdjust="spacing" textLength="3.6118" x="131" y="137.3076">&#160;</text><text fill="#000000" font-family="sans-serif" font-size="13" lengthAdjust="spacing" textLength="384.3887" x="131" y="153.6592">Extends Error with HTTP status code and optional field-level errors</text><text fill="#000000" font-family="sans-serif" font-size="13" lengthAdjust="spacing" textLength="251.4307" x="131" y="170.0107">from RFC 7807 Problem Details responses.</text><text fill="#000000" font-family="sans-serif" font-size="13" lengthAdjust="spacing" textLength="3.6118" x="131" y="186.3623">&#160;</text></g><!--class Auth0ProviderWithNavigateProps--><g id="elem_Auth0ProviderWithNavigateProps"><rect codeLine="17" fill="#F1F1F1" height="65.6094" id="Auth0ProviderWithNavigateProps" rx="2.5" ry="2.5" style="stroke:#181818;stroke-width:0.5;" width="240.5439" x="8579" y="107.1094"/><ellipse cx="8594" cy="123.1094" fill="#B4A7E5" rx="11" ry="11" style="stroke:#181818;stroke-width:1.0;"/><path d="M8594.9531,119.75 L8594.9531,126.4063 L8596.6719,126.4063 Q8597.2813,126.4063 8597.5469,126.6406 Q8597.8125,126.875 8597.8125,127.2656 Q8597.8125,127.6406 8597.5469,127.875 Q8597.2813,128.1094 8596.6719,128.1094 L8591.5313,128.1094 Q8590.9219,128.1094 8590.6563,127.875 Q8590.3906,127.6406 8590.3906,127.25 Q8590.3906,126.875 8590.6563,126.6406 Q8590.9219,126.4063 8591.5313,126.4063 L8593.25,126.4063 L8593.25,119.75 L8591.5313,119.75 Q8590.9219,119.75 8590.6563,119.5156 Q8590.3906,119.2813 8590.3906,118.8906 Q8590.3906,118.5156 8590.6563,118.2813 Q8590.9219,118.0469 8591.5313,118.0469 L8596.6719,118.0469 Q8597.2813,118.0469 8597.5469,118.2813 Q8597.8125,118.5156 8597.8125,118.8906 Q8597.8125,119.2813 8597.5469,119.5156 Q8597.2813,119.75 8596.6719,119.75 L8594.9531,119.75 Z " fill="#000000"/><text fill="#000000" font-family="sans-serif" font-size="14" font-style="italic" lengthAdjust="spacing" textLength="208.5439" x="8608" y="128.8379">Auth0ProviderWithNavigateProps</text><line style="stroke:#181818;stroke-width:0.5;" x1="8580" x2="8818.5439" y1="139.1094" y2="139.1094"/><text fill="#000000" font-family="sans-serif" font-size="14" lengthAdjust="spacing" textLength="126.8477" x="8585" y="157.6426">children: ReactNode</text><line style="stroke:#181818;stroke-width:0.5;" x1="8580" x2="8818.5439" y1="164.7188" y2="164.7188"/></g><!--class Auth0ProviderWithNavigatex--><g id="elem_Auth0ProviderWithNavigatex"><rect codeLine="21" fill="#F1F1F1" height="76.3125" id="Auth0ProviderWithNavigatex" rx="2.5" ry="2.5" style="stroke:#181818;stroke-width:0.5;" width="572.6563" x="565" y="102.1094"/><ellipse cx="757.5923" cy="123.4609" fill="#ADD1B2" rx="11" ry="11" style="stroke:#181818;stroke-width:1.0;"/><path d="M760.3579,119.3359 Q760.5142,119.1172 760.7017,119.0078 Q760.8892,118.8984 761.1079,118.8984 Q761.4829,118.8984 761.7173,119.1641 Q761.9517,119.4141 761.9517,120.0234 L761.9517,121.4766 Q761.9517,122.0859 761.7173,122.3516 Q761.4829,122.6172 761.1079,122.6172 Q760.7642,122.6172 760.561,122.4141 Q760.3579,122.2266 760.2485,121.7109 Q760.2017,121.3516 760.0142,121.1641 Q759.686,120.7891 759.0767,120.5703 Q758.4673,120.3516 757.8423,120.3516 Q757.0767,120.3516 756.436,120.6797 Q755.811,121.0078 755.311,121.7578 Q754.8267,122.5078 754.8267,123.5391 L754.8267,124.6328 Q754.8267,125.8672 755.7173,126.6953 Q756.6079,127.5078 758.2017,127.5078 Q759.1392,127.5078 759.7954,127.2578 Q760.186,127.1016 760.6079,126.6641 Q760.8735,126.3984 761.0142,126.3203 Q761.1704,126.2422 761.3735,126.2422 Q761.7017,126.2422 761.9517,126.5078 Q762.2173,126.7578 762.2173,127.1016 Q762.2173,127.4453 761.8735,127.8516 Q761.3735,128.4297 760.5767,128.7578 Q759.4985,129.2109 758.2017,129.2109 Q756.686,129.2109 755.4829,128.5859 Q754.4985,128.0859 753.811,127.0234 Q753.1235,125.9453 753.1235,124.6641 L753.1235,123.5078 Q753.1235,122.1797 753.7329,121.0391 Q754.3579,119.8828 755.4517,119.2734 Q756.5454,118.6484 757.7798,118.6484 Q758.5142,118.6484 759.1548,118.8203 Q759.811,118.9766 760.3579,119.3359 Z " fill="#000000"/><text fill="#000000" font-family="sans-serif" font-size="12" font-style="italic" lengthAdjust="spacing" textLength="55.3711" x="839.8926" y="119.5664">&#171;effectful&#187;</text><text fill="#000000" font-family="sans-serif" font-size="14" lengthAdjust="spacing" textLength="178.9717" x="778.0923" y="136.7363">Auth0ProviderWithNavigatex</text><line style="stroke:#181818;stroke-width:0.5;" x1="566" x2="1136.6563" y1="144.8125" y2="144.8125"/><line style="stroke:#181818;stroke-width:0.5;" x1="566" x2="1136.6563" y1="152.8125" y2="152.8125"/><text fill="#000000" font-family="sans-serif" font-size="14" lengthAdjust="spacing" text-decoration="underline" textLength="560.6563" x="571" y="171.3457">+Auth0ProviderWithNavigate({ children }: Auth0ProviderWithNavigateProps): JSX.Element</text></g><g id="elem_GMN8"><path d="M1173,110.6094 L1173,136.6094 L1138.23,140.6094 L1173,144.6094 L1173,169.6641 A0,0 0 0 0 1173,169.6641 L1410.0488,169.6641 A0,0 0 0 0 1410.0488,169.6641 L1410.0488,120.6094 L1400.0488,110.6094 L1173,110.6094 A0,0 0 0 0 1173,110.6094 " fill="#FEFFDD" style="stroke:#181818;stroke-width:0.5;"/><path d="M1400.0488,110.6094 L1400.0488,120.6094 L1410.0488,120.6094 L1400.0488,110.6094 " fill="#FEFFDD" style="stroke:#181818;stroke-width:0.5;"/><text fill="#000000" font-family="sans-serif" font-size="13" lengthAdjust="spacing" textLength="216.0488" x="1179" y="129.1045">Module: Auth0ProviderWithNavigatex</text><text fill="#000000" font-family="sans-serif" font-size="13" lengthAdjust="spacing" textLength="3.6118" x="1179" y="145.4561">&#160;</text><text fill="#000000" font-family="sans-serif" font-size="13" lengthAdjust="spacing" textLength="130.0825" x="1179" y="161.8076">Stereotype: &#171;effectful&#187;</text></g><!--class AuthButtonx--><g id="elem_AuthButtonx"><rect codeLine="30" fill="#F1F1F1" height="93.9219" id="AuthButtonx" rx="2.5" ry="2.5" style="stroke:#181818;stroke-width:0.5;" width="215.875" x="1445.5" y="93.1094"/><ellipse cx="1511.0498" cy="114.4609" fill="#ADD1B2" rx="11" ry="11" style="stroke:#181818;stroke-width:1.0;"/><path d="M1513.8154,110.3359 Q1513.9717,110.1172 1514.1592,110.0078 Q1514.3467,109.8984 1514.5654,109.8984 Q1514.9404,109.8984 1515.1748,110.1641 Q1515.4092,110.4141 1515.4092,111.0234 L1515.4092,112.4766 Q1515.4092,113.0859 1515.1748,113.3516 Q1514.9404,113.6172 1514.5654,113.6172 Q1514.2217,113.6172 1514.0186,113.4141 Q1513.8154,113.2266 1513.7061,112.7109 Q1513.6592,112.3516 1513.4717,112.1641 Q1513.1436,111.7891 1512.5342,111.5703 Q1511.9248,111.3516 1511.2998,111.3516 Q1510.5342,111.3516 1509.8936,111.6797 Q1509.2686,112.0078 1508.7686,112.7578 Q1508.2842,113.5078 1508.2842,114.5391 L1508.2842,115.6328 Q1508.2842,116.8672 1509.1748,117.6953 Q1510.0654,118.5078 1511.6592,118.5078 Q1512.5967,118.5078 1513.2529,118.2578 Q1513.6436,118.1016 1514.0654,117.6641 Q1514.3311,117.3984 1514.4717,117.3203 Q1514.6279,117.2422 1514.8311,117.2422 Q1515.1592,117.2422 1515.4092,117.5078 Q1515.6748,117.7578 1515.6748,118.1016 Q1515.6748,118.4453 1515.3311,118.8516 Q1514.8311,119.4297 1514.0342,119.7578 Q1512.9561,120.2109 1511.6592,120.2109 Q1510.1436,120.2109 1508.9404,119.5859 Q1507.9561,119.0859 1507.2686,118.0234 Q1506.5811,116.9453 1506.5811,115.6641 L1506.5811,114.5078 Q1506.5811,113.1797 1507.1904,112.0391 Q1507.8154,110.8828 1508.9092,110.2734 Q1510.0029,109.6484 1511.2373,109.6484 Q1511.9717,109.6484 1512.6123,109.8203 Q1513.2686,109.9766 1513.8154,110.3359 Z " fill="#000000"/><text fill="#000000" font-family="sans-serif" font-size="12" font-style="italic" lengthAdjust="spacing" textLength="55.3711" x="1542.002" y="110.5664">&#171;effectful&#187;</text><text fill="#000000" font-family="sans-serif" font-size="14" lengthAdjust="spacing" textLength="76.2754" x="1531.5498" y="127.7363">AuthButtonx</text><line style="stroke:#181818;stroke-width:0.5;" x1="1446.5" x2="1660.375" y1="135.8125" y2="135.8125"/><line style="stroke:#181818;stroke-width:0.5;" x1="1446.5" x2="1660.375" y1="143.8125" y2="143.8125"/><text fill="#000000" font-family="sans-serif" font-size="14" lengthAdjust="spacing" text-decoration="underline" textLength="203.875" x="1451.5" y="162.3457">-AuthButtonInner(): JSX.Element</text><text fill="#000000" font-family="sans-serif" font-size="14" lengthAdjust="spacing" text-decoration="underline" textLength="175.4785" x="1451.5" y="179.9551">+AuthButton(): JSX.Element</text></g><g id="elem_GMN12"><path d="M1697,110.6094 L1697,136.6094 L1661.72,140.6094 L1697,144.6094 L1697,169.6641 A0,0 0 0 0 1697,169.6641 L1848.0825,169.6641 A0,0 0 0 0 1848.0825,169.6641 L1848.0825,120.6094 L1838.0825,110.6094 L1697,110.6094 A0,0 0 0 0 1697,110.6094 " fill="#FEFFDD" style="stroke:#181818;stroke-width:0.5;"/><path d="M1838.0825,110.6094 L1838.0825,120.6094 L1848.0825,120.6094 L1838.0825,110.6094 " fill="#FEFFDD" style="stroke:#181818;stroke-width:0.5;"/><text fill="#000000" font-family="sans-serif" font-size="13" lengthAdjust="spacing" textLength="120.688" x="1703" y="129.1045">Module: AuthButtonx</text><text fill="#000000" font-family="sans-serif" font-size="13" lengthAdjust="spacing" textLength="3.6118" x="1703" y="145.4561">&#160;</text><text fill="#000000" font-family="sans-serif" font-size="13" lengthAdjust="spacing" textLength="130.0825" x="1703" y="161.8076">Stereotype: &#171;effectful&#187;</text></g><!--class CallbackHandlerx--><g id="elem_CallbackHandlerx"><rect codeLine="40" fill="#F1F1F1" height="93.9219" id="CallbackHandlerx" rx="2.5" ry="2.5" style="stroke:#181818;stroke-width:0.5;" width="249.3164" x="1883" y="93.1094"/><ellipse cx="1948.5498" cy="114.4609" fill="#ADD1B2" rx="11" ry="11" style="stroke:#181818;stroke-width:1.0;"/><path d="M1951.3154,110.3359 Q1951.4717,110.1172 1951.6592,110.0078 Q1951.8467,109.8984 1952.0654,109.8984 Q1952.4404,109.8984 1952.6748,110.1641 Q1952.9092,110.4141 1952.9092,111.0234 L1952.9092,112.4766 Q1952.9092,113.0859 1952.6748,113.3516 Q1952.4404,113.6172 1952.0654,113.6172 Q1951.7217,113.6172 1951.5186,113.4141 Q1951.3154,113.2266 1951.2061,112.7109 Q1951.1592,112.3516 1950.9717,112.1641 Q1950.6436,111.7891 1950.0342,111.5703 Q1949.4248,111.3516 1948.7998,111.3516 Q1948.0342,111.3516 1947.3936,111.6797 Q1946.7686,112.0078 1946.2686,112.7578 Q1945.7842,113.5078 1945.7842,114.5391 L1945.7842,115.6328 Q1945.7842,116.8672 1946.6748,117.6953 Q1947.5654,118.5078 1949.1592,118.5078 Q1950.0967,118.5078 1950.7529,118.2578 Q1951.1436,118.1016 1951.5654,117.6641 Q1951.8311,117.3984 1951.9717,117.3203 Q1952.1279,117.2422 1952.3311,117.2422 Q1952.6592,117.2422 1952.9092,117.5078 Q1953.1748,117.7578 1953.1748,118.1016 Q1953.1748,118.4453 1952.8311,118.8516 Q1952.3311,119.4297 1951.5342,119.7578 Q1950.4561,120.2109 1949.1592,120.2109 Q1947.6436,120.2109 1946.4404,119.5859 Q1945.4561,119.0859 1944.7686,118.0234 Q1944.0811,116.9453 1944.0811,115.6641 L1944.0811,114.5078 Q1944.0811,113.1797 1944.6904,112.0391 Q1945.3154,110.8828 1946.4092,110.2734 Q1947.5029,109.6484 1948.7373,109.6484 Q1949.4717,109.6484 1950.1123,109.8203 Q1950.7686,109.9766 1951.3154,110.3359 Z " fill="#000000"/><text fill="#000000" font-family="sans-serif" font-size="12" font-style="italic" lengthAdjust="spacing" textLength="55.3711" x="1996.2227" y="110.5664">&#171;effectful&#187;</text><text fill="#000000" font-family="sans-serif" font-size="14" lengthAdjust="spacing" textLength="109.7168" x="1969.0498" y="127.7363">CallbackHandlerx</text><line style="stroke:#181818;stroke-width:0.5;" x1="1884" x2="2131.3164" y1="135.8125" y2="135.8125"/><line style="stroke:#181818;stroke-width:0.5;" x1="1884" x2="2131.3164" y1="143.8125" y2="143.8125"/><text fill="#000000" font-family="sans-serif" font-size="14" lengthAdjust="spacing" text-decoration="underline" textLength="237.3164" x="1889" y="162.3457">-CallbackHandlerInner(): JSX.Element</text><text fill="#000000" font-family="sans-serif" font-size="14" lengthAdjust="spacing" text-decoration="underline" textLength="208.9199" x="1889" y="179.9551">+CallbackHandler(): JSX.Element</text></g><g id="elem_GMN16"><path d="M2167,110.6094 L2167,136.6094 L2132.3,140.6094 L2167,144.6094 L2167,169.6641 A0,0 0 0 0 2167,169.6641 L2339.7407,169.6641 A0,0 0 0 0 2339.7407,169.6641 L2339.7407,120.6094 L2329.7407,110.6094 L2167,110.6094 A0,0 0 0 0 2167,110.6094 " fill="#FEFFDD" style="stroke:#181818;stroke-width:0.5;"/><path d="M2329.7407,110.6094 L2329.7407,120.6094 L2339.7407,120.6094 L2329.7407,110.6094 " fill="#FEFFDD" style="stroke:#181818;stroke-width:0.5;"/><text fill="#000000" font-family="sans-serif" font-size="13" lengthAdjust="spacing" textLength="151.7407" x="2173" y="129.1045">Module: CallbackHandlerx</text><text fill="#000000" font-family="sans-serif" font-size="13" lengthAdjust="spacing" textLength="3.6118" x="2173" y="145.4561">&#160;</text><text fill="#000000" font-family="sans-serif" font-size="13" lengthAdjust="spacing" textLength="130.0825" x="2173" y="161.8076">Stereotype: &#171;effectful&#187;</text></g><!--class client--><g id="elem_client"><rect codeLine="50" fill="#F1F1F1" height="93.9219" id="client" rx="2.5" ry="2.5" style="stroke:#181818;stroke-width:0.5;" width="721.8643" x="2375.5" y="93.1094"/><ellipse cx="2706.4966" cy="114.4609" fill="#ADD1B2" rx="11" ry="11" style="stroke:#181818;stroke-width:1.0;"/><path d="M2709.2622,110.3359 Q2709.4185,110.1172 2709.606,110.0078 Q2709.7935,109.8984 2710.0122,109.8984 Q2710.3872,109.8984 2710.6216,110.1641 Q2710.856,110.4141 2710.856,111.0234 L2710.856,112.4766 Q2710.856,113.0859 2710.6216,113.3516 Q2710.3872,113.6172 2710.0122,113.6172 Q2709.6685,113.6172 2709.4653,113.4141 Q2709.2622,113.2266 2709.1528,112.7109 Q2709.106,112.3516 2708.9185,112.1641 Q2708.5903,111.7891 2707.981,111.5703 Q2707.3716,111.3516 2706.7466,111.3516 Q2705.981,111.3516 2705.3403,111.6797 Q2704.7153,112.0078 2704.2153,112.7578 Q2703.731,113.5078 2703.731,114.5391 L2703.731,115.6328 Q2703.731,116.8672 2704.6216,117.6953 Q2705.5122,118.5078 2707.106,118.5078 Q2708.0435,118.5078 2708.6997,118.2578 Q2709.0903,118.1016 2709.5122,117.6641 Q2709.7778,117.3984 2709.9185,117.3203 Q2710.0747,117.2422 2710.2778,117.2422 Q2710.606,117.2422 2710.856,117.5078 Q2711.1216,117.7578 2711.1216,118.1016 Q2711.1216,118.4453 2710.7778,118.8516 Q2710.2778,119.4297 2709.481,119.7578 Q2708.4028,120.2109 2707.106,120.2109 Q2705.5903,120.2109 2704.3872,119.5859 Q2703.4028,119.0859 2702.7153,118.0234 Q2702.0278,116.9453 2702.0278,115.6641 L2702.0278,114.5078 Q2702.0278,113.1797 2702.6372,112.0391 Q2703.2622,110.8828 2704.356,110.2734 Q2705.4497,109.6484 2706.6841,109.6484 Q2707.4185,109.6484 2708.0591,109.8203 Q2708.7153,109.9766 2709.2622,110.3359 Z " fill="#000000"/><text fill="#000000" font-family="sans-serif" font-size="12" font-style="italic" lengthAdjust="spacing" textLength="55.3711" x="2724.9966" y="110.5664">&#171;effectful&#187;</text><text fill="#000000" font-family="sans-serif" font-size="14" lengthAdjust="spacing" textLength="32.6826" x="2736.3408" y="127.7363">client</text><line style="stroke:#181818;stroke-width:0.5;" x1="2376.5" x2="3096.3643" y1="135.8125" y2="135.8125"/><line style="stroke:#181818;stroke-width:0.5;" x1="2376.5" x2="3096.3643" y1="143.8125" y2="143.8125"/><text fill="#000000" font-family="sans-serif" font-size="14" lengthAdjust="spacing" text-decoration="underline" textLength="145.4893" x="2381.5" y="162.3457">-getApiBaseUrl(): string</text><text fill="#000000" font-family="sans-serif" font-size="14" lengthAdjust="spacing" text-decoration="underline" textLength="709.8643" x="2381.5" y="179.9551">+async calculateDayCount(request: DayCountRequest, token?: string | undefined): Promise&lt;DayCountResponse&gt;</text></g><g id="elem_GMN20"><path d="M3133,110.6094 L3133,136.6094 L3097.54,140.6094 L3133,144.6094 L3133,169.6641 A0,0 0 0 0 3133,169.6641 L3284.0825,169.6641 A0,0 0 0 0 3284.0825,169.6641 L3284.0825,120.6094 L3274.0825,110.6094 L3133,110.6094 A0,0 0 0 0 3133,110.6094 " fill="#FEFFDD" style="stroke:#181818;stroke-width:0.5;"/><path d="M3274.0825,110.6094 L3274.0825,120.6094 L3284.0825,120.6094 L3274.0825,110.6094 " fill="#FEFFDD" style="stroke:#181818;stroke-width:0.5;"/><text fill="#000000" font-family="sans-serif" font-size="13" lengthAdjust="spacing" textLength="80.209" x="3139" y="129.1045">Module: client</text><text fill="#000000" font-family="sans-serif" font-size="13" lengthAdjust="spacing" textLength="3.6118" x="3139" y="145.4561">&#160;</text><text fill="#000000" font-family="sans-serif" font-size="13" lengthAdjust="spacing" textLength="130.0825" x="3139" y="161.8076">Stereotype: &#171;effectful&#187;</text></g><!--class DatePair--><g id="elem_DatePair"><rect codeLine="60" fill="#F1F1F1" height="83.2188" id="DatePair" rx="2.5" ry="2.5" style="stroke:#181818;stroke-width:0.5;" width="86.4688" x="3186.5" y="303.6094"/><ellipse cx="3201.5" cy="319.6094" fill="#B4A7E5" rx="11" ry="11" style="stroke:#181818;stroke-width:1.0;"/><path d="M3202.4531,316.25 L3202.4531,322.9063 L3204.1719,322.9063 Q3204.7813,322.9063 3205.0469,323.1406 Q3205.3125,323.375 3205.3125,323.7656 Q3205.3125,324.1406 3205.0469,324.375 Q3204.7813,324.6094 3204.1719,324.6094 L3199.0313,324.6094 Q3198.4219,324.6094 3198.1563,324.375 Q3197.8906,324.1406 3197.8906,323.75 Q3197.8906,323.375 3198.1563,323.1406 Q3198.4219,322.9063 3199.0313,322.9063 L3200.75,322.9063 L3200.75,316.25 L3199.0313,316.25 Q3198.4219,316.25 3198.1563,316.0156 Q3197.8906,315.7813 3197.8906,315.3906 Q3197.8906,315.0156 3198.1563,314.7813 Q3198.4219,314.5469 3199.0313,314.5469 L3204.1719,314.5469 Q3204.7813,314.5469 3205.0469,314.7813 Q3205.3125,315.0156 3205.3125,315.3906 Q3205.3125,315.7813 3205.0469,316.0156 Q3204.7813,316.25 3204.1719,316.25 L3202.4531,316.25 Z " fill="#000000"/><text fill="#000000" font-family="sans-serif" font-size="14" font-style="italic" lengthAdjust="spacing" textLength="54.4688" x="3215.5" y="325.3379">DatePair</text><line style="stroke:#181818;stroke-width:0.5;" x1="3187.5" x2="3271.9688" y1="335.6094" y2="335.6094"/><text fill="#000000" font-family="sans-serif" font-size="14" lengthAdjust="spacing" textLength="69.2412" x="3192.5" y="354.1426">start: string</text><text fill="#000000" font-family="sans-serif" font-size="14" lengthAdjust="spacing" textLength="65.3721" x="3192.5" y="371.752">end: string</text><line style="stroke:#181818;stroke-width:0.5;" x1="3187.5" x2="3271.9688" y1="378.8281" y2="378.8281"/></g><g id="elem_GMN24"><path d="M3308,315.6094 L3308,341.6094 L3272.64,345.6094 L3308,349.6094 L3308,374.6641 A0,0 0 0 0 3308,374.6641 L3523.3589,374.6641 A0,0 0 0 0 3523.3589,374.6641 L3523.3589,325.6094 L3513.3589,315.6094 L3308,315.6094 A0,0 0 0 0 3308,315.6094 " fill="#FEFFDD" style="stroke:#181818;stroke-width:0.5;"/><path d="M3513.3589,315.6094 L3513.3589,325.6094 L3523.3589,325.6094 L3513.3589,315.6094 " fill="#FEFFDD" style="stroke:#181818;stroke-width:0.5;"/><text fill="#000000" font-family="sans-serif" font-size="13" lengthAdjust="spacing" textLength="7.2236" x="3314" y="334.1045">&#160;&#160;</text><text fill="#000000" font-family="sans-serif" font-size="13" lengthAdjust="spacing" textLength="194.3589" x="3314" y="350.4561">API Client for Bond Math services</text><text fill="#000000" font-family="sans-serif" font-size="13" lengthAdjust="spacing" textLength="3.6118" x="3314" y="366.8076">&#160;</text></g><!--class DayCountCalculatorx--><g id="elem_DayCountCalculatorx"><rect codeLine="70" fill="#F1F1F1" height="93.9219" id="DayCountCalculatorx" rx="2.5" ry="2.5" style="stroke:#181818;stroke-width:0.5;" width="271.8818" x="3882.5" y="93.1094"/><ellipse cx="3948.0498" cy="114.4609" fill="#ADD1B2" rx="11" ry="11" style="stroke:#181818;stroke-width:1.0;"/><path d="M3950.8154,110.3359 Q3950.9717,110.1172 3951.1592,110.0078 Q3951.3467,109.8984 3951.5654,109.8984 Q3951.9404,109.8984 3952.1748,110.1641 Q3952.4092,110.4141 3952.4092,111.0234 L3952.4092,112.4766 Q3952.4092,113.0859 3952.1748,113.3516 Q3951.9404,113.6172 3951.5654,113.6172 Q3951.2217,113.6172 3951.0186,113.4141 Q3950.8154,113.2266 3950.7061,112.7109 Q3950.6592,112.3516 3950.4717,112.1641 Q3950.1436,111.7891 3949.5342,111.5703 Q3948.9248,111.3516 3948.2998,111.3516 Q3947.5342,111.3516 3946.8936,111.6797 Q3946.2686,112.0078 3945.7686,112.7578 Q3945.2842,113.5078 3945.2842,114.5391 L3945.2842,115.6328 Q3945.2842,116.8672 3946.1748,117.6953 Q3947.0654,118.5078 3948.6592,118.5078 Q3949.5967,118.5078 3950.2529,118.2578 Q3950.6436,118.1016 3951.0654,117.6641 Q3951.3311,117.3984 3951.4717,117.3203 Q3951.6279,117.2422 3951.8311,117.2422 Q3952.1592,117.2422 3952.4092,117.5078 Q3952.6748,117.7578 3952.6748,118.1016 Q3952.6748,118.4453 3952.3311,118.8516 Q3951.8311,119.4297 3951.0342,119.7578 Q3949.9561,120.2109 3948.6592,120.2109 Q3947.1436,120.2109 3945.9404,119.5859 Q3944.9561,119.0859 3944.2686,118.0234 Q3943.5811,116.9453 3943.5811,115.6641 L3943.5811,114.5078 Q3943.5811,113.1797 3944.1904,112.0391 Q3944.8154,110.8828 3945.9092,110.2734 Q3947.0029,109.6484 3948.2373,109.6484 Q3948.9717,109.6484 3949.6123,109.8203 Q3950.2686,109.9766 3950.8154,110.3359 Z " fill="#000000"/><text fill="#000000" font-family="sans-serif" font-size="12" font-style="italic" lengthAdjust="spacing" textLength="55.3711" x="4007.0054" y="110.5664">&#171;effectful&#187;</text><text fill="#000000" font-family="sans-serif" font-size="14" lengthAdjust="spacing" textLength="132.2822" x="3968.5498" y="127.7363">DayCountCalculatorx</text><line style="stroke:#181818;stroke-width:0.5;" x1="3883.5" x2="4153.3818" y1="135.8125" y2="135.8125"/><line style="stroke:#181818;stroke-width:0.5;" x1="3883.5" x2="4153.3818" y1="143.8125" y2="143.8125"/><text fill="#000000" font-family="sans-serif" font-size="14" lengthAdjust="spacing" text-decoration="underline" textLength="259.8818" x="3888.5" y="162.3457">-DayCountCalculatorInner(): JSX.Element</text><text fill="#000000" font-family="sans-serif" font-size="14" lengthAdjust="spacing" text-decoration="underline" textLength="231.4854" x="3888.5" y="179.9551">+DayCountCalculator(): JSX.Element</text></g><g id="elem_GMN28"><path d="M4189.5,110.6094 L4189.5,136.6094 L4154.86,140.6094 L4189.5,144.6094 L4189.5,169.6641 A0,0 0 0 0 4189.5,169.6641 L4383.1943,169.6641 A0,0 0 0 0 4383.1943,169.6641 L4383.1943,120.6094 L4373.1943,110.6094 L4189.5,110.6094 A0,0 0 0 0 4189.5,110.6094 " fill="#FEFFDD" style="stroke:#181818;stroke-width:0.5;"/><path d="M4373.1943,110.6094 L4373.1943,120.6094 L4383.1943,120.6094 L4373.1943,110.6094 " fill="#FEFFDD" style="stroke:#181818;stroke-width:0.5;"/><text fill="#000000" font-family="sans-serif" font-size="13" lengthAdjust="spacing" textLength="172.6943" x="4195.5" y="129.1045">Module: DayCountCalculatorx</text><text fill="#000000" font-family="sans-serif" font-size="13" lengthAdjust="spacing" textLength="3.6118" x="4195.5" y="145.4561">&#160;</text><text fill="#000000" font-family="sans-serif" font-size="13" lengthAdjust="spacing" textLength="130.0825" x="4195.5" y="161.8076">Stereotype: &#171;effectful&#187;</text></g><!--class DayCountOptions--><g id="elem_DayCountOptions"><rect codeLine="80" fill="#F1F1F1" height="83.2188" id="DayCountOptions" rx="2.5" ry="2.5" style="stroke:#181818;stroke-width:0.5;" width="142.5029" x="3558" y="303.6094"/><ellipse cx="3573" cy="319.6094" fill="#B4A7E5" rx="11" ry="11" style="stroke:#181818;stroke-width:1.0;"/><path d="M3573.9531,316.25 L3573.9531,322.9063 L3575.6719,322.9063 Q3576.2813,322.9063 3576.5469,323.1406 Q3576.8125,323.375 3576.8125,323.7656 Q3576.8125,324.1406 3576.5469,324.375 Q3576.2813,324.6094 3575.6719,324.6094 L3570.5313,324.6094 Q3569.9219,324.6094 3569.6563,324.375 Q3569.3906,324.1406 3569.3906,323.75 Q3569.3906,323.375 3569.6563,323.1406 Q3569.9219,322.9063 3570.5313,322.9063 L3572.25,322.9063 L3572.25,316.25 L3570.5313,316.25 Q3569.9219,316.25 3569.6563,316.0156 Q3569.3906,315.7813 3569.3906,315.3906 Q3569.3906,315.0156 3569.6563,314.7813 Q3569.9219,314.5469 3570.5313,314.5469 L3575.6719,314.5469 Q3576.2813,314.5469 3576.5469,314.7813 Q3576.8125,315.0156 3576.8125,315.3906 Q3576.8125,315.7813 3576.5469,316.0156 Q3576.2813,316.25 3575.6719,316.25 L3573.9531,316.25 Z " fill="#000000"/><text fill="#000000" font-family="sans-serif" font-size="14" font-style="italic" lengthAdjust="spacing" textLength="110.5029" x="3587" y="325.3379">DayCountOptions</text><line style="stroke:#181818;stroke-width:0.5;" x1="3559" x2="3699.5029" y1="335.6094" y2="335.6094"/><text fill="#000000" font-family="sans-serif" font-size="14" lengthAdjust="spacing" textLength="121.4199" x="3564" y="354.1426">eomRule?: boolean</text><text fill="#000000" font-family="sans-serif" font-size="14" lengthAdjust="spacing" textLength="124.5166" x="3564" y="371.752">frequency?: number</text><line style="stroke:#181818;stroke-width:0.5;" x1="3559" x2="3699.5029" y1="378.8281" y2="378.8281"/></g><g id="elem_GMN32"><path d="M3736,315.6094 L3736,341.6094 L3701.32,345.6094 L3736,349.6094 L3736,374.6641 A0,0 0 0 0 3736,374.6641 L4028.6987,374.6641 A0,0 0 0 0 4028.6987,374.6641 L4028.6987,325.6094 L4018.6987,315.6094 L3736,315.6094 A0,0 0 0 0 3736,315.6094 " fill="#FEFFDD" style="stroke:#181818;stroke-width:0.5;"/><path d="M4018.6987,315.6094 L4018.6987,325.6094 L4028.6987,325.6094 L4018.6987,315.6094 " fill="#FEFFDD" style="stroke:#181818;stroke-width:0.5;"/><text fill="#000000" font-family="sans-serif" font-size="13" lengthAdjust="spacing" textLength="7.2236" x="3742" y="334.1045">&#160;&#160;</text><text fill="#000000" font-family="sans-serif" font-size="13" lengthAdjust="spacing" textLength="271.6987" x="3742" y="350.4561">Optional parameters for day count calculations.</text><text fill="#000000" font-family="sans-serif" font-size="13" lengthAdjust="spacing" textLength="3.6118" x="3742" y="366.8076">&#160;</text></g><!--class DayCountRequest--><g id="elem_DayCountRequest"><rect codeLine="90" fill="#F1F1F1" height="100.8281" id="DayCountRequest" rx="2.5" ry="2.5" style="stroke:#181818;stroke-width:0.5;" width="220.5781" x="3319" y="89.6094"/><ellipse cx="3367.8394" cy="105.6094" fill="#B4A7E5" rx="11" ry="11" style="stroke:#181818;stroke-width:1.0;"/><path d="M3368.7925,102.25 L3368.7925,108.9063 L3370.5112,108.9063 Q3371.1206,108.9063 3371.3862,109.1406 Q3371.6519,109.375 3371.6519,109.7656 Q3371.6519,110.1406 3371.3862,110.375 Q3371.1206,110.6094 3370.5112,110.6094 L3365.3706,110.6094 Q3364.7612,110.6094 3364.4956,110.375 Q3364.23,110.1406 3364.23,109.75 Q3364.23,109.375 3364.4956,109.1406 Q3364.7612,108.9063 3365.3706,108.9063 L3367.0894,108.9063 L3367.0894,102.25 L3365.3706,102.25 Q3364.7612,102.25 3364.4956,102.0156 Q3364.23,101.7813 3364.23,101.3906 Q3364.23,101.0156 3364.4956,100.7813 Q3364.7612,100.5469 3365.3706,100.5469 L3370.5112,100.5469 Q3371.1206,100.5469 3371.3862,100.7813 Q3371.6519,101.0156 3371.6519,101.3906 Q3371.6519,101.7813 3371.3862,102.0156 Q3371.1206,102.25 3370.5112,102.25 L3368.7925,102.25 Z " fill="#000000"/><text fill="#000000" font-family="sans-serif" font-size="14" font-style="italic" lengthAdjust="spacing" textLength="114.3994" x="3388.3394" y="111.3379">DayCountRequest</text><line style="stroke:#181818;stroke-width:0.5;" x1="3320" x2="3538.5781" y1="121.6094" y2="121.6094"/><text fill="#000000" font-family="sans-serif" font-size="14" lengthAdjust="spacing" textLength="100.3721" x="3325" y="140.1426">pairs: DatePair[]</text><text fill="#000000" font-family="sans-serif" font-size="14" lengthAdjust="spacing" textLength="208.5781" x="3325" y="157.752">convention: DayCountConvention</text><text fill="#000000" font-family="sans-serif" font-size="14" lengthAdjust="spacing" textLength="171.2129" x="3325" y="175.3613">options?: DayCountOptions</text><line style="stroke:#181818;stroke-width:0.5;" x1="3320" x2="3538.5781" y1="182.4375" y2="182.4375"/></g><g id="elem_GMN36"><path d="M3575.5,110.6094 L3575.5,136.6094 L3540.14,140.6094 L3575.5,144.6094 L3575.5,169.6641 A0,0 0 0 0 3575.5,169.6641 L3847.9878,169.6641 A0,0 0 0 0 3847.9878,169.6641 L3847.9878,120.6094 L3837.9878,110.6094 L3575.5,110.6094 A0,0 0 0 0 3575.5,110.6094 " fill="#FEFFDD" style="stroke:#181818;stroke-width:0.5;"/><path d="M3837.9878,110.6094 L3837.9878,120.6094 L3847.9878,120.6094 L3837.9878,110.6094 " fill="#FEFFDD" style="stroke:#181818;stroke-width:0.5;"/><text fill="#000000" font-family="sans-serif" font-size="13" lengthAdjust="spacing" textLength="7.2236" x="3581.5" y="129.1045">&#160;&#160;</text><text fill="#000000" font-family="sans-serif" font-size="13" lengthAdjust="spacing" textLength="251.4878" x="3581.5" y="145.4561">Request payload for day count calculations.</text><text fill="#000000" font-family="sans-serif" font-size="13" lengthAdjust="spacing" textLength="3.6118" x="3581.5" y="161.8076">&#160;</text></g><!--class DayCountResponse--><g id="elem_DayCountResponse"><rect codeLine="101" fill="#F1F1F1" height="100.8281" id="DayCountResponse" rx="2.5" ry="2.5" style="stroke:#181818;stroke-width:0.5;" width="220.5781" x="4419" y="89.6094"/><ellipse cx="4462.477" cy="105.6094" fill="#B4A7E5" rx="11" ry="11" style="stroke:#181818;stroke-width:1.0;"/><path d="M4463.4301,102.25 L4463.4301,108.9063 L4465.1489,108.9063 Q4465.7583,108.9063 4466.0239,109.1406 Q4466.2895,109.375 4466.2895,109.7656 Q4466.2895,110.1406 4466.0239,110.375 Q4465.7583,110.6094 4465.1489,110.6094 L4460.0083,110.6094 Q4459.3989,110.6094 4459.1333,110.375 Q4458.8676,110.1406 4458.8676,109.75 Q4458.8676,109.375 4459.1333,109.1406 Q4459.3989,108.9063 4460.0083,108.9063 L4461.727,108.9063 L4461.727,102.25 L4460.0083,102.25 Q4459.3989,102.25 4459.1333,102.0156 Q4458.8676,101.7813 4458.8676,101.3906 Q4458.8676,101.0156 4459.1333,100.7813 Q4459.3989,100.5469 4460.0083,100.5469 L4465.1489,100.5469 Q4465.7583,100.5469 4466.0239,100.7813 Q4466.2895,101.0156 4466.2895,101.3906 Q4466.2895,101.7813 4466.0239,102.0156 Q4465.7583,102.25 4465.1489,102.25 L4463.4301,102.25 Z " fill="#000000"/><text fill="#000000" font-family="sans-serif" font-size="14" font-style="italic" lengthAdjust="spacing" textLength="125.2959" x="4482.8052" y="111.3379">DayCountResponse</text><line style="stroke:#181818;stroke-width:0.5;" x1="4420" x2="4638.5781" y1="121.6094" y2="121.6094"/><text fill="#000000" font-family="sans-serif" font-size="14" lengthAdjust="spacing" textLength="158.7305" x="4425" y="140.1426">results: DayCountResult[]</text><text fill="#000000" font-family="sans-serif" font-size="14" lengthAdjust="spacing" textLength="208.5781" x="4425" y="157.752">convention: DayCountConvention</text><text fill="#000000" font-family="sans-serif" font-size="14" lengthAdjust="spacing" textLength="87.1445" x="4425" y="175.3613">version: string</text><line style="stroke:#181818;stroke-width:0.5;" x1="4420" x2="4638.5781" y1="182.4375" y2="182.4375"/></g><g id="elem_GMN40"><path d="M4675,110.6094 L4675,136.6094 L4640.34,140.6094 L4675,144.6094 L4675,169.6641 A0,0 0 0 0 4675,169.6641 L4966.2769,169.6641 A0,0 0 0 0 4966.2769,169.6641 L4966.2769,120.6094 L4956.2769,110.6094 L4675,110.6094 A0,0 0 0 0 4675,110.6094 " fill="#FEFFDD" style="stroke:#181818;stroke-width:0.5;"/><path d="M4956.2769,110.6094 L4956.2769,120.6094 L4966.2769,120.6094 L4956.2769,110.6094 " fill="#FEFFDD" style="stroke:#181818;stroke-width:0.5;"/><text fill="#000000" font-family="sans-serif" font-size="13" lengthAdjust="spacing" textLength="7.2236" x="4681" y="129.1045">&#160;&#160;</text><text fill="#000000" font-family="sans-serif" font-size="13" lengthAdjust="spacing" textLength="270.2769" x="4681" y="145.4561">Response from day count calculation endpoint.</text><text fill="#000000" font-family="sans-serif" font-size="13" lengthAdjust="spacing" textLength="3.6118" x="4681" y="161.8076">&#160;</text></g><!--class DayCountResult--><g id="elem_DayCountResult"><rect codeLine="112" fill="#F1F1F1" height="100.8281" id="DayCountResult" rx="2.5" ry="2.5" style="stroke:#181818;stroke-width:0.5;" width="145.0547" x="4457" y="294.6094"/><ellipse cx="4477.0027" cy="310.6094" fill="#B4A7E5" rx="11" ry="11" style="stroke:#181818;stroke-width:1.0;"/><path d="M4477.9559,307.25 L4477.9559,313.9063 L4479.6746,313.9063 Q4480.284,313.9063 4480.5496,314.1406 Q4480.8152,314.375 4480.8152,314.7656 Q4480.8152,315.1406 4480.5496,315.375 Q4480.284,315.6094 4479.6746,315.6094 L4474.534,315.6094 Q4473.9246,315.6094 4473.659,315.375 Q4473.3934,315.1406 4473.3934,314.75 Q4473.3934,314.375 4473.659,314.1406 Q4473.9246,313.9063 4474.534,313.9063 L4476.2527,313.9063 L4476.2527,307.25 L4474.534,307.25 Q4473.9246,307.25 4473.659,307.0156 Q4473.3934,306.7813 4473.3934,306.3906 Q4473.3934,306.0156 4473.659,305.7813 Q4473.9246,305.5469 4474.534,305.5469 L4479.6746,305.5469 Q4480.284,305.5469 4480.5496,305.7813 Q4480.8152,306.0156 4480.8152,306.3906 Q4480.8152,306.7813 4480.5496,307.0156 Q4480.284,307.25 4479.6746,307.25 L4477.9559,307.25 Z " fill="#000000"/><text fill="#000000" font-family="sans-serif" font-size="14" font-style="italic" lengthAdjust="spacing" textLength="101.9375" x="4492.1145" y="316.3379">DayCountResult</text><line style="stroke:#181818;stroke-width:0.5;" x1="4458" x2="4601.0547" y1="326.6094" y2="326.6094"/><text fill="#000000" font-family="sans-serif" font-size="14" lengthAdjust="spacing" textLength="84.8203" x="4463" y="345.1426">days: number</text><text fill="#000000" font-family="sans-serif" font-size="14" lengthAdjust="spacing" textLength="133.0547" x="4463" y="362.752">yearFraction: number</text><text fill="#000000" font-family="sans-serif" font-size="14" lengthAdjust="spacing" textLength="87.9307" x="4463" y="380.3613">basis: number</text><line style="stroke:#181818;stroke-width:0.5;" x1="4458" x2="4601.0547" y1="387.4375" y2="387.4375"/></g><g id="elem_GMN44"><path d="M4637,315.6094 L4637,341.6094 L4602.27,345.6094 L4637,349.6094 L4637,374.6641 A0,0 0 0 0 4637,374.6641 L4886.3569,374.6641 A0,0 0 0 0 4886.3569,374.6641 L4886.3569,325.6094 L4876.3569,315.6094 L4637,315.6094 A0,0 0 0 0 4637,315.6094 " fill="#FEFFDD" style="stroke:#181818;stroke-width:0.5;"/><path d="M4876.3569,315.6094 L4876.3569,325.6094 L4886.3569,325.6094 L4876.3569,315.6094 " fill="#FEFFDD" style="stroke:#181818;stroke-width:0.5;"/><text fill="#000000" font-family="sans-serif" font-size="13" lengthAdjust="spacing" textLength="7.2236" x="4643" y="334.1045">&#160;&#160;</text><text fill="#000000" font-family="sans-serif" font-size="13" lengthAdjust="spacing" textLength="228.3569" x="4643" y="350.4561">Result of a single day count calculation.</text><text fill="#000000" font-family="sans-serif" font-size="13" lengthAdjust="spacing" textLength="3.6118" x="4643" y="366.8076">&#160;</text></g><!--class ErrorResponse--><g id="elem_ErrorResponse"><rect codeLine="123" fill="#F1F1F1" height="188.875" id="ErrorResponse" rx="2.5" ry="2.5" style="stroke:#181818;stroke-width:0.5;" width="126.1514" x="5001.5" y="45.6094"/><ellipse cx="5016.5" cy="61.6094" fill="#B4A7E5" rx="11" ry="11" style="stroke:#181818;stroke-width:1.0;"/><path d="M5017.4531,58.25 L5017.4531,64.9063 L5019.1719,64.9063 Q5019.7813,64.9063 5020.0469,65.1406 Q5020.3125,65.375 5020.3125,65.7656 Q5020.3125,66.1406 5020.0469,66.375 Q5019.7813,66.6094 5019.1719,66.6094 L5014.0313,66.6094 Q5013.4219,66.6094 5013.1563,66.375 Q5012.8906,66.1406 5012.8906,65.75 Q5012.8906,65.375 5013.1563,65.1406 Q5013.4219,64.9063 5014.0313,64.9063 L5015.75,64.9063 L5015.75,58.25 L5014.0313,58.25 Q5013.4219,58.25 5013.1563,58.0156 Q5012.8906,57.7813 5012.8906,57.3906 Q5012.8906,57.0156 5013.1563,56.7813 Q5013.4219,56.5469 5014.0313,56.5469 L5019.1719,56.5469 Q5019.7813,56.5469 5020.0469,56.7813 Q5020.3125,57.0156 5020.3125,57.3906 Q5020.3125,57.7813 5020.0469,58.0156 Q5019.7813,58.25 5019.1719,58.25 L5017.4531,58.25 Z " fill="#000000"/><text fill="#000000" font-family="sans-serif" font-size="14" font-style="italic" lengthAdjust="spacing" textLength="94.1514" x="5030.5" y="67.3379">ErrorResponse</text><line style="stroke:#181818;stroke-width:0.5;" x1="5002.5" x2="5126.6514" y1="77.6094" y2="77.6094"/><text fill="#000000" font-family="sans-serif" font-size="14" lengthAdjust="spacing" textLength="68.4756" x="5007.5" y="96.1426">type: string</text><text fill="#000000" font-family="sans-serif" font-size="14" lengthAdjust="spacing" textLength="63.7998" x="5007.5" y="113.752">title: string</text><text fill="#000000" font-family="sans-serif" font-size="14" lengthAdjust="spacing" textLength="92.5996" x="5007.5" y="131.3613">status: number</text><text fill="#000000" font-family="sans-serif" font-size="14" lengthAdjust="spacing" textLength="75.4824" x="5007.5" y="148.9707">detail: string</text><text fill="#000000" font-family="sans-serif" font-size="14" lengthAdjust="spacing" textLength="98.4238" x="5007.5" y="166.5801">errors?: Array&lt;{</text><text fill="#000000" font-family="sans-serif" font-size="14" lengthAdjust="spacing" textLength="79.3721" x="5007.5" y="184.1895">field?: string;</text><text fill="#000000" font-family="sans-serif" font-size="14" lengthAdjust="spacing" textLength="102.71" x="5007.5" y="201.7988">message: string;</text><text fill="#000000" font-family="sans-serif" font-size="14" lengthAdjust="spacing" textLength="12.8516" x="5007.5" y="219.4082">}&gt;</text><line style="stroke:#181818;stroke-width:0.5;" x1="5002.5" x2="5126.6514" y1="226.4844" y2="226.4844"/></g><g id="elem_GMN48"><path d="M5163,110.6094 L5163,136.6094 L5127.59,140.6094 L5163,144.6094 L5163,169.6641 A0,0 0 0 0 5163,169.6641 L5430.3779,169.6641 A0,0 0 0 0 5430.3779,169.6641 L5430.3779,120.6094 L5420.3779,110.6094 L5163,110.6094 A0,0 0 0 0 5163,110.6094 " fill="#FEFFDD" style="stroke:#181818;stroke-width:0.5;"/><path d="M5420.3779,110.6094 L5420.3779,120.6094 L5430.3779,120.6094 L5420.3779,110.6094 " fill="#FEFFDD" style="stroke:#181818;stroke-width:0.5;"/><text fill="#000000" font-family="sans-serif" font-size="13" lengthAdjust="spacing" textLength="7.2236" x="5169" y="129.1045">&#160;&#160;</text><text fill="#000000" font-family="sans-serif" font-size="13" lengthAdjust="spacing" textLength="246.3779" x="5169" y="145.4561">RFC 7807 Problem Details error response.</text><text fill="#000000" font-family="sans-serif" font-size="13" lengthAdjust="spacing" textLength="3.6118" x="5169" y="161.8076">&#160;</text></g><!--class LoginButtonx--><g id="elem_LoginButtonx"><rect codeLine="139" fill="#F1F1F1" height="76.3125" id="LoginButtonx" rx="2.5" ry="2.5" style="stroke:#181818;stroke-width:0.5;" width="192.9336" x="5465" y="102.1094"/><ellipse cx="5516.3516" cy="123.4609" fill="#ADD1B2" rx="11" ry="11" style="stroke:#181818;stroke-width:1.0;"/><path d="M5519.1172,119.3359 Q5519.2734,119.1172 5519.4609,119.0078 Q5519.6484,118.8984 5519.8672,118.8984 Q5520.2422,118.8984 5520.4766,119.1641 Q5520.7109,119.4141 5520.7109,120.0234 L5520.7109,121.4766 Q5520.7109,122.0859 5520.4766,122.3516 Q5520.2422,122.6172 5519.8672,122.6172 Q5519.5234,122.6172 5519.3203,122.4141 Q5519.1172,122.2266 5519.0078,121.7109 Q5518.9609,121.3516 5518.7734,121.1641 Q5518.4453,120.7891 5517.8359,120.5703 Q5517.2266,120.3516 5516.6016,120.3516 Q5515.8359,120.3516 5515.1953,120.6797 Q5514.5703,121.0078 5514.0703,121.7578 Q5513.5859,122.5078 5513.5859,123.5391 L5513.5859,124.6328 Q5513.5859,125.8672 5514.4766,126.6953 Q5515.3672,127.5078 5516.9609,127.5078 Q5517.8984,127.5078 5518.5547,127.2578 Q5518.9453,127.1016 5519.3672,126.6641 Q5519.6328,126.3984 5519.7734,126.3203 Q5519.9297,126.2422 5520.1328,126.2422 Q5520.4609,126.2422 5520.7109,126.5078 Q5520.9766,126.7578 5520.9766,127.1016 Q5520.9766,127.4453 5520.6328,127.8516 Q5520.1328,128.4297 5519.3359,128.7578 Q5518.2578,129.2109 5516.9609,129.2109 Q5515.4453,129.2109 5514.2422,128.5859 Q5513.2578,128.0859 5512.5703,127.0234 Q5511.8828,125.9453 5511.8828,124.6641 L5511.8828,123.5078 Q5511.8828,122.1797 5512.4922,121.0391 Q5513.1172,119.8828 5514.2109,119.2734 Q5515.3047,118.6484 5516.5391,118.6484 Q5517.2734,118.6484 5517.9141,118.8203 Q5518.5703,118.9766 5519.1172,119.3359 Z " fill="#000000"/><text fill="#000000" font-family="sans-serif" font-size="12" font-style="italic" lengthAdjust="spacing" textLength="55.3711" x="5550.0313" y="119.5664">&#171;effectful&#187;</text><text fill="#000000" font-family="sans-serif" font-size="14" lengthAdjust="spacing" textLength="81.7305" x="5536.8516" y="136.7363">LoginButtonx</text><line style="stroke:#181818;stroke-width:0.5;" x1="5466" x2="5656.9336" y1="144.8125" y2="144.8125"/><line style="stroke:#181818;stroke-width:0.5;" x1="5466" x2="5656.9336" y1="152.8125" y2="152.8125"/><text fill="#000000" font-family="sans-serif" font-size="14" lengthAdjust="spacing" text-decoration="underline" textLength="180.9336" x="5471" y="171.3457">+LoginButton(): JSX.Element</text></g><g id="elem_GMN52"><path d="M5693,110.6094 L5693,136.6094 L5658.03,140.6094 L5693,144.6094 L5693,169.6641 A0,0 0 0 0 5693,169.6641 L5844.0825,169.6641 A0,0 0 0 0 5844.0825,169.6641 L5844.0825,120.6094 L5834.0825,110.6094 L5693,110.6094 A0,0 0 0 0 5693,110.6094 " fill="#FEFFDD" style="stroke:#181818;stroke-width:0.5;"/><path d="M5834.0825,110.6094 L5834.0825,120.6094 L5844.0825,120.6094 L5834.0825,110.6094 " fill="#FEFFDD" style="stroke:#181818;stroke-width:0.5;"/><text fill="#000000" font-family="sans-serif" font-size="13" lengthAdjust="spacing" textLength="125.7534" x="5699" y="129.1045">Module: LoginButtonx</text><text fill="#000000" font-family="sans-serif" font-size="13" lengthAdjust="spacing" textLength="3.6118" x="5699" y="145.4561">&#160;</text><text fill="#000000" font-family="sans-serif" font-size="13" lengthAdjust="spacing" textLength="130.0825" x="5699" y="161.8076">Stereotype: &#171;effectful&#187;</text></g><!--class LogoutButtonx--><g id="elem_LogoutButtonx"><rect codeLine="148" fill="#F1F1F1" height="76.3125" id="LogoutButtonx" rx="2.5" ry="2.5" style="stroke:#181818;stroke-width:0.5;" width="201.499" x="5879" y="102.1094"/><ellipse cx="5930.3516" cy="123.4609" fill="#ADD1B2" rx="11" ry="11" style="stroke:#181818;stroke-width:1.0;"/><path d="M5933.1172,119.3359 Q5933.2734,119.1172 5933.4609,119.0078 Q5933.6484,118.8984 5933.8672,118.8984 Q5934.2422,118.8984 5934.4766,119.1641 Q5934.7109,119.4141 5934.7109,120.0234 L5934.7109,121.4766 Q5934.7109,122.0859 5934.4766,122.3516 Q5934.2422,122.6172 5933.8672,122.6172 Q5933.5234,122.6172 5933.3203,122.4141 Q5933.1172,122.2266 5933.0078,121.7109 Q5932.9609,121.3516 5932.7734,121.1641 Q5932.4453,120.7891 5931.8359,120.5703 Q5931.2266,120.3516 5930.6016,120.3516 Q5929.8359,120.3516 5929.1953,120.6797 Q5928.5703,121.0078 5928.0703,121.7578 Q5927.5859,122.5078 5927.5859,123.5391 L5927.5859,124.6328 Q5927.5859,125.8672 5928.4766,126.6953 Q5929.3672,127.5078 5930.9609,127.5078 Q5931.8984,127.5078 5932.5547,127.2578 Q5932.9453,127.1016 5933.3672,126.6641 Q5933.6328,126.3984 5933.7734,126.3203 Q5933.9297,126.2422 5934.1328,126.2422 Q5934.4609,126.2422 5934.7109,126.5078 Q5934.9766,126.7578 5934.9766,127.1016 Q5934.9766,127.4453 5934.6328,127.8516 Q5934.1328,128.4297 5933.3359,128.7578 Q5932.2578,129.2109 5930.9609,129.2109 Q5929.4453,129.2109 5928.2422,128.5859 Q5927.2578,128.0859 5926.5703,127.0234 Q5925.8828,125.9453 5925.8828,124.6641 L5925.8828,123.5078 Q5925.8828,122.1797 5926.4922,121.0391 Q5927.1172,119.8828 5928.2109,119.2734 Q5929.3047,118.6484 5930.5391,118.6484 Q5931.2734,118.6484 5931.9141,118.8203 Q5932.5703,118.9766 5933.1172,119.3359 Z " fill="#000000"/><text fill="#000000" font-family="sans-serif" font-size="12" font-style="italic" lengthAdjust="spacing" textLength="55.3711" x="5968.314" y="119.5664">&#171;effectful&#187;</text><text fill="#000000" font-family="sans-serif" font-size="14" lengthAdjust="spacing" textLength="90.2959" x="5950.8516" y="136.7363">LogoutButtonx</text><line style="stroke:#181818;stroke-width:0.5;" x1="5880" x2="6079.499" y1="144.8125" y2="144.8125"/><line style="stroke:#181818;stroke-width:0.5;" x1="5880" x2="6079.499" y1="152.8125" y2="152.8125"/><text fill="#000000" font-family="sans-serif" font-size="14" lengthAdjust="spacing" text-decoration="underline" textLength="189.499" x="5885" y="171.3457">+LogoutButton(): JSX.Element</text></g><g id="elem_GMN56"><path d="M6115,110.6094 L6115,136.6094 L6080.07,140.6094 L6115,144.6094 L6115,169.6641 A0,0 0 0 0 6115,169.6641 L6269.707,169.6641 A0,0 0 0 0 6269.707,169.6641 L6269.707,120.6094 L6259.707,110.6094 L6115,110.6094 A0,0 0 0 0 6115,110.6094 " fill="#FEFFDD" style="stroke:#181818;stroke-width:0.5;"/><path d="M6259.707,110.6094 L6259.707,120.6094 L6269.707,120.6094 L6259.707,110.6094 " fill="#FEFFDD" style="stroke:#181818;stroke-width:0.5;"/><text fill="#000000" font-family="sans-serif" font-size="13" lengthAdjust="spacing" textLength="133.707" x="6121" y="129.1045">Module: LogoutButtonx</text><text fill="#000000" font-family="sans-serif" font-size="13" lengthAdjust="spacing" textLength="3.6118" x="6121" y="145.4561">&#160;</text><text fill="#000000" font-family="sans-serif" font-size="13" lengthAdjust="spacing" textLength="130.0825" x="6121" y="161.8076">Stereotype: &#171;effectful&#187;</text></g><!--class ProfileContentx--><g id="elem_ProfileContentx"><rect codeLine="157" fill="#F1F1F1" height="93.9219" id="ProfileContentx" rx="2.5" ry="2.5" style="stroke:#181818;stroke-width:0.5;" width="235.3164" x="6305" y="93.1094"/><ellipse cx="6370.5498" cy="114.4609" fill="#ADD1B2" rx="11" ry="11" style="stroke:#181818;stroke-width:1.0;"/><path d="M6373.3154,110.3359 Q6373.4717,110.1172 6373.6592,110.0078 Q6373.8467,109.8984 6374.0654,109.8984 Q6374.4404,109.8984 6374.6748,110.1641 Q6374.9092,110.4141 6374.9092,111.0234 L6374.9092,112.4766 Q6374.9092,113.0859 6374.6748,113.3516 Q6374.4404,113.6172 6374.0654,113.6172 Q6373.7217,113.6172 6373.5186,113.4141 Q6373.3154,113.2266 6373.2061,112.7109 Q6373.1592,112.3516 6372.9717,112.1641 Q6372.6436,111.7891 6372.0342,111.5703 Q6371.4248,111.3516 6370.7998,111.3516 Q6370.0342,111.3516 6369.3936,111.6797 Q6368.7686,112.0078 6368.2686,112.7578 Q6367.7842,113.5078 6367.7842,114.5391 L6367.7842,115.6328 Q6367.7842,116.8672 6368.6748,117.6953 Q6369.5654,118.5078 6371.1592,118.5078 Q6372.0967,118.5078 6372.7529,118.2578 Q6373.1436,118.1016 6373.5654,117.6641 Q6373.8311,117.3984 6373.9717,117.3203 Q6374.1279,117.2422 6374.3311,117.2422 Q6374.6592,117.2422 6374.9092,117.5078 Q6375.1748,117.7578 6375.1748,118.1016 Q6375.1748,118.4453 6374.8311,118.8516 Q6374.3311,119.4297 6373.5342,119.7578 Q6372.4561,120.2109 6371.1592,120.2109 Q6369.6436,120.2109 6368.4404,119.5859 Q6367.4561,119.0859 6366.7686,118.0234 Q6366.0811,116.9453 6366.0811,115.6641 L6366.0811,114.5078 Q6366.0811,113.1797 6366.6904,112.0391 Q6367.3154,110.8828 6368.4092,110.2734 Q6369.5029,109.6484 6370.7373,109.6484 Q6371.4717,109.6484 6372.1123,109.8203 Q6372.7686,109.9766 6373.3154,110.3359 Z " fill="#000000"/><text fill="#000000" font-family="sans-serif" font-size="12" font-style="italic" lengthAdjust="spacing" textLength="55.3711" x="6411.2227" y="110.5664">&#171;effectful&#187;</text><text fill="#000000" font-family="sans-serif" font-size="14" lengthAdjust="spacing" textLength="95.7168" x="6391.0498" y="127.7363">ProfileContentx</text><line style="stroke:#181818;stroke-width:0.5;" x1="6306" x2="6539.3164" y1="135.8125" y2="135.8125"/><line style="stroke:#181818;stroke-width:0.5;" x1="6306" x2="6539.3164" y1="143.8125" y2="143.8125"/><text fill="#000000" font-family="sans-serif" font-size="14" lengthAdjust="spacing" text-decoration="underline" textLength="223.3164" x="6311" y="162.3457">-ProfileContentInner(): JSX.Element</text><text fill="#000000" font-family="sans-serif" font-size="14" lengthAdjust="spacing" text-decoration="underline" textLength="194.9199" x="6311" y="179.9551">+ProfileContent(): JSX.Element</text></g><g id="elem_GMN60"><path d="M6575.5,110.6094 L6575.5,136.6094 L6540.02,140.6094 L6575.5,144.6094 L6575.5,169.6641 A0,0 0 0 0 6575.5,169.6641 L6735.2407,169.6641 A0,0 0 0 0 6735.2407,169.6641 L6735.2407,120.6094 L6725.2407,110.6094 L6575.5,110.6094 A0,0 0 0 0 6575.5,110.6094 " fill="#FEFFDD" style="stroke:#181818;stroke-width:0.5;"/><path d="M6725.2407,110.6094 L6725.2407,120.6094 L6735.2407,120.6094 L6725.2407,110.6094 " fill="#FEFFDD" style="stroke:#181818;stroke-width:0.5;"/><text fill="#000000" font-family="sans-serif" font-size="13" lengthAdjust="spacing" textLength="138.7407" x="6581.5" y="129.1045">Module: ProfileContentx</text><text fill="#000000" font-family="sans-serif" font-size="13" lengthAdjust="spacing" textLength="3.6118" x="6581.5" y="145.4561">&#160;</text><text fill="#000000" font-family="sans-serif" font-size="13" lengthAdjust="spacing" textLength="130.0825" x="6581.5" y="161.8076">Stereotype: &#171;effectful&#187;</text></g><!--class TechVersions--><g id="elem_TechVersions"><rect codeLine="167" fill="#F1F1F1" height="136.0469" id="TechVersions" rx="2.5" ry="2.5" style="stroke:#181818;stroke-width:0.5;" width="117.5928" x="8855.5" y="72.1094"/><ellipse cx="8870.5" cy="88.1094" fill="#B4A7E5" rx="11" ry="11" style="stroke:#181818;stroke-width:1.0;"/><path d="M8871.4531,84.75 L8871.4531,91.4063 L8873.1719,91.4063 Q8873.7813,91.4063 8874.0469,91.6406 Q8874.3125,91.875 8874.3125,92.2656 Q8874.3125,92.6406 8874.0469,92.875 Q8873.7813,93.1094 8873.1719,93.1094 L8868.0313,93.1094 Q8867.4219,93.1094 8867.1563,92.875 Q8866.8906,92.6406 8866.8906,92.25 Q8866.8906,91.875 8867.1563,91.6406 Q8867.4219,91.4063 8868.0313,91.4063 L8869.75,91.4063 L8869.75,84.75 L8868.0313,84.75 Q8867.4219,84.75 8867.1563,84.5156 Q8866.8906,84.2813 8866.8906,83.8906 Q8866.8906,83.5156 8867.1563,83.2813 Q8867.4219,83.0469 8868.0313,83.0469 L8873.1719,83.0469 Q8873.7813,83.0469 8874.0469,83.2813 Q8874.3125,83.5156 8874.3125,83.8906 Q8874.3125,84.2813 8874.0469,84.5156 Q8873.7813,84.75 8873.1719,84.75 L8871.4531,84.75 Z " fill="#000000"/><text fill="#000000" font-family="sans-serif" font-size="14" font-style="italic" lengthAdjust="spacing" textLength="85.5928" x="8884.5" y="93.8379">TechVersions</text><line style="stroke:#181818;stroke-width:0.5;" x1="8856.5" x2="8972.0928" y1="104.1094" y2="104.1094"/><text fill="#000000" font-family="sans-serif" font-size="14" lengthAdjust="spacing" textLength="73.1377" x="8861.5" y="122.6426">astro: string</text><text fill="#000000" font-family="sans-serif" font-size="14" lengthAdjust="spacing" textLength="73.1377" x="8861.5" y="140.252">react: string</text><text fill="#000000" font-family="sans-serif" font-size="14" lengthAdjust="spacing" textLength="88.7031" x="8861.5" y="157.8613">tailwind: string</text><text fill="#000000" font-family="sans-serif" font-size="14" lengthAdjust="spacing" textLength="101.9238" x="8861.5" y="175.4707">typescript: string</text><text fill="#000000" font-family="sans-serif" font-size="14" lengthAdjust="spacing" textLength="102.7168" x="8861.5" y="193.0801">cloudflare: string</text><line style="stroke:#181818;stroke-width:0.5;" x1="8856.5" x2="8972.0928" y1="200.1563" y2="200.1563"/></g><!--class ThemeTogglex--><g id="elem_ThemeTogglex"><rect codeLine="175" fill="#F1F1F1" height="76.3125" id="ThemeTogglex" rx="2.5" ry="2.5" style="stroke:#181818;stroke-width:0.5;" width="204.582" x="6771" y="102.1094"/><ellipse cx="6822.3516" cy="123.4609" fill="#ADD1B2" rx="11" ry="11" style="stroke:#181818;stroke-width:1.0;"/><path d="M6825.1172,119.3359 Q6825.2734,119.1172 6825.4609,119.0078 Q6825.6484,118.8984 6825.8672,118.8984 Q6826.2422,118.8984 6826.4766,119.1641 Q6826.7109,119.4141 6826.7109,120.0234 L6826.7109,121.4766 Q6826.7109,122.0859 6826.4766,122.3516 Q6826.2422,122.6172 6825.8672,122.6172 Q6825.5234,122.6172 6825.3203,122.4141 Q6825.1172,122.2266 6825.0078,121.7109 Q6824.9609,121.3516 6824.7734,121.1641 Q6824.4453,120.7891 6823.8359,120.5703 Q6823.2266,120.3516 6822.6016,120.3516 Q6821.8359,120.3516 6821.1953,120.6797 Q6820.5703,121.0078 6820.0703,121.7578 Q6819.5859,122.5078 6819.5859,123.5391 L6819.5859,124.6328 Q6819.5859,125.8672 6820.4766,126.6953 Q6821.3672,127.5078 6822.9609,127.5078 Q6823.8984,127.5078 6824.5547,127.2578 Q6824.9453,127.1016 6825.3672,126.6641 Q6825.6328,126.3984 6825.7734,126.3203 Q6825.9297,126.2422 6826.1328,126.2422 Q6826.4609,126.2422 6826.7109,126.5078 Q6826.9766,126.7578 6826.9766,127.1016 Q6826.9766,127.4453 6826.6328,127.8516 Q6826.1328,128.4297 6825.3359,128.7578 Q6824.2578,129.2109 6822.9609,129.2109 Q6821.4453,129.2109 6820.2422,128.5859 Q6819.2578,128.0859 6818.5703,127.0234 Q6817.8828,125.9453 6817.8828,124.6641 L6817.8828,123.5078 Q6817.8828,122.1797 6818.4922,121.0391 Q6819.1172,119.8828 6820.2109,119.2734 Q6821.3047,118.6484 6822.5391,118.6484 Q6823.2734,118.6484 6823.9141,118.8203 Q6824.5703,118.9766 6825.1172,119.3359 Z " fill="#000000"/><text fill="#000000" font-family="sans-serif" font-size="12" font-style="italic" lengthAdjust="spacing" textLength="55.3711" x="6861.8555" y="119.5664">&#171;effectful&#187;</text><text fill="#000000" font-family="sans-serif" font-size="14" lengthAdjust="spacing" textLength="93.3789" x="6842.8516" y="136.7363">ThemeTogglex</text><line style="stroke:#181818;stroke-width:0.5;" x1="6772" x2="6974.582" y1="144.8125" y2="144.8125"/><line style="stroke:#181818;stroke-width:0.5;" x1="6772" x2="6974.582" y1="152.8125" y2="152.8125"/><text fill="#000000" font-family="sans-serif" font-size="14" lengthAdjust="spacing" text-decoration="underline" textLength="192.582" x="6777" y="171.3457">+ThemeToggle(): JSX.Element</text></g><g id="elem_GMN65"><path d="M7011.5,110.6094 L7011.5,136.6094 L6976.28,140.6094 L7011.5,144.6094 L7011.5,169.6641 A0,0 0 0 0 7011.5,169.6641 L7169.0698,169.6641 A0,0 0 0 0 7169.0698,169.6641 L7169.0698,120.6094 L7159.0698,110.6094 L7011.5,110.6094 A0,0 0 0 0 7011.5,110.6094 " fill="#FEFFDD" style="stroke:#181818;stroke-width:0.5;"/><path d="M7159.0698,110.6094 L7159.0698,120.6094 L7169.0698,120.6094 L7159.0698,110.6094 " fill="#FEFFDD" style="stroke:#181818;stroke-width:0.5;"/><text fill="#000000" font-family="sans-serif" font-size="13" lengthAdjust="spacing" textLength="136.5698" x="7017.5" y="129.1045">Module: ThemeTogglex</text><text fill="#000000" font-family="sans-serif" font-size="13" lengthAdjust="spacing" textLength="3.6118" x="7017.5" y="145.4561">&#160;</text><text fill="#000000" font-family="sans-serif" font-size="13" lengthAdjust="spacing" textLength="130.0825" x="7017.5" y="161.8076">Stereotype: &#171;effectful&#187;</text></g><!--class validation--><g id="elem_validation"><rect codeLine="184" fill="#F1F1F1" height="146.75" id="validation" rx="2.5" ry="2.5" style="stroke:#181818;stroke-width:0.5;" width="341.5674" x="7204.5" y="66.6094"/><ellipse cx="7341.458" cy="87.9609" fill="#ADD1B2" rx="11" ry="11" style="stroke:#181818;stroke-width:1.0;"/><path d="M7344.2236,83.8359 Q7344.3799,83.6172 7344.5674,83.5078 Q7344.7549,83.3984 7344.9736,83.3984 Q7345.3486,83.3984 7345.583,83.6641 Q7345.8174,83.9141 7345.8174,84.5234 L7345.8174,85.9766 Q7345.8174,86.5859 7345.583,86.8516 Q7345.3486,87.1172 7344.9736,87.1172 Q7344.6299,87.1172 7344.4268,86.9141 Q7344.2236,86.7266 7344.1143,86.2109 Q7344.0674,85.8516 7343.8799,85.6641 Q7343.5518,85.2891 7342.9424,85.0703 Q7342.333,84.8516 7341.708,84.8516 Q7340.9424,84.8516 7340.3018,85.1797 Q7339.6768,85.5078 7339.1768,86.2578 Q7338.6924,87.0078 7338.6924,88.0391 L7338.6924,89.1328 Q7338.6924,90.3672 7339.583,91.1953 Q7340.4736,92.0078 7342.0674,92.0078 Q7343.0049,92.0078 7343.6611,91.7578 Q7344.0518,91.6016 7344.4736,91.1641 Q7344.7393,90.8984 7344.8799,90.8203 Q7345.0361,90.7422 7345.2393,90.7422 Q7345.5674,90.7422 7345.8174,91.0078 Q7346.083,91.2578 7346.083,91.6016 Q7346.083,91.9453 7345.7393,92.3516 Q7345.2393,92.9297 7344.4424,93.2578 Q7343.3643,93.7109 7342.0674,93.7109 Q7340.5518,93.7109 7339.3486,93.0859 Q7338.3643,92.5859 7337.6768,91.5234 Q7336.9893,90.4453 7336.9893,89.1641 L7336.9893,88.0078 Q7336.9893,86.6797 7337.5986,85.5391 Q7338.2236,84.3828 7339.3174,83.7734 Q7340.4111,83.1484 7341.6455,83.1484 Q7342.3799,83.1484 7343.0205,83.3203 Q7343.6768,83.4766 7344.2236,83.8359 Z " fill="#000000"/><text fill="#000000" font-family="sans-serif" font-size="12" font-style="italic" lengthAdjust="spacing" textLength="55.3711" x="7363.8481" y="84.0664">&#171;effectful&#187;</text><text fill="#000000" font-family="sans-serif" font-size="14" lengthAdjust="spacing" textLength="59.1514" x="7361.958" y="101.2363">validation</text><line style="stroke:#181818;stroke-width:0.5;" x1="7205.5" x2="7545.0674" y1="109.3125" y2="109.3125"/><line style="stroke:#181818;stroke-width:0.5;" x1="7205.5" x2="7545.0674" y1="117.3125" y2="117.3125"/><text fill="#000000" font-family="sans-serif" font-size="14" lengthAdjust="spacing" text-decoration="underline" textLength="233.0713" x="7210.5" y="135.8457">+isValidDate(dateStr: string): boolean</text><text fill="#000000" font-family="sans-serif" font-size="14" lengthAdjust="spacing" text-decoration="underline" textLength="329.5674" x="7210.5" y="153.4551">+isValidDateRange(start: string, end: string): boolean</text><text fill="#000000" font-family="sans-serif" font-size="14" lengthAdjust="spacing" text-decoration="underline" textLength="193.3613" x="7210.5" y="171.0645">+formatDate(date: Date): string</text><text fill="#000000" font-family="sans-serif" font-size="14" lengthAdjust="spacing" text-decoration="underline" textLength="117.8857" x="7210.5" y="188.6738">+getToday(): string</text><text fill="#000000" font-family="sans-serif" font-size="14" lengthAdjust="spacing" text-decoration="underline" textLength="267.2646" x="7210.5" y="206.2832">+getDaysFromToday(days: number): string</text></g><g id="elem_GMN69"><path d="M7582,110.6094 L7582,136.6094 L7546.86,140.6094 L7582,144.6094 L7582,169.6641 A0,0 0 0 0 7582,169.6641 L7733.0825,169.6641 A0,0 0 0 0 7733.0825,169.6641 L7733.0825,120.6094 L7723.0825,110.6094 L7582,110.6094 A0,0 0 0 0 7582,110.6094 " fill="#FEFFDD" style="stroke:#181818;stroke-width:0.5;"/><path d="M7723.0825,110.6094 L7723.0825,120.6094 L7733.0825,120.6094 L7723.0825,110.6094 " fill="#FEFFDD" style="stroke:#181818;stroke-width:0.5;"/><text fill="#000000" font-family="sans-serif" font-size="13" lengthAdjust="spacing" textLength="104.7871" x="7588" y="129.1045">Module: validation</text><text fill="#000000" font-family="sans-serif" font-size="13" lengthAdjust="spacing" textLength="3.6118" x="7588" y="145.4561">&#160;</text><text fill="#000000" font-family="sans-serif" font-size="13" lengthAdjust="spacing" textLength="130.0825" x="7588" y="161.8076">Stereotype: &#171;effectful&#187;</text></g><!--class versions--><g id="elem_versions"><rect codeLine="197" fill="#F1F1F1" height="111.5313" id="versions" rx="2.5" ry="2.5" style="stroke:#181818;stroke-width:0.5;" width="607.6563" x="7768.5" y="84.1094"/><ellipse cx="8042.0127" cy="105.4609" fill="#ADD1B2" rx="11" ry="11" style="stroke:#181818;stroke-width:1.0;"/><path d="M8044.7783,101.3359 Q8044.9346,101.1172 8045.1221,101.0078 Q8045.3096,100.8984 8045.5283,100.8984 Q8045.9033,100.8984 8046.1377,101.1641 Q8046.3721,101.4141 8046.3721,102.0234 L8046.3721,103.4766 Q8046.3721,104.0859 8046.1377,104.3516 Q8045.9033,104.6172 8045.5283,104.6172 Q8045.1846,104.6172 8044.9814,104.4141 Q8044.7783,104.2266 8044.6689,103.7109 Q8044.6221,103.3516 8044.4346,103.1641 Q8044.1064,102.7891 8043.4971,102.5703 Q8042.8877,102.3516 8042.2627,102.3516 Q8041.4971,102.3516 8040.8564,102.6797 Q8040.2314,103.0078 8039.7314,103.7578 Q8039.2471,104.5078 8039.2471,105.5391 L8039.2471,106.6328 Q8039.2471,107.8672 8040.1377,108.6953 Q8041.0283,109.5078 8042.6221,109.5078 Q8043.5596,109.5078 8044.2158,109.2578 Q8044.6064,109.1016 8045.0283,108.6641 Q8045.2939,108.3984 8045.4346,108.3203 Q8045.5908,108.2422 8045.7939,108.2422 Q8046.1221,108.2422 8046.3721,108.5078 Q8046.6377,108.7578 8046.6377,109.1016 Q8046.6377,109.4453 8046.2939,109.8516 Q8045.7939,110.4297 8044.9971,110.7578 Q8043.9189,111.2109 8042.6221,111.2109 Q8041.1064,111.2109 8039.9033,110.5859 Q8038.9189,110.0859 8038.2314,109.0234 Q8037.5439,107.9453 8037.5439,106.6641 L8037.5439,105.5078 Q8037.5439,104.1797 8038.1533,103.0391 Q8038.7783,101.8828 8039.8721,101.2734 Q8040.9658,100.6484 8042.2002,100.6484 Q8042.9346,100.6484 8043.5752,100.8203 Q8044.2314,100.9766 8044.7783,101.3359 Z " fill="#000000"/><text fill="#000000" font-family="sans-serif" font-size="12" font-style="italic" lengthAdjust="spacing" textLength="37.3652" x="8069.8955" y="101.5664">&#171;pure&#187;</text><text fill="#000000" font-family="sans-serif" font-size="14" lengthAdjust="spacing" textLength="52.1309" x="8062.5127" y="118.7363">versions</text><line style="stroke:#181818;stroke-width:0.5;" x1="7769.5" x2="8375.1563" y1="126.8125" y2="126.8125"/><line style="stroke:#181818;stroke-width:0.5;" x1="7769.5" x2="8375.1563" y1="134.8125" y2="134.8125"/><text fill="#000000" font-family="sans-serif" font-size="14" lengthAdjust="spacing" text-decoration="underline" textLength="262.9717" x="7774.5" y="153.3457">-getMajorVersion(versionStr: string): string</text><text fill="#000000" font-family="sans-serif" font-size="14" lengthAdjust="spacing" text-decoration="underline" textLength="215.9268" x="7774.5" y="170.9551">+getTechVersions(): TechVersions</text><text fill="#000000" font-family="sans-serif" font-size="14" lengthAdjust="spacing" text-decoration="underline" textLength="595.6563" x="7774.5" y="188.5645">+getDetailedVersions(): { astro: { name: string; version: string; fullVersion: string; description: s...</text></g><g id="elem_GMN73"><path d="M8411.5,110.6094 L8411.5,136.6094 L8376.61,140.6094 L8411.5,144.6094 L8411.5,169.6641 A0,0 0 0 0 8411.5,169.6641 L8543.0762,169.6641 A0,0 0 0 0 8543.0762,169.6641 L8543.0762,120.6094 L8533.0762,110.6094 L8411.5,110.6094 A0,0 0 0 0 8411.5,110.6094 " fill="#FEFFDD" style="stroke:#181818;stroke-width:0.5;"/><path d="M8533.0762,110.6094 L8533.0762,120.6094 L8543.0762,120.6094 L8533.0762,110.6094 " fill="#FEFFDD" style="stroke:#181818;stroke-width:0.5;"/><text fill="#000000" font-family="sans-serif" font-size="13" lengthAdjust="spacing" textLength="98.2681" x="8417.5" y="129.1045">Module: versions</text><text fill="#000000" font-family="sans-serif" font-size="13" lengthAdjust="spacing" textLength="3.6118" x="8417.5" y="145.4561">&#160;</text><text fill="#000000" font-family="sans-serif" font-size="13" lengthAdjust="spacing" textLength="110.5762" x="8417.5" y="161.8076">Stereotype: &#171;pure&#187;</text></g><!--link DayCountRequest to DatePair--><g id="link_DayCountRequest_DatePair"><path codeLine="209" d="M3318.97,178.6094 C3272.72,178.6094 3229.5,178.6094 3229.5,178.6094 C3229.5,178.6094 3229.5,248.2094 3229.5,297.5194 " fill="none" id="DayCountRequest-to-DatePair" style="stroke:#181818;stroke-width:1.0;stroke-dasharray:7.0,7.0;"/><polygon fill="#181818" points="3229.5,303.5194,3233.5,294.5194,3229.5,298.5194,3225.5,294.5194,3229.5,303.5194" style="stroke:#181818;stroke-width:1.0;"/><text fill="#000000" font-family="sans-serif" font-size="13" lengthAdjust="spacing" textLength="27.46" x="3201.5" y="192.8245">uses</text></g><!--link DayCountRequest to DayCountOptions--><g id="link_DayCountRequest_DayCountOptions"><path codeLine="210" d="M3531.5,190.9694 C3531.5,240.8894 3531.5,309.6094 3531.5,309.6094 C3531.5,309.6094 3536.82,309.6094 3551.76,309.6094 " fill="none" id="DayCountRequest-to-DayCountOptions" style="stroke:#181818;stroke-width:1.0;stroke-dasharray:7.0,7.0;"/><polygon fill="#181818" points="3557.76,309.6094,3548.76,305.6094,3552.76,309.6094,3548.76,313.6094,3557.76,309.6094" style="stroke:#181818;stroke-width:1.0;"/><text fill="#000000" font-family="sans-serif" font-size="13" lengthAdjust="spacing" textLength="27.46" x="3503.5" y="259.9145">uses</text></g><!--link DayCountResponse to DayCountResult--><g id="link_DayCountResponse_DayCountResult"><path codeLine="211" d="M4529.5,190.7794 C4529.5,222.3194 4529.5,256.7494 4529.5,288.3094 " fill="none" id="DayCountResponse-to-DayCountResult" style="stroke:#181818;stroke-width:1.0;stroke-dasharray:7.0,7.0;"/><polygon fill="#181818" points="4529.5,294.3094,4533.5,285.3094,4529.5,289.3094,4525.5,285.3094,4529.5,294.3094" style="stroke:#181818;stroke-width:1.0;"/><text fill="#000000" font-family="sans-serif" font-size="13" lengthAdjust="spacing" textLength="27.46" x="4501.5" y="239.0445">uses</text></g><!--SRC=[fLV1RkCs4BthA-PM1zqOkMtXDR98d0IRejaD4czQeEY1baOs6vfKISgxRff_xr2KP4gohBW5VB26GyvxJyEPaULM87pbS0epmOo1AywMcgsZo3npcJ7w2x5RkB1MyqLkyJPMyf7_ZN0Mk0WkqMup1ANjIaLHiGKkCdwjjTBm4hr6Kba4pPSh2ogjboA0Q9ORgzQ0XQlVcTA_Y_jRRpFmZTiLf1n5SYfmWm8sJF24MQua96WP5sOSHTVVBSh4W8zPxFaqdz-3iSpc1cAL832PWChSHYOQ9_f8KQe9oSFD3Dx_TFOUxhLQ25p3bOy16ascf44NZKA1unH5N5hKAOiHBdAxEgDD6vwW_fK0V6ORlcGMoPOPaW4WNd6HQ9GJU40Msyy4YiIf1ElR_nscKqnJZ6sQY_FpugGVNnmn7h_sRnkzrF7WTJ80xsG2Fp_-DhucmYXjzutrOYCiToh91KuEEz7laPH2vJ9bqcGKoBcJuZAtLibzt4yRtBtVhPIeHoqMRPcyw-WDNClWBN8xwr5iPao81OkVFr7-2TI7ARMS1tcr_8V8jR443FSi7KKp5fmY7YItH4jt_v8P_Ag5WsgehiXbWn0pMnb3p4IS2ygTAxQTgLpQaSQ_SZHs0fNbmHlUWLNFA3zMXy4_aCi4KofA2KMWV5npWzFTBd-BpplIUFo18BNXZJBiIi6LkrQCwu8-4TCse4eRwgSsXcgZ2-fAuCnhwYhYfQ90Tupgca6zuJ6QgFCAAfApKZqra6nT_y5ywsuPIhaze0AHzw_-1yNzCL-AykwhBQhr0yMWp5We9P19igL56ibuIrQPhnUeU_6MHpaqNwgcKJGyfA2-IoLiIvs5VEjyTJjw-aChRmk86RrhCwbV- -z_k2QXv8Pqf9C2TMeREVWMPZvEEb3xg9GX7PKgUiQsGh7a_z3m5wdWGRqn5zQ4bzCPtiPdGt8MgxsNeXdHqoYZ5prxBm5tqJ95m8U94DI21frZwhm0s2BJDveQTO6kDY-OuMOmVVon9LONWDOO6298CzTUm3quYucceRQ_57L1iMwC2vxzo1C0zbDIM8AAUOSIw49hjfswCy4FH7KP_L3OrcWCMs9eVErMpWR2Wd7V3EN7l6gI6dShs2zgoML_wz_LeS1ng025PmQLfsK-gjVHNfNRD-AiFTy0T7Tg4sd3VXHKUWKf5qWtZWPaUxWVD7q7Uq7JVOXT2qZ0hxjoTFsVOxnwydN45tz66Qk2bDTku0ul3UNZDnwqOd-jJAnv5lh5GkL9AfZ6e3wLqivNn7IkbdIZ3oT1u3YaKdXc857BV5G61DzBXq1oy-GSNIyQaJi-MbrHFWbRwDuT3qmkSTGOTTw5aqxF2THzripM8Nqdt3yNqkmuLrGtHxtBL7dD3RK3xnRMyfFUthBJ9X2xOJnEwYe5fzCirxXl0BvZVofTfkgez6zAtKC-o72dGVZSKQ8ejvY4_Y_LbNW1IJDCNTBRxVS343Nnr3OcvTNmnl5ut9Lo1wOMScVgoEZr2HJyWJwAoz5ZnJCJjUUbyVXyDrXF8ASlyHwVvYZOSIqxQUXRjkZIzLy0]--></g></svg>