<svg xmlns="http://www.w3.org/2000/svg" xmlns:xlink="http://www.w3.org/1999/xlink" contentStyleType="text/css" height="402px" preserveAspectRatio="none" style="width:8734px;height:402px;background:#FFFFFF;" version="1.1" viewBox="0 0 8734 402" width="8734px" zoomAndPan="magnify"><title>Ui - Class Diagram</title><defs/><g><text fill="#000000" font-family="sans-serif" font-size="14" font-weight="bold" lengthAdjust="spacing" textLength="123.71" x="4298.1914" y="24.5332">Ui - Class Diagram</text><!--class ApiError--><g id="elem_ApiError"><rect codeLine="6" fill="#F1F1F1" height="48" id="ApiError" rx="2.5" ry="2.5" style="stroke:#181818;stroke-width:0.5;" width="83.3447" x="7" y="116.1094"/><ellipse cx="22" cy="132.1094" fill="#ADD1B2" rx="11" ry="11" style="stroke:#181818;stroke-width:1.0;"/><path d="M24.7656,127.9844 Q24.9219,127.7656 25.1094,127.6563 Q25.2969,127.5469 25.5156,127.5469 Q25.8906,127.5469 26.125,127.8125 Q26.3594,128.0625 26.3594,128.6719 L26.3594,130.125 Q26.3594,130.7344 26.125,131 Q25.8906,131.2656 25.5156,131.2656 Q25.1719,131.2656 24.9688,131.0625 Q24.7656,130.875 24.6563,130.3594 Q24.6094,130 24.4219,129.8125 Q24.0938,129.4375 23.4844,129.2188 Q22.875,129 22.25,129 Q21.4844,129 20.8438,129.3281 Q20.2188,129.6563 19.7188,130.4063 Q19.2344,131.1563 19.2344,132.1875 L19.2344,133.2813 Q19.2344,134.5156 20.125,135.3438 Q21.0156,136.1563 22.6094,136.1563 Q23.5469,136.1563 24.2031,135.9063 Q24.5938,135.75 25.0156,135.3125 Q25.2813,135.0469 25.4219,134.9688 Q25.5781,134.8906 25.7813,134.8906 Q26.1094,134.8906 26.3594,135.1563 Q26.625,135.4063 26.625,135.75 Q26.625,136.0938 26.2813,136.5 Q25.7813,137.0781 24.9844,137.4063 Q23.9063,137.8594 22.6094,137.8594 Q21.0938,137.8594 19.8906,137.2344 Q18.9063,136.7344 18.2188,135.6719 Q17.5313,134.5938 17.5313,133.3125 L17.5313,132.1563 Q17.5313,130.8281 18.1406,129.6875 Q18.7656,128.5313 19.8594,127.9219 Q20.9531,127.2969 22.1875,127.2969 Q22.9219,127.2969 23.5625,127.4688 Q24.2188,127.625 24.7656,127.9844 Z " fill="#000000"/><text fill="#000000" font-family="sans-serif" font-size="14" lengthAdjust="spacing" textLength="51.3447" x="36" y="137.8379">ApiError</text><line style="stroke:#181818;stroke-width:0.5;" x1="8" x2="89.3447" y1="148.1094" y2="148.1094"/><line style="stroke:#181818;stroke-width:0.5;" x1="8" x2="89.3447" y1="156.1094" y2="156.1094"/></g><g id="elem_GMN3"><path d="M125,86.1094 L125,136.6094 L90.27,140.6094 L125,144.6094 L125,194.2188 A0,0 0 0 0 125,194.2188 L530.3887,194.2188 A0,0 0 0 0 530.3887,194.2188 L530.3887,96.1094 L520.3887,86.1094 L125,86.1094 A0,0 0 0 0 125,86.1094 " fill="#FEFFDD" style="stroke:#181818;stroke-width:0.5;"/><path d="M520.3887,86.1094 L520.3887,96.1094 L530.3887,96.1094 L520.3887,86.1094 " fill="#FEFFDD" style="stroke:#181818;stroke-width:0.5;"/><text fill="#000000" font-family="sans-serif" font-size="13" lengthAdjust="spacing" textLength="7.2236" x="131" y="104.6045">&#160;&#160;</text><text fill="#000000" font-family="sans-serif" font-size="13" lengthAdjust="spacing" textLength="378.5806" x="131" y="120.9561">Custom error class for API errors with field-level validation details.</text><text fill="#000000" font-family="sans-serif" font-size="13" lengthAdjust="spacing" textLength="3.6118" x="131" y="137.3076">&#160;</text><text fill="#000000" font-family="sans-serif" font-size="13" lengthAdjust="spacing" textLength="384.3887" x="131" y="153.6592">Extends Error with HTTP status code and optional field-level errors</text><text fill="#000000" font-family="sans-serif" font-size="13" lengthAdjust="spacing" textLength="251.4307" x="131" y="170.0107">from RFC 7807 Problem Details responses.</text><text fill="#000000" font-family="sans-serif" font-size="13" lengthAdjust="spacing" textLength="3.6118" x="131" y="186.3623">&#160;</text></g><!--class Auth0ProviderWithNavigateProps--><g id="elem_Auth0ProviderWithNavigateProps"><rect codeLine="17" fill="#F1F1F1" height="65.6094" id="Auth0ProviderWithNavigateProps" rx="2.5" ry="2.5" style="stroke:#181818;stroke-width:0.5;" width="240.5439" x="8333" y="107.1094"/><ellipse cx="8348" cy="123.1094" fill="#B4A7E5" rx="11" ry="11" style="stroke:#181818;stroke-width:1.0;"/><path d="M8348.9531,119.75 L8348.9531,126.4063 L8350.6719,126.4063 Q8351.2813,126.4063 8351.5469,126.6406 Q8351.8125,126.875 8351.8125,127.2656 Q8351.8125,127.6406 8351.5469,127.875 Q8351.2813,128.1094 8350.6719,128.1094 L8345.5313,128.1094 Q8344.9219,128.1094 8344.6563,127.875 Q8344.3906,127.6406 8344.3906,127.25 Q8344.3906,126.875 8344.6563,126.6406 Q8344.9219,126.4063 8345.5313,126.4063 L8347.25,126.4063 L8347.25,119.75 L8345.5313,119.75 Q8344.9219,119.75 8344.6563,119.5156 Q8344.3906,119.2813 8344.3906,118.8906 Q8344.3906,118.5156 8344.6563,118.2813 Q8344.9219,118.0469 8345.5313,118.0469 L8350.6719,118.0469 Q8351.2813,118.0469 8351.5469,118.2813 Q8351.8125,118.5156 8351.8125,118.8906 Q8351.8125,119.2813 8351.5469,119.5156 Q8351.2813,119.75 8350.6719,119.75 L8348.9531,119.75 Z " fill="#000000"/><text fill="#000000" font-family="sans-serif" font-size="14" font-style="italic" lengthAdjust="spacing" textLength="208.5439" x="8362" y="128.8379">Auth0ProviderWithNavigateProps</text><line style="stroke:#181818;stroke-width:0.5;" x1="8334" x2="8572.5439" y1="139.1094" y2="139.1094"/><text fill="#000000" font-family="sans-serif" font-size="14" lengthAdjust="spacing" textLength="126.8477" x="8339" y="157.6426">children: ReactNode</text><line style="stroke:#181818;stroke-width:0.5;" x1="8334" x2="8572.5439" y1="164.7188" y2="164.7188"/></g><!--class Auth0ProviderWithNavigatex--><g id="elem_Auth0ProviderWithNavigatex"><rect codeLine="21" fill="#F1F1F1" height="111.5313" id="Auth0ProviderWithNavigatex" rx="2.5" ry="2.5" style="stroke:#181818;stroke-width:0.5;" width="326.3643" x="565.5" y="84.1094"/><ellipse cx="634.9463" cy="105.4609" fill="#ADD1B2" rx="11" ry="11" style="stroke:#181818;stroke-width:1.0;"/><path d="M637.7119,101.3359 Q637.8682,101.1172 638.0557,101.0078 Q638.2432,100.8984 638.4619,100.8984 Q638.8369,100.8984 639.0713,101.1641 Q639.3057,101.4141 639.3057,102.0234 L639.3057,103.4766 Q639.3057,104.0859 639.0713,104.3516 Q638.8369,104.6172 638.4619,104.6172 Q638.1182,104.6172 637.915,104.4141 Q637.7119,104.2266 637.6025,103.7109 Q637.5557,103.3516 637.3682,103.1641 Q637.04,102.7891 636.4307,102.5703 Q635.8213,102.3516 635.1963,102.3516 Q634.4307,102.3516 633.79,102.6797 Q633.165,103.0078 632.665,103.7578 Q632.1807,104.5078 632.1807,105.5391 L632.1807,106.6328 Q632.1807,107.8672 633.0713,108.6953 Q633.9619,109.5078 635.5557,109.5078 Q636.4932,109.5078 637.1494,109.2578 Q637.54,109.1016 637.9619,108.6641 Q638.2275,108.3984 638.3682,108.3203 Q638.5244,108.2422 638.7275,108.2422 Q639.0557,108.2422 639.3057,108.5078 Q639.5713,108.7578 639.5713,109.1016 Q639.5713,109.4453 639.2275,109.8516 Q638.7275,110.4297 637.9307,110.7578 Q636.8525,111.2109 635.5557,111.2109 Q634.04,111.2109 632.8369,110.5859 Q631.8525,110.0859 631.165,109.0234 Q630.4775,107.9453 630.4775,106.6641 L630.4775,105.5078 Q630.4775,104.1797 631.0869,103.0391 Q631.7119,101.8828 632.8057,101.2734 Q633.8994,100.6484 635.1338,100.6484 Q635.8682,100.6484 636.5088,100.8203 Q637.165,100.9766 637.7119,101.3359 Z " fill="#000000"/><text fill="#000000" font-family="sans-serif" font-size="12" font-style="italic" lengthAdjust="spacing" textLength="55.3711" x="717.2466" y="101.5664">&#171;effectful&#187;</text><text fill="#000000" font-family="sans-serif" font-size="14" lengthAdjust="spacing" textLength="178.9717" x="655.4463" y="118.7363">Auth0ProviderWithNavigatex</text><line style="stroke:#181818;stroke-width:0.5;" x1="566.5" x2="890.8643" y1="126.8125" y2="126.8125"/><text fill="#000000" font-family="sans-serif" font-size="14" lengthAdjust="spacing" textLength="52.917" x="571.5" y="145.3457">children,</text><line style="stroke:#181818;stroke-width:0.5;" x1="566.5" x2="890.8643" y1="152.4219" y2="152.4219"/><text fill="#000000" font-family="sans-serif" font-size="14" lengthAdjust="spacing" text-decoration="underline" textLength="189.4854" x="571.5" y="170.9551">+Auth0ProviderWithNavigate({</text><text fill="#000000" font-family="sans-serif" font-size="14" lengthAdjust="spacing" textLength="314.3643" x="571.5" y="188.5645">}: Auth0ProviderWithNavigateProps): JSX.Element</text></g><g id="elem_GMN8"><path d="M927,110.6094 L927,136.6094 L891.64,140.6094 L927,144.6094 L927,169.6641 A0,0 0 0 0 927,169.6641 L1164.0488,169.6641 A0,0 0 0 0 1164.0488,169.6641 L1164.0488,120.6094 L1154.0488,110.6094 L927,110.6094 A0,0 0 0 0 927,110.6094 " fill="#FEFFDD" style="stroke:#181818;stroke-width:0.5;"/><path d="M1154.0488,110.6094 L1154.0488,120.6094 L1164.0488,120.6094 L1154.0488,110.6094 " fill="#FEFFDD" style="stroke:#181818;stroke-width:0.5;"/><text fill="#000000" font-family="sans-serif" font-size="13" lengthAdjust="spacing" textLength="216.0488" x="933" y="129.1045">Module: Auth0ProviderWithNavigatex</text><text fill="#000000" font-family="sans-serif" font-size="13" lengthAdjust="spacing" textLength="3.6118" x="933" y="145.4561">&#160;</text><text fill="#000000" font-family="sans-serif" font-size="13" lengthAdjust="spacing" textLength="130.0825" x="933" y="161.8076">Stereotype: &#171;effectful&#187;</text></g><!--class AuthButtonx--><g id="elem_AuthButtonx"><rect codeLine="32" fill="#F1F1F1" height="93.9219" id="AuthButtonx" rx="2.5" ry="2.5" style="stroke:#181818;stroke-width:0.5;" width="215.875" x="1199.5" y="93.1094"/><ellipse cx="1265.0498" cy="114.4609" fill="#ADD1B2" rx="11" ry="11" style="stroke:#181818;stroke-width:1.0;"/><path d="M1267.8154,110.3359 Q1267.9717,110.1172 1268.1592,110.0078 Q1268.3467,109.8984 1268.5654,109.8984 Q1268.9404,109.8984 1269.1748,110.1641 Q1269.4092,110.4141 1269.4092,111.0234 L1269.4092,112.4766 Q1269.4092,113.0859 1269.1748,113.3516 Q1268.9404,113.6172 1268.5654,113.6172 Q1268.2217,113.6172 1268.0186,113.4141 Q1267.8154,113.2266 1267.7061,112.7109 Q1267.6592,112.3516 1267.4717,112.1641 Q1267.1436,111.7891 1266.5342,111.5703 Q1265.9248,111.3516 1265.2998,111.3516 Q1264.5342,111.3516 1263.8936,111.6797 Q1263.2686,112.0078 1262.7686,112.7578 Q1262.2842,113.5078 1262.2842,114.5391 L1262.2842,115.6328 Q1262.2842,116.8672 1263.1748,117.6953 Q1264.0654,118.5078 1265.6592,118.5078 Q1266.5967,118.5078 1267.2529,118.2578 Q1267.6436,118.1016 1268.0654,117.6641 Q1268.3311,117.3984 1268.4717,117.3203 Q1268.6279,117.2422 1268.8311,117.2422 Q1269.1592,117.2422 1269.4092,117.5078 Q1269.6748,117.7578 1269.6748,118.1016 Q1269.6748,118.4453 1269.3311,118.8516 Q1268.8311,119.4297 1268.0342,119.7578 Q1266.9561,120.2109 1265.6592,120.2109 Q1264.1436,120.2109 1262.9404,119.5859 Q1261.9561,119.0859 1261.2686,118.0234 Q1260.5811,116.9453 1260.5811,115.6641 L1260.5811,114.5078 Q1260.5811,113.1797 1261.1904,112.0391 Q1261.8154,110.8828 1262.9092,110.2734 Q1264.0029,109.6484 1265.2373,109.6484 Q1265.9717,109.6484 1266.6123,109.8203 Q1267.2686,109.9766 1267.8154,110.3359 Z " fill="#000000"/><text fill="#000000" font-family="sans-serif" font-size="12" font-style="italic" lengthAdjust="spacing" textLength="55.3711" x="1296.002" y="110.5664">&#171;effectful&#187;</text><text fill="#000000" font-family="sans-serif" font-size="14" lengthAdjust="spacing" textLength="76.2754" x="1285.5498" y="127.7363">AuthButtonx</text><line style="stroke:#181818;stroke-width:0.5;" x1="1200.5" x2="1414.375" y1="135.8125" y2="135.8125"/><line style="stroke:#181818;stroke-width:0.5;" x1="1200.5" x2="1414.375" y1="143.8125" y2="143.8125"/><text fill="#000000" font-family="sans-serif" font-size="14" lengthAdjust="spacing" text-decoration="underline" textLength="203.875" x="1205.5" y="162.3457">-AuthButtonInner(): JSX.Element</text><text fill="#000000" font-family="sans-serif" font-size="14" lengthAdjust="spacing" text-decoration="underline" textLength="175.4785" x="1205.5" y="179.9551">+AuthButton(): JSX.Element</text></g><g id="elem_GMN12"><path d="M1451,110.6094 L1451,136.6094 L1415.72,140.6094 L1451,144.6094 L1451,169.6641 A0,0 0 0 0 1451,169.6641 L1602.0825,169.6641 A0,0 0 0 0 1602.0825,169.6641 L1602.0825,120.6094 L1592.0825,110.6094 L1451,110.6094 A0,0 0 0 0 1451,110.6094 " fill="#FEFFDD" style="stroke:#181818;stroke-width:0.5;"/><path d="M1592.0825,110.6094 L1592.0825,120.6094 L1602.0825,120.6094 L1592.0825,110.6094 " fill="#FEFFDD" style="stroke:#181818;stroke-width:0.5;"/><text fill="#000000" font-family="sans-serif" font-size="13" lengthAdjust="spacing" textLength="120.688" x="1457" y="129.1045">Module: AuthButtonx</text><text fill="#000000" font-family="sans-serif" font-size="13" lengthAdjust="spacing" textLength="3.6118" x="1457" y="145.4561">&#160;</text><text fill="#000000" font-family="sans-serif" font-size="13" lengthAdjust="spacing" textLength="130.0825" x="1457" y="161.8076">Stereotype: &#171;effectful&#187;</text></g><!--class CallbackHandlerx--><g id="elem_CallbackHandlerx"><rect codeLine="42" fill="#F1F1F1" height="93.9219" id="CallbackHandlerx" rx="2.5" ry="2.5" style="stroke:#181818;stroke-width:0.5;" width="249.3164" x="1637" y="93.1094"/><ellipse cx="1702.5498" cy="114.4609" fill="#ADD1B2" rx="11" ry="11" style="stroke:#181818;stroke-width:1.0;"/><path d="M1705.3154,110.3359 Q1705.4717,110.1172 1705.6592,110.0078 Q1705.8467,109.8984 1706.0654,109.8984 Q1706.4404,109.8984 1706.6748,110.1641 Q1706.9092,110.4141 1706.9092,111.0234 L1706.9092,112.4766 Q1706.9092,113.0859 1706.6748,113.3516 Q1706.4404,113.6172 1706.0654,113.6172 Q1705.7217,113.6172 1705.5186,113.4141 Q1705.3154,113.2266 1705.2061,112.7109 Q1705.1592,112.3516 1704.9717,112.1641 Q1704.6436,111.7891 1704.0342,111.5703 Q1703.4248,111.3516 1702.7998,111.3516 Q1702.0342,111.3516 1701.3936,111.6797 Q1700.7686,112.0078 1700.2686,112.7578 Q1699.7842,113.5078 1699.7842,114.5391 L1699.7842,115.6328 Q1699.7842,116.8672 1700.6748,117.6953 Q1701.5654,118.5078 1703.1592,118.5078 Q1704.0967,118.5078 1704.7529,118.2578 Q1705.1436,118.1016 1705.5654,117.6641 Q1705.8311,117.3984 1705.9717,117.3203 Q1706.1279,117.2422 1706.3311,117.2422 Q1706.6592,117.2422 1706.9092,117.5078 Q1707.1748,117.7578 1707.1748,118.1016 Q1707.1748,118.4453 1706.8311,118.8516 Q1706.3311,119.4297 1705.5342,119.7578 Q1704.4561,120.2109 1703.1592,120.2109 Q1701.6436,120.2109 1700.4404,119.5859 Q1699.4561,119.0859 1698.7686,118.0234 Q1698.0811,116.9453 1698.0811,115.6641 L1698.0811,114.5078 Q1698.0811,113.1797 1698.6904,112.0391 Q1699.3154,110.8828 1700.4092,110.2734 Q1701.5029,109.6484 1702.7373,109.6484 Q1703.4717,109.6484 1704.1123,109.8203 Q1704.7686,109.9766 1705.3154,110.3359 Z " fill="#000000"/><text fill="#000000" font-family="sans-serif" font-size="12" font-style="italic" lengthAdjust="spacing" textLength="55.3711" x="1750.2227" y="110.5664">&#171;effectful&#187;</text><text fill="#000000" font-family="sans-serif" font-size="14" lengthAdjust="spacing" textLength="109.7168" x="1723.0498" y="127.7363">CallbackHandlerx</text><line style="stroke:#181818;stroke-width:0.5;" x1="1638" x2="1885.3164" y1="135.8125" y2="135.8125"/><line style="stroke:#181818;stroke-width:0.5;" x1="1638" x2="1885.3164" y1="143.8125" y2="143.8125"/><text fill="#000000" font-family="sans-serif" font-size="14" lengthAdjust="spacing" text-decoration="underline" textLength="237.3164" x="1643" y="162.3457">-CallbackHandlerInner(): JSX.Element</text><text fill="#000000" font-family="sans-serif" font-size="14" lengthAdjust="spacing" text-decoration="underline" textLength="208.9199" x="1643" y="179.9551">+CallbackHandler(): JSX.Element</text></g><g id="elem_GMN16"><path d="M1921,110.6094 L1921,136.6094 L1886.3,140.6094 L1921,144.6094 L1921,169.6641 A0,0 0 0 0 1921,169.6641 L2093.7407,169.6641 A0,0 0 0 0 2093.7407,169.6641 L2093.7407,120.6094 L2083.7407,110.6094 L1921,110.6094 A0,0 0 0 0 1921,110.6094 " fill="#FEFFDD" style="stroke:#181818;stroke-width:0.5;"/><path d="M2083.7407,110.6094 L2083.7407,120.6094 L2093.7407,120.6094 L2083.7407,110.6094 " fill="#FEFFDD" style="stroke:#181818;stroke-width:0.5;"/><text fill="#000000" font-family="sans-serif" font-size="13" lengthAdjust="spacing" textLength="151.7407" x="1927" y="129.1045">Module: CallbackHandlerx</text><text fill="#000000" font-family="sans-serif" font-size="13" lengthAdjust="spacing" textLength="3.6118" x="1927" y="145.4561">&#160;</text><text fill="#000000" font-family="sans-serif" font-size="13" lengthAdjust="spacing" textLength="130.0825" x="1927" y="161.8076">Stereotype: &#171;effectful&#187;</text></g><!--class client--><g id="elem_client"><rect codeLine="52" fill="#F1F1F1" height="93.9219" id="client" rx="2.5" ry="2.5" style="stroke:#181818;stroke-width:0.5;" width="721.8643" x="2129.5" y="93.1094"/><ellipse cx="2460.4966" cy="114.4609" fill="#ADD1B2" rx="11" ry="11" style="stroke:#181818;stroke-width:1.0;"/><path d="M2463.2622,110.3359 Q2463.4185,110.1172 2463.606,110.0078 Q2463.7935,109.8984 2464.0122,109.8984 Q2464.3872,109.8984 2464.6216,110.1641 Q2464.856,110.4141 2464.856,111.0234 L2464.856,112.4766 Q2464.856,113.0859 2464.6216,113.3516 Q2464.3872,113.6172 2464.0122,113.6172 Q2463.6685,113.6172 2463.4653,113.4141 Q2463.2622,113.2266 2463.1528,112.7109 Q2463.106,112.3516 2462.9185,112.1641 Q2462.5903,111.7891 2461.981,111.5703 Q2461.3716,111.3516 2460.7466,111.3516 Q2459.981,111.3516 2459.3403,111.6797 Q2458.7153,112.0078 2458.2153,112.7578 Q2457.731,113.5078 2457.731,114.5391 L2457.731,115.6328 Q2457.731,116.8672 2458.6216,117.6953 Q2459.5122,118.5078 2461.106,118.5078 Q2462.0435,118.5078 2462.6997,118.2578 Q2463.0903,118.1016 2463.5122,117.6641 Q2463.7778,117.3984 2463.9185,117.3203 Q2464.0747,117.2422 2464.2778,117.2422 Q2464.606,117.2422 2464.856,117.5078 Q2465.1216,117.7578 2465.1216,118.1016 Q2465.1216,118.4453 2464.7778,118.8516 Q2464.2778,119.4297 2463.481,119.7578 Q2462.4028,120.2109 2461.106,120.2109 Q2459.5903,120.2109 2458.3872,119.5859 Q2457.4028,119.0859 2456.7153,118.0234 Q2456.0278,116.9453 2456.0278,115.6641 L2456.0278,114.5078 Q2456.0278,113.1797 2456.6372,112.0391 Q2457.2622,110.8828 2458.356,110.2734 Q2459.4497,109.6484 2460.6841,109.6484 Q2461.4185,109.6484 2462.0591,109.8203 Q2462.7153,109.9766 2463.2622,110.3359 Z " fill="#000000"/><text fill="#000000" font-family="sans-serif" font-size="12" font-style="italic" lengthAdjust="spacing" textLength="55.3711" x="2478.9966" y="110.5664">&#171;effectful&#187;</text><text fill="#000000" font-family="sans-serif" font-size="14" lengthAdjust="spacing" textLength="32.6826" x="2490.3408" y="127.7363">client</text><line style="stroke:#181818;stroke-width:0.5;" x1="2130.5" x2="2850.3643" y1="135.8125" y2="135.8125"/><line style="stroke:#181818;stroke-width:0.5;" x1="2130.5" x2="2850.3643" y1="143.8125" y2="143.8125"/><text fill="#000000" font-family="sans-serif" font-size="14" lengthAdjust="spacing" text-decoration="underline" textLength="145.4893" x="2135.5" y="162.3457">-getApiBaseUrl(): string</text><text fill="#000000" font-family="sans-serif" font-size="14" lengthAdjust="spacing" text-decoration="underline" textLength="709.8643" x="2135.5" y="179.9551">+async calculateDayCount(request: DayCountRequest, token?: string | undefined): Promise&lt;DayCountResponse&gt;</text></g><g id="elem_GMN20"><path d="M2887,110.6094 L2887,136.6094 L2851.54,140.6094 L2887,144.6094 L2887,169.6641 A0,0 0 0 0 2887,169.6641 L3038.0825,169.6641 A0,0 0 0 0 3038.0825,169.6641 L3038.0825,120.6094 L3028.0825,110.6094 L2887,110.6094 A0,0 0 0 0 2887,110.6094 " fill="#FEFFDD" style="stroke:#181818;stroke-width:0.5;"/><path d="M3028.0825,110.6094 L3028.0825,120.6094 L3038.0825,120.6094 L3028.0825,110.6094 " fill="#FEFFDD" style="stroke:#181818;stroke-width:0.5;"/><text fill="#000000" font-family="sans-serif" font-size="13" lengthAdjust="spacing" textLength="80.209" x="2893" y="129.1045">Module: client</text><text fill="#000000" font-family="sans-serif" font-size="13" lengthAdjust="spacing" textLength="3.6118" x="2893" y="145.4561">&#160;</text><text fill="#000000" font-family="sans-serif" font-size="13" lengthAdjust="spacing" textLength="130.0825" x="2893" y="161.8076">Stereotype: &#171;effectful&#187;</text></g><!--class DatePair--><g id="elem_DatePair"><rect codeLine="62" fill="#F1F1F1" height="83.2188" id="DatePair" rx="2.5" ry="2.5" style="stroke:#181818;stroke-width:0.5;" width="86.4688" x="2940.5" y="303.6094"/><ellipse cx="2955.5" cy="319.6094" fill="#B4A7E5" rx="11" ry="11" style="stroke:#181818;stroke-width:1.0;"/><path d="M2956.4531,316.25 L2956.4531,322.9063 L2958.1719,322.9063 Q2958.7813,322.9063 2959.0469,323.1406 Q2959.3125,323.375 2959.3125,323.7656 Q2959.3125,324.1406 2959.0469,324.375 Q2958.7813,324.6094 2958.1719,324.6094 L2953.0313,324.6094 Q2952.4219,324.6094 2952.1563,324.375 Q2951.8906,324.1406 2951.8906,323.75 Q2951.8906,323.375 2952.1563,323.1406 Q2952.4219,322.9063 2953.0313,322.9063 L2954.75,322.9063 L2954.75,316.25 L2953.0313,316.25 Q2952.4219,316.25 2952.1563,316.0156 Q2951.8906,315.7813 2951.8906,315.3906 Q2951.8906,315.0156 2952.1563,314.7813 Q2952.4219,314.5469 2953.0313,314.5469 L2958.1719,314.5469 Q2958.7813,314.5469 2959.0469,314.7813 Q2959.3125,315.0156 2959.3125,315.3906 Q2959.3125,315.7813 2959.0469,316.0156 Q2958.7813,316.25 2958.1719,316.25 L2956.4531,316.25 Z " fill="#000000"/><text fill="#000000" font-family="sans-serif" font-size="14" font-style="italic" lengthAdjust="spacing" textLength="54.4688" x="2969.5" y="325.3379">DatePair</text><line style="stroke:#181818;stroke-width:0.5;" x1="2941.5" x2="3025.9688" y1="335.6094" y2="335.6094"/><text fill="#000000" font-family="sans-serif" font-size="14" lengthAdjust="spacing" textLength="69.2412" x="2946.5" y="354.1426">start: string</text><text fill="#000000" font-family="sans-serif" font-size="14" lengthAdjust="spacing" textLength="65.3721" x="2946.5" y="371.752">end: string</text><line style="stroke:#181818;stroke-width:0.5;" x1="2941.5" x2="3025.9688" y1="378.8281" y2="378.8281"/></g><g id="elem_GMN24"><path d="M3062,315.6094 L3062,341.6094 L3026.64,345.6094 L3062,349.6094 L3062,374.6641 A0,0 0 0 0 3062,374.6641 L3277.3589,374.6641 A0,0 0 0 0 3277.3589,374.6641 L3277.3589,325.6094 L3267.3589,315.6094 L3062,315.6094 A0,0 0 0 0 3062,315.6094 " fill="#FEFFDD" style="stroke:#181818;stroke-width:0.5;"/><path d="M3267.3589,315.6094 L3267.3589,325.6094 L3277.3589,325.6094 L3267.3589,315.6094 " fill="#FEFFDD" style="stroke:#181818;stroke-width:0.5;"/><text fill="#000000" font-family="sans-serif" font-size="13" lengthAdjust="spacing" textLength="7.2236" x="3068" y="334.1045">&#160;&#160;</text><text fill="#000000" font-family="sans-serif" font-size="13" lengthAdjust="spacing" textLength="194.3589" x="3068" y="350.4561">API Client for Bond Math services</text><text fill="#000000" font-family="sans-serif" font-size="13" lengthAdjust="spacing" textLength="3.6118" x="3068" y="366.8076">&#160;</text></g><!--class DayCountCalculatorx--><g id="elem_DayCountCalculatorx"><rect codeLine="72" fill="#F1F1F1" height="93.9219" id="DayCountCalculatorx" rx="2.5" ry="2.5" style="stroke:#181818;stroke-width:0.5;" width="271.8818" x="3636.5" y="93.1094"/><ellipse cx="3702.0498" cy="114.4609" fill="#ADD1B2" rx="11" ry="11" style="stroke:#181818;stroke-width:1.0;"/><path d="M3704.8154,110.3359 Q3704.9717,110.1172 3705.1592,110.0078 Q3705.3467,109.8984 3705.5654,109.8984 Q3705.9404,109.8984 3706.1748,110.1641 Q3706.4092,110.4141 3706.4092,111.0234 L3706.4092,112.4766 Q3706.4092,113.0859 3706.1748,113.3516 Q3705.9404,113.6172 3705.5654,113.6172 Q3705.2217,113.6172 3705.0186,113.4141 Q3704.8154,113.2266 3704.7061,112.7109 Q3704.6592,112.3516 3704.4717,112.1641 Q3704.1436,111.7891 3703.5342,111.5703 Q3702.9248,111.3516 3702.2998,111.3516 Q3701.5342,111.3516 3700.8936,111.6797 Q3700.2686,112.0078 3699.7686,112.7578 Q3699.2842,113.5078 3699.2842,114.5391 L3699.2842,115.6328 Q3699.2842,116.8672 3700.1748,117.6953 Q3701.0654,118.5078 3702.6592,118.5078 Q3703.5967,118.5078 3704.2529,118.2578 Q3704.6436,118.1016 3705.0654,117.6641 Q3705.3311,117.3984 3705.4717,117.3203 Q3705.6279,117.2422 3705.8311,117.2422 Q3706.1592,117.2422 3706.4092,117.5078 Q3706.6748,117.7578 3706.6748,118.1016 Q3706.6748,118.4453 3706.3311,118.8516 Q3705.8311,119.4297 3705.0342,119.7578 Q3703.9561,120.2109 3702.6592,120.2109 Q3701.1436,120.2109 3699.9404,119.5859 Q3698.9561,119.0859 3698.2686,118.0234 Q3697.5811,116.9453 3697.5811,115.6641 L3697.5811,114.5078 Q3697.5811,113.1797 3698.1904,112.0391 Q3698.8154,110.8828 3699.9092,110.2734 Q3701.0029,109.6484 3702.2373,109.6484 Q3702.9717,109.6484 3703.6123,109.8203 Q3704.2686,109.9766 3704.8154,110.3359 Z " fill="#000000"/><text fill="#000000" font-family="sans-serif" font-size="12" font-style="italic" lengthAdjust="spacing" textLength="55.3711" x="3761.0054" y="110.5664">&#171;effectful&#187;</text><text fill="#000000" font-family="sans-serif" font-size="14" lengthAdjust="spacing" textLength="132.2822" x="3722.5498" y="127.7363">DayCountCalculatorx</text><line style="stroke:#181818;stroke-width:0.5;" x1="3637.5" x2="3907.3818" y1="135.8125" y2="135.8125"/><line style="stroke:#181818;stroke-width:0.5;" x1="3637.5" x2="3907.3818" y1="143.8125" y2="143.8125"/><text fill="#000000" font-family="sans-serif" font-size="14" lengthAdjust="spacing" text-decoration="underline" textLength="259.8818" x="3642.5" y="162.3457">-DayCountCalculatorInner(): JSX.Element</text><text fill="#000000" font-family="sans-serif" font-size="14" lengthAdjust="spacing" text-decoration="underline" textLength="231.4854" x="3642.5" y="179.9551">+DayCountCalculator(): JSX.Element</text></g><g id="elem_GMN28"><path d="M3943.5,110.6094 L3943.5,136.6094 L3908.86,140.6094 L3943.5,144.6094 L3943.5,169.6641 A0,0 0 0 0 3943.5,169.6641 L4137.1943,169.6641 A0,0 0 0 0 4137.1943,169.6641 L4137.1943,120.6094 L4127.1943,110.6094 L3943.5,110.6094 A0,0 0 0 0 3943.5,110.6094 " fill="#FEFFDD" style="stroke:#181818;stroke-width:0.5;"/><path d="M4127.1943,110.6094 L4127.1943,120.6094 L4137.1943,120.6094 L4127.1943,110.6094 " fill="#FEFFDD" style="stroke:#181818;stroke-width:0.5;"/><text fill="#000000" font-family="sans-serif" font-size="13" lengthAdjust="spacing" textLength="172.6943" x="3949.5" y="129.1045">Module: DayCountCalculatorx</text><text fill="#000000" font-family="sans-serif" font-size="13" lengthAdjust="spacing" textLength="3.6118" x="3949.5" y="145.4561">&#160;</text><text fill="#000000" font-family="sans-serif" font-size="13" lengthAdjust="spacing" textLength="130.0825" x="3949.5" y="161.8076">Stereotype: &#171;effectful&#187;</text></g><!--class DayCountOptions--><g id="elem_DayCountOptions"><rect codeLine="82" fill="#F1F1F1" height="83.2188" id="DayCountOptions" rx="2.5" ry="2.5" style="stroke:#181818;stroke-width:0.5;" width="142.5029" x="3312" y="303.6094"/><ellipse cx="3327" cy="319.6094" fill="#B4A7E5" rx="11" ry="11" style="stroke:#181818;stroke-width:1.0;"/><path d="M3327.9531,316.25 L3327.9531,322.9063 L3329.6719,322.9063 Q3330.2813,322.9063 3330.5469,323.1406 Q3330.8125,323.375 3330.8125,323.7656 Q3330.8125,324.1406 3330.5469,324.375 Q3330.2813,324.6094 3329.6719,324.6094 L3324.5313,324.6094 Q3323.9219,324.6094 3323.6563,324.375 Q3323.3906,324.1406 3323.3906,323.75 Q3323.3906,323.375 3323.6563,323.1406 Q3323.9219,322.9063 3324.5313,322.9063 L3326.25,322.9063 L3326.25,316.25 L3324.5313,316.25 Q3323.9219,316.25 3323.6563,316.0156 Q3323.3906,315.7813 3323.3906,315.3906 Q3323.3906,315.0156 3323.6563,314.7813 Q3323.9219,314.5469 3324.5313,314.5469 L3329.6719,314.5469 Q3330.2813,314.5469 3330.5469,314.7813 Q3330.8125,315.0156 3330.8125,315.3906 Q3330.8125,315.7813 3330.5469,316.0156 Q3330.2813,316.25 3329.6719,316.25 L3327.9531,316.25 Z " fill="#000000"/><text fill="#000000" font-family="sans-serif" font-size="14" font-style="italic" lengthAdjust="spacing" textLength="110.5029" x="3341" y="325.3379">DayCountOptions</text><line style="stroke:#181818;stroke-width:0.5;" x1="3313" x2="3453.5029" y1="335.6094" y2="335.6094"/><text fill="#000000" font-family="sans-serif" font-size="14" lengthAdjust="spacing" textLength="121.4199" x="3318" y="354.1426">eomRule?: boolean</text><text fill="#000000" font-family="sans-serif" font-size="14" lengthAdjust="spacing" textLength="124.5166" x="3318" y="371.752">frequency?: number</text><line style="stroke:#181818;stroke-width:0.5;" x1="3313" x2="3453.5029" y1="378.8281" y2="378.8281"/></g><g id="elem_GMN32"><path d="M3490,315.6094 L3490,341.6094 L3455.32,345.6094 L3490,349.6094 L3490,374.6641 A0,0 0 0 0 3490,374.6641 L3782.6987,374.6641 A0,0 0 0 0 3782.6987,374.6641 L3782.6987,325.6094 L3772.6987,315.6094 L3490,315.6094 A0,0 0 0 0 3490,315.6094 " fill="#FEFFDD" style="stroke:#181818;stroke-width:0.5;"/><path d="M3772.6987,315.6094 L3772.6987,325.6094 L3782.6987,325.6094 L3772.6987,315.6094 " fill="#FEFFDD" style="stroke:#181818;stroke-width:0.5;"/><text fill="#000000" font-family="sans-serif" font-size="13" lengthAdjust="spacing" textLength="7.2236" x="3496" y="334.1045">&#160;&#160;</text><text fill="#000000" font-family="sans-serif" font-size="13" lengthAdjust="spacing" textLength="271.6987" x="3496" y="350.4561">Optional parameters for day count calculations.</text><text fill="#000000" font-family="sans-serif" font-size="13" lengthAdjust="spacing" textLength="3.6118" x="3496" y="366.8076">&#160;</text></g><!--class DayCountRequest--><g id="elem_DayCountRequest"><rect codeLine="92" fill="#F1F1F1" height="100.8281" id="DayCountRequest" rx="2.5" ry="2.5" style="stroke:#181818;stroke-width:0.5;" width="220.5781" x="3073" y="89.6094"/><ellipse cx="3121.8394" cy="105.6094" fill="#B4A7E5" rx="11" ry="11" style="stroke:#181818;stroke-width:1.0;"/><path d="M3122.7925,102.25 L3122.7925,108.9063 L3124.5112,108.9063 Q3125.1206,108.9063 3125.3862,109.1406 Q3125.6519,109.375 3125.6519,109.7656 Q3125.6519,110.1406 3125.3862,110.375 Q3125.1206,110.6094 3124.5112,110.6094 L3119.3706,110.6094 Q3118.7612,110.6094 3118.4956,110.375 Q3118.23,110.1406 3118.23,109.75 Q3118.23,109.375 3118.4956,109.1406 Q3118.7612,108.9063 3119.3706,108.9063 L3121.0894,108.9063 L3121.0894,102.25 L3119.3706,102.25 Q3118.7612,102.25 3118.4956,102.0156 Q3118.23,101.7813 3118.23,101.3906 Q3118.23,101.0156 3118.4956,100.7813 Q3118.7612,100.5469 3119.3706,100.5469 L3124.5112,100.5469 Q3125.1206,100.5469 3125.3862,100.7813 Q3125.6519,101.0156 3125.6519,101.3906 Q3125.6519,101.7813 3125.3862,102.0156 Q3125.1206,102.25 3124.5112,102.25 L3122.7925,102.25 Z " fill="#000000"/><text fill="#000000" font-family="sans-serif" font-size="14" font-style="italic" lengthAdjust="spacing" textLength="114.3994" x="3142.3394" y="111.3379">DayCountRequest</text><line style="stroke:#181818;stroke-width:0.5;" x1="3074" x2="3292.5781" y1="121.6094" y2="121.6094"/><text fill="#000000" font-family="sans-serif" font-size="14" lengthAdjust="spacing" textLength="100.3721" x="3079" y="140.1426">pairs: DatePair[]</text><text fill="#000000" font-family="sans-serif" font-size="14" lengthAdjust="spacing" textLength="208.5781" x="3079" y="157.752">convention: DayCountConvention</text><text fill="#000000" font-family="sans-serif" font-size="14" lengthAdjust="spacing" textLength="171.2129" x="3079" y="175.3613">options?: DayCountOptions</text><line style="stroke:#181818;stroke-width:0.5;" x1="3074" x2="3292.5781" y1="182.4375" y2="182.4375"/></g><g id="elem_GMN36"><path d="M3329.5,110.6094 L3329.5,136.6094 L3294.14,140.6094 L3329.5,144.6094 L3329.5,169.6641 A0,0 0 0 0 3329.5,169.6641 L3601.9878,169.6641 A0,0 0 0 0 3601.9878,169.6641 L3601.9878,120.6094 L3591.9878,110.6094 L3329.5,110.6094 A0,0 0 0 0 3329.5,110.6094 " fill="#FEFFDD" style="stroke:#181818;stroke-width:0.5;"/><path d="M3591.9878,110.6094 L3591.9878,120.6094 L3601.9878,120.6094 L3591.9878,110.6094 " fill="#FEFFDD" style="stroke:#181818;stroke-width:0.5;"/><text fill="#000000" font-family="sans-serif" font-size="13" lengthAdjust="spacing" textLength="7.2236" x="3335.5" y="129.1045">&#160;&#160;</text><text fill="#000000" font-family="sans-serif" font-size="13" lengthAdjust="spacing" textLength="251.4878" x="3335.5" y="145.4561">Request payload for day count calculations.</text><text fill="#000000" font-family="sans-serif" font-size="13" lengthAdjust="spacing" textLength="3.6118" x="3335.5" y="161.8076">&#160;</text></g><!--class DayCountResponse--><g id="elem_DayCountResponse"><rect codeLine="103" fill="#F1F1F1" height="100.8281" id="DayCountResponse" rx="2.5" ry="2.5" style="stroke:#181818;stroke-width:0.5;" width="220.5781" x="4173" y="89.6094"/><ellipse cx="4216.477" cy="105.6094" fill="#B4A7E5" rx="11" ry="11" style="stroke:#181818;stroke-width:1.0;"/><path d="M4217.4301,102.25 L4217.4301,108.9063 L4219.1489,108.9063 Q4219.7583,108.9063 4220.0239,109.1406 Q4220.2895,109.375 4220.2895,109.7656 Q4220.2895,110.1406 4220.0239,110.375 Q4219.7583,110.6094 4219.1489,110.6094 L4214.0083,110.6094 Q4213.3989,110.6094 4213.1333,110.375 Q4212.8676,110.1406 4212.8676,109.75 Q4212.8676,109.375 4213.1333,109.1406 Q4213.3989,108.9063 4214.0083,108.9063 L4215.727,108.9063 L4215.727,102.25 L4214.0083,102.25 Q4213.3989,102.25 4213.1333,102.0156 Q4212.8676,101.7813 4212.8676,101.3906 Q4212.8676,101.0156 4213.1333,100.7813 Q4213.3989,100.5469 4214.0083,100.5469 L4219.1489,100.5469 Q4219.7583,100.5469 4220.0239,100.7813 Q4220.2895,101.0156 4220.2895,101.3906 Q4220.2895,101.7813 4220.0239,102.0156 Q4219.7583,102.25 4219.1489,102.25 L4217.4301,102.25 Z " fill="#000000"/><text fill="#000000" font-family="sans-serif" font-size="14" font-style="italic" lengthAdjust="spacing" textLength="125.2959" x="4236.8052" y="111.3379">DayCountResponse</text><line style="stroke:#181818;stroke-width:0.5;" x1="4174" x2="4392.5781" y1="121.6094" y2="121.6094"/><text fill="#000000" font-family="sans-serif" font-size="14" lengthAdjust="spacing" textLength="158.7305" x="4179" y="140.1426">results: DayCountResult[]</text><text fill="#000000" font-family="sans-serif" font-size="14" lengthAdjust="spacing" textLength="208.5781" x="4179" y="157.752">convention: DayCountConvention</text><text fill="#000000" font-family="sans-serif" font-size="14" lengthAdjust="spacing" textLength="87.1445" x="4179" y="175.3613">version: string</text><line style="stroke:#181818;stroke-width:0.5;" x1="4174" x2="4392.5781" y1="182.4375" y2="182.4375"/></g><g id="elem_GMN40"><path d="M4429,110.6094 L4429,136.6094 L4394.34,140.6094 L4429,144.6094 L4429,169.6641 A0,0 0 0 0 4429,169.6641 L4720.2769,169.6641 A0,0 0 0 0 4720.2769,169.6641 L4720.2769,120.6094 L4710.2769,110.6094 L4429,110.6094 A0,0 0 0 0 4429,110.6094 " fill="#FEFFDD" style="stroke:#181818;stroke-width:0.5;"/><path d="M4710.2769,110.6094 L4710.2769,120.6094 L4720.2769,120.6094 L4710.2769,110.6094 " fill="#FEFFDD" style="stroke:#181818;stroke-width:0.5;"/><text fill="#000000" font-family="sans-serif" font-size="13" lengthAdjust="spacing" textLength="7.2236" x="4435" y="129.1045">&#160;&#160;</text><text fill="#000000" font-family="sans-serif" font-size="13" lengthAdjust="spacing" textLength="270.2769" x="4435" y="145.4561">Response from day count calculation endpoint.</text><text fill="#000000" font-family="sans-serif" font-size="13" lengthAdjust="spacing" textLength="3.6118" x="4435" y="161.8076">&#160;</text></g><!--class DayCountResult--><g id="elem_DayCountResult"><rect codeLine="114" fill="#F1F1F1" height="100.8281" id="DayCountResult" rx="2.5" ry="2.5" style="stroke:#181818;stroke-width:0.5;" width="145.0547" x="4211" y="294.6094"/><ellipse cx="4231.0027" cy="310.6094" fill="#B4A7E5" rx="11" ry="11" style="stroke:#181818;stroke-width:1.0;"/><path d="M4231.9559,307.25 L4231.9559,313.9063 L4233.6746,313.9063 Q4234.284,313.9063 4234.5496,314.1406 Q4234.8152,314.375 4234.8152,314.7656 Q4234.8152,315.1406 4234.5496,315.375 Q4234.284,315.6094 4233.6746,315.6094 L4228.534,315.6094 Q4227.9246,315.6094 4227.659,315.375 Q4227.3934,315.1406 4227.3934,314.75 Q4227.3934,314.375 4227.659,314.1406 Q4227.9246,313.9063 4228.534,313.9063 L4230.2527,313.9063 L4230.2527,307.25 L4228.534,307.25 Q4227.9246,307.25 4227.659,307.0156 Q4227.3934,306.7813 4227.3934,306.3906 Q4227.3934,306.0156 4227.659,305.7813 Q4227.9246,305.5469 4228.534,305.5469 L4233.6746,305.5469 Q4234.284,305.5469 4234.5496,305.7813 Q4234.8152,306.0156 4234.8152,306.3906 Q4234.8152,306.7813 4234.5496,307.0156 Q4234.284,307.25 4233.6746,307.25 L4231.9559,307.25 Z " fill="#000000"/><text fill="#000000" font-family="sans-serif" font-size="14" font-style="italic" lengthAdjust="spacing" textLength="101.9375" x="4246.1145" y="316.3379">DayCountResult</text><line style="stroke:#181818;stroke-width:0.5;" x1="4212" x2="4355.0547" y1="326.6094" y2="326.6094"/><text fill="#000000" font-family="sans-serif" font-size="14" lengthAdjust="spacing" textLength="84.8203" x="4217" y="345.1426">days: number</text><text fill="#000000" font-family="sans-serif" font-size="14" lengthAdjust="spacing" textLength="133.0547" x="4217" y="362.752">yearFraction: number</text><text fill="#000000" font-family="sans-serif" font-size="14" lengthAdjust="spacing" textLength="87.9307" x="4217" y="380.3613">basis: number</text><line style="stroke:#181818;stroke-width:0.5;" x1="4212" x2="4355.0547" y1="387.4375" y2="387.4375"/></g><g id="elem_GMN44"><path d="M4391,315.6094 L4391,341.6094 L4356.27,345.6094 L4391,349.6094 L4391,374.6641 A0,0 0 0 0 4391,374.6641 L4640.3569,374.6641 A0,0 0 0 0 4640.3569,374.6641 L4640.3569,325.6094 L4630.3569,315.6094 L4391,315.6094 A0,0 0 0 0 4391,315.6094 " fill="#FEFFDD" style="stroke:#181818;stroke-width:0.5;"/><path d="M4630.3569,315.6094 L4630.3569,325.6094 L4640.3569,325.6094 L4630.3569,315.6094 " fill="#FEFFDD" style="stroke:#181818;stroke-width:0.5;"/><text fill="#000000" font-family="sans-serif" font-size="13" lengthAdjust="spacing" textLength="7.2236" x="4397" y="334.1045">&#160;&#160;</text><text fill="#000000" font-family="sans-serif" font-size="13" lengthAdjust="spacing" textLength="228.3569" x="4397" y="350.4561">Result of a single day count calculation.</text><text fill="#000000" font-family="sans-serif" font-size="13" lengthAdjust="spacing" textLength="3.6118" x="4397" y="366.8076">&#160;</text></g><!--class ErrorResponse--><g id="elem_ErrorResponse"><rect codeLine="125" fill="#F1F1F1" height="188.875" id="ErrorResponse" rx="2.5" ry="2.5" style="stroke:#181818;stroke-width:0.5;" width="126.1514" x="4755.5" y="45.6094"/><ellipse cx="4770.5" cy="61.6094" fill="#B4A7E5" rx="11" ry="11" style="stroke:#181818;stroke-width:1.0;"/><path d="M4771.4531,58.25 L4771.4531,64.9063 L4773.1719,64.9063 Q4773.7813,64.9063 4774.0469,65.1406 Q4774.3125,65.375 4774.3125,65.7656 Q4774.3125,66.1406 4774.0469,66.375 Q4773.7813,66.6094 4773.1719,66.6094 L4768.0313,66.6094 Q4767.4219,66.6094 4767.1563,66.375 Q4766.8906,66.1406 4766.8906,65.75 Q4766.8906,65.375 4767.1563,65.1406 Q4767.4219,64.9063 4768.0313,64.9063 L4769.75,64.9063 L4769.75,58.25 L4768.0313,58.25 Q4767.4219,58.25 4767.1563,58.0156 Q4766.8906,57.7813 4766.8906,57.3906 Q4766.8906,57.0156 4767.1563,56.7813 Q4767.4219,56.5469 4768.0313,56.5469 L4773.1719,56.5469 Q4773.7813,56.5469 4774.0469,56.7813 Q4774.3125,57.0156 4774.3125,57.3906 Q4774.3125,57.7813 4774.0469,58.0156 Q4773.7813,58.25 4773.1719,58.25 L4771.4531,58.25 Z " fill="#000000"/><text fill="#000000" font-family="sans-serif" font-size="14" font-style="italic" lengthAdjust="spacing" textLength="94.1514" x="4784.5" y="67.3379">ErrorResponse</text><line style="stroke:#181818;stroke-width:0.5;" x1="4756.5" x2="4880.6514" y1="77.6094" y2="77.6094"/><text fill="#000000" font-family="sans-serif" font-size="14" lengthAdjust="spacing" textLength="68.4756" x="4761.5" y="96.1426">type: string</text><text fill="#000000" font-family="sans-serif" font-size="14" lengthAdjust="spacing" textLength="63.7998" x="4761.5" y="113.752">title: string</text><text fill="#000000" font-family="sans-serif" font-size="14" lengthAdjust="spacing" textLength="92.5996" x="4761.5" y="131.3613">status: number</text><text fill="#000000" font-family="sans-serif" font-size="14" lengthAdjust="spacing" textLength="75.4824" x="4761.5" y="148.9707">detail: string</text><text fill="#000000" font-family="sans-serif" font-size="14" lengthAdjust="spacing" textLength="98.4238" x="4761.5" y="166.5801">errors?: Array&lt;{</text><text fill="#000000" font-family="sans-serif" font-size="14" lengthAdjust="spacing" textLength="79.3721" x="4761.5" y="184.1895">field?: string;</text><text fill="#000000" font-family="sans-serif" font-size="14" lengthAdjust="spacing" textLength="102.71" x="4761.5" y="201.7988">message: string;</text><text fill="#000000" font-family="sans-serif" font-size="14" lengthAdjust="spacing" textLength="12.8516" x="4761.5" y="219.4082">}&gt;</text><line style="stroke:#181818;stroke-width:0.5;" x1="4756.5" x2="4880.6514" y1="226.4844" y2="226.4844"/></g><g id="elem_GMN48"><path d="M4917,110.6094 L4917,136.6094 L4881.59,140.6094 L4917,144.6094 L4917,169.6641 A0,0 0 0 0 4917,169.6641 L5184.3779,169.6641 A0,0 0 0 0 5184.3779,169.6641 L5184.3779,120.6094 L5174.3779,110.6094 L4917,110.6094 A0,0 0 0 0 4917,110.6094 " fill="#FEFFDD" style="stroke:#181818;stroke-width:0.5;"/><path d="M5174.3779,110.6094 L5174.3779,120.6094 L5184.3779,120.6094 L5174.3779,110.6094 " fill="#FEFFDD" style="stroke:#181818;stroke-width:0.5;"/><text fill="#000000" font-family="sans-serif" font-size="13" lengthAdjust="spacing" textLength="7.2236" x="4923" y="129.1045">&#160;&#160;</text><text fill="#000000" font-family="sans-serif" font-size="13" lengthAdjust="spacing" textLength="246.3779" x="4923" y="145.4561">RFC 7807 Problem Details error response.</text><text fill="#000000" font-family="sans-serif" font-size="13" lengthAdjust="spacing" textLength="3.6118" x="4923" y="161.8076">&#160;</text></g><!--class LoginButtonx--><g id="elem_LoginButtonx"><rect codeLine="141" fill="#F1F1F1" height="76.3125" id="LoginButtonx" rx="2.5" ry="2.5" style="stroke:#181818;stroke-width:0.5;" width="192.9336" x="5219" y="102.1094"/><ellipse cx="5270.3516" cy="123.4609" fill="#ADD1B2" rx="11" ry="11" style="stroke:#181818;stroke-width:1.0;"/><path d="M5273.1172,119.3359 Q5273.2734,119.1172 5273.4609,119.0078 Q5273.6484,118.8984 5273.8672,118.8984 Q5274.2422,118.8984 5274.4766,119.1641 Q5274.7109,119.4141 5274.7109,120.0234 L5274.7109,121.4766 Q5274.7109,122.0859 5274.4766,122.3516 Q5274.2422,122.6172 5273.8672,122.6172 Q5273.5234,122.6172 5273.3203,122.4141 Q5273.1172,122.2266 5273.0078,121.7109 Q5272.9609,121.3516 5272.7734,121.1641 Q5272.4453,120.7891 5271.8359,120.5703 Q5271.2266,120.3516 5270.6016,120.3516 Q5269.8359,120.3516 5269.1953,120.6797 Q5268.5703,121.0078 5268.0703,121.7578 Q5267.5859,122.5078 5267.5859,123.5391 L5267.5859,124.6328 Q5267.5859,125.8672 5268.4766,126.6953 Q5269.3672,127.5078 5270.9609,127.5078 Q5271.8984,127.5078 5272.5547,127.2578 Q5272.9453,127.1016 5273.3672,126.6641 Q5273.6328,126.3984 5273.7734,126.3203 Q5273.9297,126.2422 5274.1328,126.2422 Q5274.4609,126.2422 5274.7109,126.5078 Q5274.9766,126.7578 5274.9766,127.1016 Q5274.9766,127.4453 5274.6328,127.8516 Q5274.1328,128.4297 5273.3359,128.7578 Q5272.2578,129.2109 5270.9609,129.2109 Q5269.4453,129.2109 5268.2422,128.5859 Q5267.2578,128.0859 5266.5703,127.0234 Q5265.8828,125.9453 5265.8828,124.6641 L5265.8828,123.5078 Q5265.8828,122.1797 5266.4922,121.0391 Q5267.1172,119.8828 5268.2109,119.2734 Q5269.3047,118.6484 5270.5391,118.6484 Q5271.2734,118.6484 5271.9141,118.8203 Q5272.5703,118.9766 5273.1172,119.3359 Z " fill="#000000"/><text fill="#000000" font-family="sans-serif" font-size="12" font-style="italic" lengthAdjust="spacing" textLength="55.3711" x="5304.0313" y="119.5664">&#171;effectful&#187;</text><text fill="#000000" font-family="sans-serif" font-size="14" lengthAdjust="spacing" textLength="81.7305" x="5290.8516" y="136.7363">LoginButtonx</text><line style="stroke:#181818;stroke-width:0.5;" x1="5220" x2="5410.9336" y1="144.8125" y2="144.8125"/><line style="stroke:#181818;stroke-width:0.5;" x1="5220" x2="5410.9336" y1="152.8125" y2="152.8125"/><text fill="#000000" font-family="sans-serif" font-size="14" lengthAdjust="spacing" text-decoration="underline" textLength="180.9336" x="5225" y="171.3457">+LoginButton(): JSX.Element</text></g><g id="elem_GMN52"><path d="M5447,110.6094 L5447,136.6094 L5412.03,140.6094 L5447,144.6094 L5447,169.6641 A0,0 0 0 0 5447,169.6641 L5598.0825,169.6641 A0,0 0 0 0 5598.0825,169.6641 L5598.0825,120.6094 L5588.0825,110.6094 L5447,110.6094 A0,0 0 0 0 5447,110.6094 " fill="#FEFFDD" style="stroke:#181818;stroke-width:0.5;"/><path d="M5588.0825,110.6094 L5588.0825,120.6094 L5598.0825,120.6094 L5588.0825,110.6094 " fill="#FEFFDD" style="stroke:#181818;stroke-width:0.5;"/><text fill="#000000" font-family="sans-serif" font-size="13" lengthAdjust="spacing" textLength="125.7534" x="5453" y="129.1045">Module: LoginButtonx</text><text fill="#000000" font-family="sans-serif" font-size="13" lengthAdjust="spacing" textLength="3.6118" x="5453" y="145.4561">&#160;</text><text fill="#000000" font-family="sans-serif" font-size="13" lengthAdjust="spacing" textLength="130.0825" x="5453" y="161.8076">Stereotype: &#171;effectful&#187;</text></g><!--class LogoutButtonx--><g id="elem_LogoutButtonx"><rect codeLine="150" fill="#F1F1F1" height="76.3125" id="LogoutButtonx" rx="2.5" ry="2.5" style="stroke:#181818;stroke-width:0.5;" width="201.499" x="5633" y="102.1094"/><ellipse cx="5684.3516" cy="123.4609" fill="#ADD1B2" rx="11" ry="11" style="stroke:#181818;stroke-width:1.0;"/><path d="M5687.1172,119.3359 Q5687.2734,119.1172 5687.4609,119.0078 Q5687.6484,118.8984 5687.8672,118.8984 Q5688.2422,118.8984 5688.4766,119.1641 Q5688.7109,119.4141 5688.7109,120.0234 L5688.7109,121.4766 Q5688.7109,122.0859 5688.4766,122.3516 Q5688.2422,122.6172 5687.8672,122.6172 Q5687.5234,122.6172 5687.3203,122.4141 Q5687.1172,122.2266 5687.0078,121.7109 Q5686.9609,121.3516 5686.7734,121.1641 Q5686.4453,120.7891 5685.8359,120.5703 Q5685.2266,120.3516 5684.6016,120.3516 Q5683.8359,120.3516 5683.1953,120.6797 Q5682.5703,121.0078 5682.0703,121.7578 Q5681.5859,122.5078 5681.5859,123.5391 L5681.5859,124.6328 Q5681.5859,125.8672 5682.4766,126.6953 Q5683.3672,127.5078 5684.9609,127.5078 Q5685.8984,127.5078 5686.5547,127.2578 Q5686.9453,127.1016 5687.3672,126.6641 Q5687.6328,126.3984 5687.7734,126.3203 Q5687.9297,126.2422 5688.1328,126.2422 Q5688.4609,126.2422 5688.7109,126.5078 Q5688.9766,126.7578 5688.9766,127.1016 Q5688.9766,127.4453 5688.6328,127.8516 Q5688.1328,128.4297 5687.3359,128.7578 Q5686.2578,129.2109 5684.9609,129.2109 Q5683.4453,129.2109 5682.2422,128.5859 Q5681.2578,128.0859 5680.5703,127.0234 Q5679.8828,125.9453 5679.8828,124.6641 L5679.8828,123.5078 Q5679.8828,122.1797 5680.4922,121.0391 Q5681.1172,119.8828 5682.2109,119.2734 Q5683.3047,118.6484 5684.5391,118.6484 Q5685.2734,118.6484 5685.9141,118.8203 Q5686.5703,118.9766 5687.1172,119.3359 Z " fill="#000000"/><text fill="#000000" font-family="sans-serif" font-size="12" font-style="italic" lengthAdjust="spacing" textLength="55.3711" x="5722.314" y="119.5664">&#171;effectful&#187;</text><text fill="#000000" font-family="sans-serif" font-size="14" lengthAdjust="spacing" textLength="90.2959" x="5704.8516" y="136.7363">LogoutButtonx</text><line style="stroke:#181818;stroke-width:0.5;" x1="5634" x2="5833.499" y1="144.8125" y2="144.8125"/><line style="stroke:#181818;stroke-width:0.5;" x1="5634" x2="5833.499" y1="152.8125" y2="152.8125"/><text fill="#000000" font-family="sans-serif" font-size="14" lengthAdjust="spacing" text-decoration="underline" textLength="189.499" x="5639" y="171.3457">+LogoutButton(): JSX.Element</text></g><g id="elem_GMN56"><path d="M5869,110.6094 L5869,136.6094 L5834.07,140.6094 L5869,144.6094 L5869,169.6641 A0,0 0 0 0 5869,169.6641 L6023.707,169.6641 A0,0 0 0 0 6023.707,169.6641 L6023.707,120.6094 L6013.707,110.6094 L5869,110.6094 A0,0 0 0 0 5869,110.6094 " fill="#FEFFDD" style="stroke:#181818;stroke-width:0.5;"/><path d="M6013.707,110.6094 L6013.707,120.6094 L6023.707,120.6094 L6013.707,110.6094 " fill="#FEFFDD" style="stroke:#181818;stroke-width:0.5;"/><text fill="#000000" font-family="sans-serif" font-size="13" lengthAdjust="spacing" textLength="133.707" x="5875" y="129.1045">Module: LogoutButtonx</text><text fill="#000000" font-family="sans-serif" font-size="13" lengthAdjust="spacing" textLength="3.6118" x="5875" y="145.4561">&#160;</text><text fill="#000000" font-family="sans-serif" font-size="13" lengthAdjust="spacing" textLength="130.0825" x="5875" y="161.8076">Stereotype: &#171;effectful&#187;</text></g><!--class ProfileContentx--><g id="elem_ProfileContentx"><rect codeLine="159" fill="#F1F1F1" height="93.9219" id="ProfileContentx" rx="2.5" ry="2.5" style="stroke:#181818;stroke-width:0.5;" width="235.3164" x="6059" y="93.1094"/><ellipse cx="6124.5498" cy="114.4609" fill="#ADD1B2" rx="11" ry="11" style="stroke:#181818;stroke-width:1.0;"/><path d="M6127.3154,110.3359 Q6127.4717,110.1172 6127.6592,110.0078 Q6127.8467,109.8984 6128.0654,109.8984 Q6128.4404,109.8984 6128.6748,110.1641 Q6128.9092,110.4141 6128.9092,111.0234 L6128.9092,112.4766 Q6128.9092,113.0859 6128.6748,113.3516 Q6128.4404,113.6172 6128.0654,113.6172 Q6127.7217,113.6172 6127.5186,113.4141 Q6127.3154,113.2266 6127.2061,112.7109 Q6127.1592,112.3516 6126.9717,112.1641 Q6126.6436,111.7891 6126.0342,111.5703 Q6125.4248,111.3516 6124.7998,111.3516 Q6124.0342,111.3516 6123.3936,111.6797 Q6122.7686,112.0078 6122.2686,112.7578 Q6121.7842,113.5078 6121.7842,114.5391 L6121.7842,115.6328 Q6121.7842,116.8672 6122.6748,117.6953 Q6123.5654,118.5078 6125.1592,118.5078 Q6126.0967,118.5078 6126.7529,118.2578 Q6127.1436,118.1016 6127.5654,117.6641 Q6127.8311,117.3984 6127.9717,117.3203 Q6128.1279,117.2422 6128.3311,117.2422 Q6128.6592,117.2422 6128.9092,117.5078 Q6129.1748,117.7578 6129.1748,118.1016 Q6129.1748,118.4453 6128.8311,118.8516 Q6128.3311,119.4297 6127.5342,119.7578 Q6126.4561,120.2109 6125.1592,120.2109 Q6123.6436,120.2109 6122.4404,119.5859 Q6121.4561,119.0859 6120.7686,118.0234 Q6120.0811,116.9453 6120.0811,115.6641 L6120.0811,114.5078 Q6120.0811,113.1797 6120.6904,112.0391 Q6121.3154,110.8828 6122.4092,110.2734 Q6123.5029,109.6484 6124.7373,109.6484 Q6125.4717,109.6484 6126.1123,109.8203 Q6126.7686,109.9766 6127.3154,110.3359 Z " fill="#000000"/><text fill="#000000" font-family="sans-serif" font-size="12" font-style="italic" lengthAdjust="spacing" textLength="55.3711" x="6165.2227" y="110.5664">&#171;effectful&#187;</text><text fill="#000000" font-family="sans-serif" font-size="14" lengthAdjust="spacing" textLength="95.7168" x="6145.0498" y="127.7363">ProfileContentx</text><line style="stroke:#181818;stroke-width:0.5;" x1="6060" x2="6293.3164" y1="135.8125" y2="135.8125"/><line style="stroke:#181818;stroke-width:0.5;" x1="6060" x2="6293.3164" y1="143.8125" y2="143.8125"/><text fill="#000000" font-family="sans-serif" font-size="14" lengthAdjust="spacing" text-decoration="underline" textLength="223.3164" x="6065" y="162.3457">-ProfileContentInner(): JSX.Element</text><text fill="#000000" font-family="sans-serif" font-size="14" lengthAdjust="spacing" text-decoration="underline" textLength="194.9199" x="6065" y="179.9551">+ProfileContent(): JSX.Element</text></g><g id="elem_GMN60"><path d="M6329.5,110.6094 L6329.5,136.6094 L6294.02,140.6094 L6329.5,144.6094 L6329.5,169.6641 A0,0 0 0 0 6329.5,169.6641 L6489.2407,169.6641 A0,0 0 0 0 6489.2407,169.6641 L6489.2407,120.6094 L6479.2407,110.6094 L6329.5,110.6094 A0,0 0 0 0 6329.5,110.6094 " fill="#FEFFDD" style="stroke:#181818;stroke-width:0.5;"/><path d="M6479.2407,110.6094 L6479.2407,120.6094 L6489.2407,120.6094 L6479.2407,110.6094 " fill="#FEFFDD" style="stroke:#181818;stroke-width:0.5;"/><text fill="#000000" font-family="sans-serif" font-size="13" lengthAdjust="spacing" textLength="138.7407" x="6335.5" y="129.1045">Module: ProfileContentx</text><text fill="#000000" font-family="sans-serif" font-size="13" lengthAdjust="spacing" textLength="3.6118" x="6335.5" y="145.4561">&#160;</text><text fill="#000000" font-family="sans-serif" font-size="13" lengthAdjust="spacing" textLength="130.0825" x="6335.5" y="161.8076">Stereotype: &#171;effectful&#187;</text></g><!--class TechVersions--><g id="elem_TechVersions"><rect codeLine="169" fill="#F1F1F1" height="136.0469" id="TechVersions" rx="2.5" ry="2.5" style="stroke:#181818;stroke-width:0.5;" width="117.5928" x="8609.5" y="72.1094"/><ellipse cx="8624.5" cy="88.1094" fill="#B4A7E5" rx="11" ry="11" style="stroke:#181818;stroke-width:1.0;"/><path d="M8625.4531,84.75 L8625.4531,91.4063 L8627.1719,91.4063 Q8627.7813,91.4063 8628.0469,91.6406 Q8628.3125,91.875 8628.3125,92.2656 Q8628.3125,92.6406 8628.0469,92.875 Q8627.7813,93.1094 8627.1719,93.1094 L8622.0313,93.1094 Q8621.4219,93.1094 8621.1563,92.875 Q8620.8906,92.6406 8620.8906,92.25 Q8620.8906,91.875 8621.1563,91.6406 Q8621.4219,91.4063 8622.0313,91.4063 L8623.75,91.4063 L8623.75,84.75 L8622.0313,84.75 Q8621.4219,84.75 8621.1563,84.5156 Q8620.8906,84.2813 8620.8906,83.8906 Q8620.8906,83.5156 8621.1563,83.2813 Q8621.4219,83.0469 8622.0313,83.0469 L8627.1719,83.0469 Q8627.7813,83.0469 8628.0469,83.2813 Q8628.3125,83.5156 8628.3125,83.8906 Q8628.3125,84.2813 8628.0469,84.5156 Q8627.7813,84.75 8627.1719,84.75 L8625.4531,84.75 Z " fill="#000000"/><text fill="#000000" font-family="sans-serif" font-size="14" font-style="italic" lengthAdjust="spacing" textLength="85.5928" x="8638.5" y="93.8379">TechVersions</text><line style="stroke:#181818;stroke-width:0.5;" x1="8610.5" x2="8726.0928" y1="104.1094" y2="104.1094"/><text fill="#000000" font-family="sans-serif" font-size="14" lengthAdjust="spacing" textLength="73.1377" x="8615.5" y="122.6426">astro: string</text><text fill="#000000" font-family="sans-serif" font-size="14" lengthAdjust="spacing" textLength="73.1377" x="8615.5" y="140.252">react: string</text><text fill="#000000" font-family="sans-serif" font-size="14" lengthAdjust="spacing" textLength="88.7031" x="8615.5" y="157.8613">tailwind: string</text><text fill="#000000" font-family="sans-serif" font-size="14" lengthAdjust="spacing" textLength="101.9238" x="8615.5" y="175.4707">typescript: string</text><text fill="#000000" font-family="sans-serif" font-size="14" lengthAdjust="spacing" textLength="102.7168" x="8615.5" y="193.0801">cloudflare: string</text><line style="stroke:#181818;stroke-width:0.5;" x1="8610.5" x2="8726.0928" y1="200.1563" y2="200.1563"/></g><!--class ThemeTogglex--><g id="elem_ThemeTogglex"><rect codeLine="177" fill="#F1F1F1" height="76.3125" id="ThemeTogglex" rx="2.5" ry="2.5" style="stroke:#181818;stroke-width:0.5;" width="204.582" x="6525" y="102.1094"/><ellipse cx="6576.3516" cy="123.4609" fill="#ADD1B2" rx="11" ry="11" style="stroke:#181818;stroke-width:1.0;"/><path d="M6579.1172,119.3359 Q6579.2734,119.1172 6579.4609,119.0078 Q6579.6484,118.8984 6579.8672,118.8984 Q6580.2422,118.8984 6580.4766,119.1641 Q6580.7109,119.4141 6580.7109,120.0234 L6580.7109,121.4766 Q6580.7109,122.0859 6580.4766,122.3516 Q6580.2422,122.6172 6579.8672,122.6172 Q6579.5234,122.6172 6579.3203,122.4141 Q6579.1172,122.2266 6579.0078,121.7109 Q6578.9609,121.3516 6578.7734,121.1641 Q6578.4453,120.7891 6577.8359,120.5703 Q6577.2266,120.3516 6576.6016,120.3516 Q6575.8359,120.3516 6575.1953,120.6797 Q6574.5703,121.0078 6574.0703,121.7578 Q6573.5859,122.5078 6573.5859,123.5391 L6573.5859,124.6328 Q6573.5859,125.8672 6574.4766,126.6953 Q6575.3672,127.5078 6576.9609,127.5078 Q6577.8984,127.5078 6578.5547,127.2578 Q6578.9453,127.1016 6579.3672,126.6641 Q6579.6328,126.3984 6579.7734,126.3203 Q6579.9297,126.2422 6580.1328,126.2422 Q6580.4609,126.2422 6580.7109,126.5078 Q6580.9766,126.7578 6580.9766,127.1016 Q6580.9766,127.4453 6580.6328,127.8516 Q6580.1328,128.4297 6579.3359,128.7578 Q6578.2578,129.2109 6576.9609,129.2109 Q6575.4453,129.2109 6574.2422,128.5859 Q6573.2578,128.0859 6572.5703,127.0234 Q6571.8828,125.9453 6571.8828,124.6641 L6571.8828,123.5078 Q6571.8828,122.1797 6572.4922,121.0391 Q6573.1172,119.8828 6574.2109,119.2734 Q6575.3047,118.6484 6576.5391,118.6484 Q6577.2734,118.6484 6577.9141,118.8203 Q6578.5703,118.9766 6579.1172,119.3359 Z " fill="#000000"/><text fill="#000000" font-family="sans-serif" font-size="12" font-style="italic" lengthAdjust="spacing" textLength="55.3711" x="6615.8555" y="119.5664">&#171;effectful&#187;</text><text fill="#000000" font-family="sans-serif" font-size="14" lengthAdjust="spacing" textLength="93.3789" x="6596.8516" y="136.7363">ThemeTogglex</text><line style="stroke:#181818;stroke-width:0.5;" x1="6526" x2="6728.582" y1="144.8125" y2="144.8125"/><line style="stroke:#181818;stroke-width:0.5;" x1="6526" x2="6728.582" y1="152.8125" y2="152.8125"/><text fill="#000000" font-family="sans-serif" font-size="14" lengthAdjust="spacing" text-decoration="underline" textLength="192.582" x="6531" y="171.3457">+ThemeToggle(): JSX.Element</text></g><g id="elem_GMN65"><path d="M6765.5,110.6094 L6765.5,136.6094 L6730.28,140.6094 L6765.5,144.6094 L6765.5,169.6641 A0,0 0 0 0 6765.5,169.6641 L6923.0698,169.6641 A0,0 0 0 0 6923.0698,169.6641 L6923.0698,120.6094 L6913.0698,110.6094 L6765.5,110.6094 A0,0 0 0 0 6765.5,110.6094 " fill="#FEFFDD" style="stroke:#181818;stroke-width:0.5;"/><path d="M6913.0698,110.6094 L6913.0698,120.6094 L6923.0698,120.6094 L6913.0698,110.6094 " fill="#FEFFDD" style="stroke:#181818;stroke-width:0.5;"/><text fill="#000000" font-family="sans-serif" font-size="13" lengthAdjust="spacing" textLength="136.5698" x="6771.5" y="129.1045">Module: ThemeTogglex</text><text fill="#000000" font-family="sans-serif" font-size="13" lengthAdjust="spacing" textLength="3.6118" x="6771.5" y="145.4561">&#160;</text><text fill="#000000" font-family="sans-serif" font-size="13" lengthAdjust="spacing" textLength="130.0825" x="6771.5" y="161.8076">Stereotype: &#171;effectful&#187;</text></g><!--class validation--><g id="elem_validation"><rect codeLine="186" fill="#F1F1F1" height="146.75" id="validation" rx="2.5" ry="2.5" style="stroke:#181818;stroke-width:0.5;" width="341.5674" x="6958.5" y="66.6094"/><ellipse cx="7095.458" cy="87.9609" fill="#ADD1B2" rx="11" ry="11" style="stroke:#181818;stroke-width:1.0;"/><path d="M7098.2236,83.8359 Q7098.3799,83.6172 7098.5674,83.5078 Q7098.7549,83.3984 7098.9736,83.3984 Q7099.3486,83.3984 7099.583,83.6641 Q7099.8174,83.9141 7099.8174,84.5234 L7099.8174,85.9766 Q7099.8174,86.5859 7099.583,86.8516 Q7099.3486,87.1172 7098.9736,87.1172 Q7098.6299,87.1172 7098.4268,86.9141 Q7098.2236,86.7266 7098.1143,86.2109 Q7098.0674,85.8516 7097.8799,85.6641 Q7097.5518,85.2891 7096.9424,85.0703 Q7096.333,84.8516 7095.708,84.8516 Q7094.9424,84.8516 7094.3018,85.1797 Q7093.6768,85.5078 7093.1768,86.2578 Q7092.6924,87.0078 7092.6924,88.0391 L7092.6924,89.1328 Q7092.6924,90.3672 7093.583,91.1953 Q7094.4736,92.0078 7096.0674,92.0078 Q7097.0049,92.0078 7097.6611,91.7578 Q7098.0518,91.6016 7098.4736,91.1641 Q7098.7393,90.8984 7098.8799,90.8203 Q7099.0361,90.7422 7099.2393,90.7422 Q7099.5674,90.7422 7099.8174,91.0078 Q7100.083,91.2578 7100.083,91.6016 Q7100.083,91.9453 7099.7393,92.3516 Q7099.2393,92.9297 7098.4424,93.2578 Q7097.3643,93.7109 7096.0674,93.7109 Q7094.5518,93.7109 7093.3486,93.0859 Q7092.3643,92.5859 7091.6768,91.5234 Q7090.9893,90.4453 7090.9893,89.1641 L7090.9893,88.0078 Q7090.9893,86.6797 7091.5986,85.5391 Q7092.2236,84.3828 7093.3174,83.7734 Q7094.4111,83.1484 7095.6455,83.1484 Q7096.3799,83.1484 7097.0205,83.3203 Q7097.6768,83.4766 7098.2236,83.8359 Z " fill="#000000"/><text fill="#000000" font-family="sans-serif" font-size="12" font-style="italic" lengthAdjust="spacing" textLength="55.3711" x="7117.8481" y="84.0664">&#171;effectful&#187;</text><text fill="#000000" font-family="sans-serif" font-size="14" lengthAdjust="spacing" textLength="59.1514" x="7115.958" y="101.2363">validation</text><line style="stroke:#181818;stroke-width:0.5;" x1="6959.5" x2="7299.0674" y1="109.3125" y2="109.3125"/><line style="stroke:#181818;stroke-width:0.5;" x1="6959.5" x2="7299.0674" y1="117.3125" y2="117.3125"/><text fill="#000000" font-family="sans-serif" font-size="14" lengthAdjust="spacing" text-decoration="underline" textLength="233.0713" x="6964.5" y="135.8457">+isValidDate(dateStr: string): boolean</text><text fill="#000000" font-family="sans-serif" font-size="14" lengthAdjust="spacing" text-decoration="underline" textLength="329.5674" x="6964.5" y="153.4551">+isValidDateRange(start: string, end: string): boolean</text><text fill="#000000" font-family="sans-serif" font-size="14" lengthAdjust="spacing" text-decoration="underline" textLength="193.3613" x="6964.5" y="171.0645">+formatDate(date: Date): string</text><text fill="#000000" font-family="sans-serif" font-size="14" lengthAdjust="spacing" text-decoration="underline" textLength="117.8857" x="6964.5" y="188.6738">+getToday(): string</text><text fill="#000000" font-family="sans-serif" font-size="14" lengthAdjust="spacing" text-decoration="underline" textLength="267.2646" x="6964.5" y="206.2832">+getDaysFromToday(days: number): string</text></g><g id="elem_GMN69"><path d="M7336,110.6094 L7336,136.6094 L7300.86,140.6094 L7336,144.6094 L7336,169.6641 A0,0 0 0 0 7336,169.6641 L7487.0825,169.6641 A0,0 0 0 0 7487.0825,169.6641 L7487.0825,120.6094 L7477.0825,110.6094 L7336,110.6094 A0,0 0 0 0 7336,110.6094 " fill="#FEFFDD" style="stroke:#181818;stroke-width:0.5;"/><path d="M7477.0825,110.6094 L7477.0825,120.6094 L7487.0825,120.6094 L7477.0825,110.6094 " fill="#FEFFDD" style="stroke:#181818;stroke-width:0.5;"/><text fill="#000000" font-family="sans-serif" font-size="13" lengthAdjust="spacing" textLength="104.7871" x="7342" y="129.1045">Module: validation</text><text fill="#000000" font-family="sans-serif" font-size="13" lengthAdjust="spacing" textLength="3.6118" x="7342" y="145.4561">&#160;</text><text fill="#000000" font-family="sans-serif" font-size="13" lengthAdjust="spacing" textLength="130.0825" x="7342" y="161.8076">Stereotype: &#171;effectful&#187;</text></g><!--class versions--><g id="elem_versions"><rect codeLine="199" fill="#F1F1F1" height="129.1406" id="versions" rx="2.5" ry="2.5" style="stroke:#181818;stroke-width:0.5;" width="607.6563" x="7522.5" y="75.6094"/><ellipse cx="7796.0127" cy="96.9609" fill="#ADD1B2" rx="11" ry="11" style="stroke:#181818;stroke-width:1.0;"/><path d="M7798.7783,92.8359 Q7798.9346,92.6172 7799.1221,92.5078 Q7799.3096,92.3984 7799.5283,92.3984 Q7799.9033,92.3984 7800.1377,92.6641 Q7800.3721,92.9141 7800.3721,93.5234 L7800.3721,94.9766 Q7800.3721,95.5859 7800.1377,95.8516 Q7799.9033,96.1172 7799.5283,96.1172 Q7799.1846,96.1172 7798.9814,95.9141 Q7798.7783,95.7266 7798.6689,95.2109 Q7798.6221,94.8516 7798.4346,94.6641 Q7798.1064,94.2891 7797.4971,94.0703 Q7796.8877,93.8516 7796.2627,93.8516 Q7795.4971,93.8516 7794.8564,94.1797 Q7794.2314,94.5078 7793.7314,95.2578 Q7793.2471,96.0078 7793.2471,97.0391 L7793.2471,98.1328 Q7793.2471,99.3672 7794.1377,100.1953 Q7795.0283,101.0078 7796.6221,101.0078 Q7797.5596,101.0078 7798.2158,100.7578 Q7798.6064,100.6016 7799.0283,100.1641 Q7799.2939,99.8984 7799.4346,99.8203 Q7799.5908,99.7422 7799.7939,99.7422 Q7800.1221,99.7422 7800.3721,100.0078 Q7800.6377,100.2578 7800.6377,100.6016 Q7800.6377,100.9453 7800.2939,101.3516 Q7799.7939,101.9297 7798.9971,102.2578 Q7797.9189,102.7109 7796.6221,102.7109 Q7795.1064,102.7109 7793.9033,102.0859 Q7792.9189,101.5859 7792.2314,100.5234 Q7791.5439,99.4453 7791.5439,98.1641 L7791.5439,97.0078 Q7791.5439,95.6797 7792.1533,94.5391 Q7792.7783,93.3828 7793.8721,92.7734 Q7794.9658,92.1484 7796.2002,92.1484 Q7796.9346,92.1484 7797.5752,92.3203 Q7798.2314,92.4766 7798.7783,92.8359 Z " fill="#000000"/><text fill="#000000" font-family="sans-serif" font-size="12" font-style="italic" lengthAdjust="spacing" textLength="37.3652" x="7823.8955" y="93.0664">&#171;pure&#187;</text><text fill="#000000" font-family="sans-serif" font-size="14" lengthAdjust="spacing" textLength="52.1309" x="7816.5127" y="110.2363">versions</text><line style="stroke:#181818;stroke-width:0.5;" x1="7523.5" x2="8129.1563" y1="118.3125" y2="118.3125"/><line style="stroke:#181818;stroke-width:0.5;" x1="7523.5" x2="8129.1563" y1="126.3125" y2="126.3125"/><text fill="#000000" font-family="sans-serif" font-size="14" lengthAdjust="spacing" text-decoration="underline" textLength="262.9717" x="7528.5" y="144.8457">-getMajorVersion(versionStr: string): string</text><text fill="#000000" font-family="sans-serif" font-size="14" lengthAdjust="spacing" text-decoration="underline" textLength="305.7646" x="7528.5" y="162.4551">-_getMajorMinorVersion(versionStr: string): string</text><text fill="#000000" font-family="sans-serif" font-size="14" lengthAdjust="spacing" text-decoration="underline" textLength="215.9268" x="7528.5" y="180.0645">+getTechVersions(): TechVersions</text><text fill="#000000" font-family="sans-serif" font-size="14" lengthAdjust="spacing" text-decoration="underline" textLength="595.6563" x="7528.5" y="197.6738">+getDetailedVersions(): { astro: { name: string; version: string; fullVersion: string; description: s...</text></g><g id="elem_GMN73"><path d="M8165.5,110.6094 L8165.5,136.6094 L8130.61,140.6094 L8165.5,144.6094 L8165.5,169.6641 A0,0 0 0 0 8165.5,169.6641 L8297.0762,169.6641 A0,0 0 0 0 8297.0762,169.6641 L8297.0762,120.6094 L8287.0762,110.6094 L8165.5,110.6094 A0,0 0 0 0 8165.5,110.6094 " fill="#FEFFDD" style="stroke:#181818;stroke-width:0.5;"/><path d="M8287.0762,110.6094 L8287.0762,120.6094 L8297.0762,120.6094 L8287.0762,110.6094 " fill="#FEFFDD" style="stroke:#181818;stroke-width:0.5;"/><text fill="#000000" font-family="sans-serif" font-size="13" lengthAdjust="spacing" textLength="98.2681" x="8171.5" y="129.1045">Module: versions</text><text fill="#000000" font-family="sans-serif" font-size="13" lengthAdjust="spacing" textLength="3.6118" x="8171.5" y="145.4561">&#160;</text><text fill="#000000" font-family="sans-serif" font-size="13" lengthAdjust="spacing" textLength="110.5762" x="8171.5" y="161.8076">Stereotype: &#171;pure&#187;</text></g><!--link DayCountRequest to DatePair--><g id="link_DayCountRequest_DatePair"><path codeLine="212" d="M3072.97,178.6094 C3026.72,178.6094 2983.5,178.6094 2983.5,178.6094 C2983.5,178.6094 2983.5,248.2094 2983.5,297.5194 " fill="none" id="DayCountRequest-to-DatePair" style="stroke:#181818;stroke-width:1.0;stroke-dasharray:7.0,7.0;"/><polygon fill="#181818" points="2983.5,303.5194,2987.5,294.5194,2983.5,298.5194,2979.5,294.5194,2983.5,303.5194" style="stroke:#181818;stroke-width:1.0;"/><text fill="#000000" font-family="sans-serif" font-size="13" lengthAdjust="spacing" textLength="27.46" x="2955.5" y="192.8245">uses</text></g><!--link DayCountRequest to DayCountOptions--><g id="link_DayCountRequest_DayCountOptions"><path codeLine="213" d="M3285.5,190.9694 C3285.5,240.8894 3285.5,309.6094 3285.5,309.6094 C3285.5,309.6094 3290.82,309.6094 3305.76,309.6094 " fill="none" id="DayCountRequest-to-DayCountOptions" style="stroke:#181818;stroke-width:1.0;stroke-dasharray:7.0,7.0;"/><polygon fill="#181818" points="3311.76,309.6094,3302.76,305.6094,3306.76,309.6094,3302.76,313.6094,3311.76,309.6094" style="stroke:#181818;stroke-width:1.0;"/><text fill="#000000" font-family="sans-serif" font-size="13" lengthAdjust="spacing" textLength="27.46" x="3257.5" y="259.9145">uses</text></g><!--link DayCountResponse to DayCountResult--><g id="link_DayCountResponse_DayCountResult"><path codeLine="214" d="M4283.5,190.7794 C4283.5,222.3194 4283.5,256.7494 4283.5,288.3094 " fill="none" id="DayCountResponse-to-DayCountResult" style="stroke:#181818;stroke-width:1.0;stroke-dasharray:7.0,7.0;"/><polygon fill="#181818" points="4283.5,294.3094,4287.5,285.3094,4283.5,289.3094,4279.5,285.3094,4283.5,294.3094" style="stroke:#181818;stroke-width:1.0;"/><text fill="#000000" font-family="sans-serif" font-size="13" lengthAdjust="spacing" textLength="27.46" x="4255.5" y="239.0445">uses</text></g><!--SRC=[fLVVRzis47xNNt5lSx34o5i7rqYHE0cQOMc3nCq63CD0IoUR2qrw9ENMpVA_xoXACYLPbhq1Vh2FTxpxFjulMsu5mXSEPp0Hp1YuvcoksJAAp0kNAqPV8NO7bzPgFiiitiLAFl7l2EU1Yk0IxMQ5eBHTg2ZAJU1onM-qLXfUexT8AekW-NnXGQNLKGGGJJ9ZrH8mL_MMANsxVBZpCWDVkLr0ob4aPmBNA63D14-OvKf2WfPnOOPHTFFDeamCU9-vpSVfz06CPJOp4Ai4WSa4rCePCb6xqNkAKasHFDvEuDrFv-_WGQkPm2LSUn-WqQoKDEYyaIjmcAA8IuiwPJ72PMONvsIqvWdgNoc0JspDvymYoLQ6Q0285rma6kK87f75zXC5HUIKX7NPVuFn6DCKOvjcuk8Yl-d7LmUCns_TPeFGusdqDkg9y6G4Fp_zDhmXp2Xj-z4wmoCtzoh918xsAz7dYSX2vP9bL0SLCBfbuogpLibTyCzgyBtUdPIe1mqKJQQywk00h8Np1hYjz2Wq4oR4ZCKl7oa51Uhza1hAlRWQ-dtWch4427SS7GKp5fmyxWKtHqlbVyKCVj72XMgejSXv3H0p6nb3p4IS2SgTQxQPg4pQWSQ_CpHs1ANaqGjEmQeNb1_Ao-0Vo6I2AVMbX3nGFYwvmV7MoXVoHOiQ7tz0I2Kua8PjDxXsPSMupk4JC6q3g6HG_Mh6K1ewfwuBJZodhYbUAN9qpwYr6THh7gE9MazGWfmKxAcUP6lhz-PRswGlvNO45P2y-_G_CEwl-PntUDzmKIqVoGTbnamfWKoIBCtJICORaifiEKFT6MznbOlcSpatyfc7vDGFgeHjQBYGRfMlpg9ZH3JoDWznHMzjHjMp__w7wzfAheb7kYbWfvAHWfzYviEe5MeNbCAbWr9wNx6DK2pvFp1y8UKuQ3ncmfgmE9tWC3nheZC_xIoAkaSFe_2UZ-sT05oXhHG5tW-4GirXq3scoWk03J9zgsbMvz5LuXaptFIcZx-sYDKve3C6XW3IshKpu8uuywMcnhOlYggXMBV91R_zrXC4x1Ubi0NbAmybqANMR3DsTuBVYQes-ZwNBT4ODiTG-DRkdBK8SyHTQvJVzCfbQjZkOB-eEPVTet_RXmB5lWOKtXbqdeRug5b7jYgp1yPPQHuGwFRMUgGr-L6XqXEaN21L7Et8TlyygElspeAwUX-wHY01llR9qVr_Yl7YsVSHt_mPPQmAKbwxdJii6ih7hpmOnRwiJApvAjIBXSgIL32DGNygg9qk2EbKpQcYzoT1eDZ7KdXdG553V5G617-PzWN9pRDJTBDeGEhuP7K9-IGSeJij7fcSuw2swfo6cqx73JHzbinMBlqatBqNqkuuLTGt1vt7r7dDBOq3hnRsyfFEsRBb9Y2x9ZoEwZ85n-DLfd7N0dpF_bAwIDL1eL-dkaAtjVkpDBpdyb3hEdL1VJW6mzyj7lDcZKce_reMr2j8se2gWT0Stk-1Y17FJM5I59ON3eV3zaDiWwcUOIjgFO9dD-3_1_fNNImk2xuoKNFR6Wuljclv23BwAz-XKryaMwh570vrYm5VgFuB]--></g></svg>