<svg xmlns="http://www.w3.org/2000/svg" xmlns:xlink="http://www.w3.org/1999/xlink" contentStyleType="text/css" height="472px" preserveAspectRatio="none" style="width:7113px;height:472px;background:#FFFFFF;" version="1.1" viewBox="0 0 7113 472" width="7113px" zoomAndPan="magnify"><title>Daycount - Class Diagram</title><defs/><g><text fill="#000000" font-family="sans-serif" font-size="14" font-weight="bold" lengthAdjust="spacing" textLength="173.4961" x="3462.79" y="24.5332">Daycount - Class Diagram</text><!--class ActorClaim--><g id="elem_ActorClaim"><rect codeLine="6" fill="#F1F1F1" height="153.6563" id="ActorClaim" rx="2.5" ry="2.5" style="stroke:#181818;stroke-width:0.5;" width="100.6895" x="16" y="311.6094"/><ellipse cx="31.1055" cy="327.6094" fill="#B4A7E5" rx="11" ry="11" style="stroke:#181818;stroke-width:1.0;"/><path d="M32.0586,324.25 L32.0586,330.9063 L33.7773,330.9063 Q34.3867,330.9063 34.6523,331.1406 Q34.918,331.375 34.918,331.7656 Q34.918,332.1406 34.6523,332.375 Q34.3867,332.6094 33.7773,332.6094 L28.6367,332.6094 Q28.0273,332.6094 27.7617,332.375 Q27.4961,332.1406 27.4961,331.75 Q27.4961,331.375 27.7617,331.1406 Q28.0273,330.9063 28.6367,330.9063 L30.3555,330.9063 L30.3555,324.25 L28.6367,324.25 Q28.0273,324.25 27.7617,324.0156 Q27.4961,323.7813 27.4961,323.3906 Q27.4961,323.0156 27.7617,322.7813 Q28.0273,322.5469 28.6367,322.5469 L33.7773,322.5469 Q34.3867,322.5469 34.6523,322.7813 Q34.918,323.0156 34.918,323.3906 Q34.918,323.7813 34.6523,324.0156 Q34.3867,324.25 33.7773,324.25 L32.0586,324.25 Z " fill="#000000"/><text fill="#000000" font-family="sans-serif" font-size="14" font-style="italic" lengthAdjust="spacing" textLength="68.4551" x="45.1289" y="333.3379">ActorClaim</text><line style="stroke:#181818;stroke-width:0.5;" x1="17" x2="115.6895" y1="343.6094" y2="343.6094"/><text fill="#000000" font-family="sans-serif" font-size="14" lengthAdjust="spacing" textLength="59.124" x="22" y="362.1426">iss: string</text><text fill="#000000" font-family="sans-serif" font-size="14" lengthAdjust="spacing" textLength="64.5859" x="22" y="379.752">sub: string</text><text fill="#000000" font-family="sans-serif" font-size="14" lengthAdjust="spacing" textLength="73.1445" x="22" y="397.3613">role?: string</text><text fill="#000000" font-family="sans-serif" font-size="14" lengthAdjust="spacing" textLength="88.6895" x="22" y="414.9707">perms: string[]</text><text fill="#000000" font-family="sans-serif" font-size="14" lengthAdjust="spacing" textLength="70.0342" x="22" y="432.5801">org?: string</text><text fill="#000000" font-family="sans-serif" font-size="14" lengthAdjust="spacing" textLength="68.4824" x="22" y="450.1895">uid?: string</text><line style="stroke:#181818;stroke-width:0.5;" x1="17" x2="115.6895" y1="457.2656" y2="457.2656"/></g><g id="elem_GMN3"><path d="M152.5,359.1094 L152.5,384.6094 L117.22,388.6094 L152.5,392.6094 L152.5,418.1641 A0,0 0 0 0 152.5,418.1641 L408.8774,418.1641 A0,0 0 0 0 408.8774,418.1641 L408.8774,369.1094 L398.8774,359.1094 L152.5,359.1094 A0,0 0 0 0 152.5,359.1094 " fill="#FEFFDD" style="stroke:#181818;stroke-width:0.5;"/><path d="M398.8774,359.1094 L398.8774,369.1094 L408.8774,369.1094 L398.8774,359.1094 " fill="#FEFFDD" style="stroke:#181818;stroke-width:0.5;"/><text fill="#000000" font-family="sans-serif" font-size="13" lengthAdjust="spacing" textLength="7.2236" x="158.5" y="377.6045">&#160;&#160;</text><text fill="#000000" font-family="sans-serif" font-size="13" lengthAdjust="spacing" textLength="170.4727" x="158.5" y="393.9561">Actor claim from internal JWT</text><text fill="#000000" font-family="sans-serif" font-size="13" lengthAdjust="spacing" textLength="235.3774" x="158.5" y="410.3076">Represents "Service X acting for User Y"</text></g><!--class DateComponents--><g id="elem_DateComponents"><rect codeLine="20" fill="#F1F1F1" height="100.8281" id="DateComponents" rx="2.5" ry="2.5" style="stroke:#181818;stroke-width:0.5;" width="140.9512" x="349" y="98.1094"/><ellipse cx="364" cy="114.1094" fill="#B4A7E5" rx="11" ry="11" style="stroke:#181818;stroke-width:1.0;"/><path d="M364.9531,110.75 L364.9531,117.4063 L366.6719,117.4063 Q367.2813,117.4063 367.5469,117.6406 Q367.8125,117.875 367.8125,118.2656 Q367.8125,118.6406 367.5469,118.875 Q367.2813,119.1094 366.6719,119.1094 L361.5313,119.1094 Q360.9219,119.1094 360.6563,118.875 Q360.3906,118.6406 360.3906,118.25 Q360.3906,117.875 360.6563,117.6406 Q360.9219,117.4063 361.5313,117.4063 L363.25,117.4063 L363.25,110.75 L361.5313,110.75 Q360.9219,110.75 360.6563,110.5156 Q360.3906,110.2813 360.3906,109.8906 Q360.3906,109.5156 360.6563,109.2813 Q360.9219,109.0469 361.5313,109.0469 L366.6719,109.0469 Q367.2813,109.0469 367.5469,109.2813 Q367.8125,109.5156 367.8125,109.8906 Q367.8125,110.2813 367.5469,110.5156 Q367.2813,110.75 366.6719,110.75 L364.9531,110.75 Z " fill="#000000"/><text fill="#000000" font-family="sans-serif" font-size="14" font-style="italic" lengthAdjust="spacing" textLength="108.9512" x="378" y="119.8379">DateComponents</text><line style="stroke:#181818;stroke-width:0.5;" x1="350" x2="488.9512" y1="130.1094" y2="130.1094"/><text fill="#000000" font-family="sans-serif" font-size="14" lengthAdjust="spacing" textLength="82.4824" x="355" y="148.6426">year: number</text><text fill="#000000" font-family="sans-serif" font-size="14" lengthAdjust="spacing" textLength="94.1582" x="355" y="166.252">month: number</text><text fill="#000000" font-family="sans-serif" font-size="14" lengthAdjust="spacing" textLength="77.8203" x="355" y="183.8613">day: number</text><line style="stroke:#181818;stroke-width:0.5;" x1="350" x2="488.9512" y1="190.9375" y2="190.9375"/></g><g id="elem_GMN7"><path d="M525.5,119.1094 L525.5,144.6094 L490.03,148.6094 L525.5,152.6094 L525.5,178.1641 A0,0 0 0 0 525.5,178.1641 L781.3569,178.1641 A0,0 0 0 0 781.3569,178.1641 L781.3569,129.1094 L771.3569,119.1094 L525.5,119.1094 A0,0 0 0 0 525.5,119.1094 " fill="#FEFFDD" style="stroke:#181818;stroke-width:0.5;"/><path d="M771.3569,119.1094 L771.3569,129.1094 L781.3569,129.1094 L771.3569,119.1094 " fill="#FEFFDD" style="stroke:#181818;stroke-width:0.5;"/><text fill="#000000" font-family="sans-serif" font-size="13" lengthAdjust="spacing" textLength="7.2236" x="531.5" y="137.6045">&#160;&#160;</text><text fill="#000000" font-family="sans-serif" font-size="13" lengthAdjust="spacing" textLength="234.8569" x="531.5" y="153.9561">Parsed date components for calculations</text><text fill="#000000" font-family="sans-serif" font-size="13" lengthAdjust="spacing" textLength="3.6118" x="531.5" y="170.3076">&#160;</text></g><!--class DatePair--><g id="elem_DatePair"><rect codeLine="31" fill="#F1F1F1" height="83.2188" id="DatePair" rx="2.5" ry="2.5" style="stroke:#181818;stroke-width:0.5;" width="86.4688" x="549.5" y="347.1094"/><ellipse cx="564.5" cy="363.1094" fill="#B4A7E5" rx="11" ry="11" style="stroke:#181818;stroke-width:1.0;"/><path d="M565.4531,359.75 L565.4531,366.4063 L567.1719,366.4063 Q567.7813,366.4063 568.0469,366.6406 Q568.3125,366.875 568.3125,367.2656 Q568.3125,367.6406 568.0469,367.875 Q567.7813,368.1094 567.1719,368.1094 L562.0313,368.1094 Q561.4219,368.1094 561.1563,367.875 Q560.8906,367.6406 560.8906,367.25 Q560.8906,366.875 561.1563,366.6406 Q561.4219,366.4063 562.0313,366.4063 L563.75,366.4063 L563.75,359.75 L562.0313,359.75 Q561.4219,359.75 561.1563,359.5156 Q560.8906,359.2813 560.8906,358.8906 Q560.8906,358.5156 561.1563,358.2813 Q561.4219,358.0469 562.0313,358.0469 L567.1719,358.0469 Q567.7813,358.0469 568.0469,358.2813 Q568.3125,358.5156 568.3125,358.8906 Q568.3125,359.2813 568.0469,359.5156 Q567.7813,359.75 567.1719,359.75 L565.4531,359.75 Z " fill="#000000"/><text fill="#000000" font-family="sans-serif" font-size="14" font-style="italic" lengthAdjust="spacing" textLength="54.4688" x="578.5" y="368.8379">DatePair</text><line style="stroke:#181818;stroke-width:0.5;" x1="550.5" x2="634.9688" y1="379.1094" y2="379.1094"/><text fill="#000000" font-family="sans-serif" font-size="14" lengthAdjust="spacing" textLength="69.2412" x="555.5" y="397.6426">start: string</text><text fill="#000000" font-family="sans-serif" font-size="14" lengthAdjust="spacing" textLength="65.3721" x="555.5" y="415.252">end: string</text><line style="stroke:#181818;stroke-width:0.5;" x1="550.5" x2="634.9688" y1="422.3281" y2="422.3281"/></g><g id="elem_GMN11"><path d="M671,367.1094 L671,384.6094 L635.78,388.6094 L671,392.6094 L671,409.8125 A0,0 0 0 0 671,409.8125 L903.7134,409.8125 A0,0 0 0 0 903.7134,409.8125 L903.7134,377.1094 L893.7134,367.1094 L671,367.1094 A0,0 0 0 0 671,367.1094 " fill="#FEFFDD" style="stroke:#181818;stroke-width:0.5;"/><path d="M893.7134,367.1094 L893.7134,377.1094 L903.7134,377.1094 L893.7134,367.1094 " fill="#FEFFDD" style="stroke:#181818;stroke-width:0.5;"/><text fill="#000000" font-family="sans-serif" font-size="13" lengthAdjust="spacing" textLength="7.2236" x="677" y="385.6045">&#160;&#160;</text><text fill="#000000" font-family="sans-serif" font-size="13" lengthAdjust="spacing" textLength="211.7134" x="677" y="401.9561">Date pair for year fraction calculation</text></g><!--class DayCountOptions--><g id="elem_DayCountOptions"><rect codeLine="40" fill="#F1F1F1" height="83.2188" id="DayCountOptions" rx="2.5" ry="2.5" style="stroke:#181818;stroke-width:0.5;" width="142.5029" x="939" y="347.1094"/><ellipse cx="954" cy="363.1094" fill="#B4A7E5" rx="11" ry="11" style="stroke:#181818;stroke-width:1.0;"/><path d="M954.9531,359.75 L954.9531,366.4063 L956.6719,366.4063 Q957.2813,366.4063 957.5469,366.6406 Q957.8125,366.875 957.8125,367.2656 Q957.8125,367.6406 957.5469,367.875 Q957.2813,368.1094 956.6719,368.1094 L951.5313,368.1094 Q950.9219,368.1094 950.6563,367.875 Q950.3906,367.6406 950.3906,367.25 Q950.3906,366.875 950.6563,366.6406 Q950.9219,366.4063 951.5313,366.4063 L953.25,366.4063 L953.25,359.75 L951.5313,359.75 Q950.9219,359.75 950.6563,359.5156 Q950.3906,359.2813 950.3906,358.8906 Q950.3906,358.5156 950.6563,358.2813 Q950.9219,358.0469 951.5313,358.0469 L956.6719,358.0469 Q957.2813,358.0469 957.5469,358.2813 Q957.8125,358.5156 957.8125,358.8906 Q957.8125,359.2813 957.5469,359.5156 Q957.2813,359.75 956.6719,359.75 L954.9531,359.75 Z " fill="#000000"/><text fill="#000000" font-family="sans-serif" font-size="14" font-style="italic" lengthAdjust="spacing" textLength="110.5029" x="968" y="368.8379">DayCountOptions</text><line style="stroke:#181818;stroke-width:0.5;" x1="940" x2="1080.5029" y1="379.1094" y2="379.1094"/><text fill="#000000" font-family="sans-serif" font-size="14" lengthAdjust="spacing" textLength="121.4199" x="945" y="397.6426">eomRule?: boolean</text><text fill="#000000" font-family="sans-serif" font-size="14" lengthAdjust="spacing" textLength="124.5166" x="945" y="415.252">frequency?: number</text><line style="stroke:#181818;stroke-width:0.5;" x1="940" x2="1080.5029" y1="422.3281" y2="422.3281"/></g><g id="elem_GMN15"><path d="M1117,367.1094 L1117,384.6094 L1082.09,388.6094 L1117,392.6094 L1117,409.8125 A0,0 0 0 0 1117,409.8125 L1333.8252,409.8125 A0,0 0 0 0 1333.8252,409.8125 L1333.8252,377.1094 L1323.8252,367.1094 L1117,367.1094 A0,0 0 0 0 1117,367.1094 " fill="#FEFFDD" style="stroke:#181818;stroke-width:0.5;"/><path d="M1323.8252,367.1094 L1323.8252,377.1094 L1333.8252,377.1094 L1323.8252,367.1094 " fill="#FEFFDD" style="stroke:#181818;stroke-width:0.5;"/><text fill="#000000" font-family="sans-serif" font-size="13" lengthAdjust="spacing" textLength="7.2236" x="1123" y="385.6045">&#160;&#160;</text><text fill="#000000" font-family="sans-serif" font-size="13" lengthAdjust="spacing" textLength="195.8252" x="1123" y="401.9561">Options for day-count calculations</text></g><!--class DayCountRequest--><g id="elem_DayCountRequest"><rect codeLine="49" fill="#F1F1F1" height="118.4375" id="DayCountRequest" rx="2.5" ry="2.5" style="stroke:#181818;stroke-width:0.5;" width="220.5781" x="817" y="89.6094"/><ellipse cx="865.8394" cy="105.6094" fill="#B4A7E5" rx="11" ry="11" style="stroke:#181818;stroke-width:1.0;"/><path d="M866.7925,102.25 L866.7925,108.9063 L868.5112,108.9063 Q869.1206,108.9063 869.3862,109.1406 Q869.6519,109.375 869.6519,109.7656 Q869.6519,110.1406 869.3862,110.375 Q869.1206,110.6094 868.5112,110.6094 L863.3706,110.6094 Q862.7612,110.6094 862.4956,110.375 Q862.23,110.1406 862.23,109.75 Q862.23,109.375 862.4956,109.1406 Q862.7612,108.9063 863.3706,108.9063 L865.0894,108.9063 L865.0894,102.25 L863.3706,102.25 Q862.7612,102.25 862.4956,102.0156 Q862.23,101.7813 862.23,101.3906 Q862.23,101.0156 862.4956,100.7813 Q862.7612,100.5469 863.3706,100.5469 L868.5112,100.5469 Q869.1206,100.5469 869.3862,100.7813 Q869.6519,101.0156 869.6519,101.3906 Q869.6519,101.7813 869.3862,102.0156 Q869.1206,102.25 868.5112,102.25 L866.7925,102.25 Z " fill="#000000"/><text fill="#000000" font-family="sans-serif" font-size="14" font-style="italic" lengthAdjust="spacing" textLength="114.3994" x="886.3394" y="111.3379">DayCountRequest</text><line style="stroke:#181818;stroke-width:0.5;" x1="818" x2="1036.5781" y1="121.6094" y2="121.6094"/><text fill="#000000" font-family="sans-serif" font-size="14" lengthAdjust="spacing" textLength="100.3721" x="823" y="140.1426">pairs: DatePair[]</text><text fill="#000000" font-family="sans-serif" font-size="14" lengthAdjust="spacing" textLength="208.5781" x="823" y="157.752">convention: DayCountConvention</text><text fill="#000000" font-family="sans-serif" font-size="14" lengthAdjust="spacing" textLength="171.2129" x="823" y="175.3613">options?: DayCountOptions</text><text fill="#000000" font-family="sans-serif" font-size="14" lengthAdjust="spacing" textLength="94.9307" x="823" y="192.9707">version?: string</text><line style="stroke:#181818;stroke-width:0.5;" x1="818" x2="1036.5781" y1="200.0469" y2="200.0469"/></g><g id="elem_GMN19"><path d="M1073,127.1094 L1073,144.6094 L1038.41,148.6094 L1073,152.6094 L1073,169.8125 A0,0 0 0 0 1073,169.8125 L1380.1968,169.8125 A0,0 0 0 0 1380.1968,169.8125 L1380.1968,137.1094 L1370.1968,127.1094 L1073,127.1094 A0,0 0 0 0 1073,127.1094 " fill="#FEFFDD" style="stroke:#181818;stroke-width:0.5;"/><path d="M1370.1968,127.1094 L1370.1968,137.1094 L1380.1968,137.1094 L1370.1968,127.1094 " fill="#FEFFDD" style="stroke:#181818;stroke-width:0.5;"/><text fill="#000000" font-family="sans-serif" font-size="13" lengthAdjust="spacing" textLength="7.2236" x="1079" y="145.6045">&#160;&#160;</text><text fill="#000000" font-family="sans-serif" font-size="13" lengthAdjust="spacing" textLength="286.1968" x="1079" y="161.9561">Request body for /api/daycount/v1/count endpoint</text></g><!--class DayCountResponse--><g id="elem_DayCountResponse"><rect codeLine="60" fill="#F1F1F1" height="100.8281" id="DayCountResponse" rx="2.5" ry="2.5" style="stroke:#181818;stroke-width:0.5;" width="220.5781" x="1415" y="98.1094"/><ellipse cx="1458.477" cy="114.1094" fill="#B4A7E5" rx="11" ry="11" style="stroke:#181818;stroke-width:1.0;"/><path d="M1459.4301,110.75 L1459.4301,117.4063 L1461.1489,117.4063 Q1461.7583,117.4063 1462.0239,117.6406 Q1462.2895,117.875 1462.2895,118.2656 Q1462.2895,118.6406 1462.0239,118.875 Q1461.7583,119.1094 1461.1489,119.1094 L1456.0083,119.1094 Q1455.3989,119.1094 1455.1333,118.875 Q1454.8676,118.6406 1454.8676,118.25 Q1454.8676,117.875 1455.1333,117.6406 Q1455.3989,117.4063 1456.0083,117.4063 L1457.727,117.4063 L1457.727,110.75 L1456.0083,110.75 Q1455.3989,110.75 1455.1333,110.5156 Q1454.8676,110.2813 1454.8676,109.8906 Q1454.8676,109.5156 1455.1333,109.2813 Q1455.3989,109.0469 1456.0083,109.0469 L1461.1489,109.0469 Q1461.7583,109.0469 1462.0239,109.2813 Q1462.2895,109.5156 1462.2895,109.8906 Q1462.2895,110.2813 1462.0239,110.5156 Q1461.7583,110.75 1461.1489,110.75 L1459.4301,110.75 Z " fill="#000000"/><text fill="#000000" font-family="sans-serif" font-size="14" font-style="italic" lengthAdjust="spacing" textLength="125.2959" x="1478.8052" y="119.8379">DayCountResponse</text><line style="stroke:#181818;stroke-width:0.5;" x1="1416" x2="1634.5781" y1="130.1094" y2="130.1094"/><text fill="#000000" font-family="sans-serif" font-size="14" lengthAdjust="spacing" textLength="158.7305" x="1421" y="148.6426">results: DayCountResult[]</text><text fill="#000000" font-family="sans-serif" font-size="14" lengthAdjust="spacing" textLength="208.5781" x="1421" y="166.252">convention: DayCountConvention</text><text fill="#000000" font-family="sans-serif" font-size="14" lengthAdjust="spacing" textLength="87.1445" x="1421" y="183.8613">version: string</text><line style="stroke:#181818;stroke-width:0.5;" x1="1416" x2="1634.5781" y1="190.9375" y2="190.9375"/></g><g id="elem_GMN23"><path d="M1671,127.1094 L1671,144.6094 L1636.11,148.6094 L1671,152.6094 L1671,169.8125 A0,0 0 0 0 1671,169.8125 L1988.3149,169.8125 A0,0 0 0 0 1988.3149,169.8125 L1988.3149,137.1094 L1978.3149,127.1094 L1671,127.1094 A0,0 0 0 0 1671,127.1094 " fill="#FEFFDD" style="stroke:#181818;stroke-width:0.5;"/><path d="M1978.3149,127.1094 L1978.3149,137.1094 L1988.3149,137.1094 L1978.3149,127.1094 " fill="#FEFFDD" style="stroke:#181818;stroke-width:0.5;"/><text fill="#000000" font-family="sans-serif" font-size="13" lengthAdjust="spacing" textLength="7.2236" x="1677" y="145.6045">&#160;&#160;</text><text fill="#000000" font-family="sans-serif" font-size="13" lengthAdjust="spacing" textLength="296.3149" x="1677" y="161.9561">Response body for /api/daycount/v1/count endpoint</text></g><!--class DayCountResult--><g id="elem_DayCountResult"><rect codeLine="70" fill="#F1F1F1" height="100.8281" id="DayCountResult" rx="2.5" ry="2.5" style="stroke:#181818;stroke-width:0.5;" width="145.0547" x="1453" y="338.1094"/><ellipse cx="1473.0027" cy="354.1094" fill="#B4A7E5" rx="11" ry="11" style="stroke:#181818;stroke-width:1.0;"/><path d="M1473.9559,350.75 L1473.9559,357.4063 L1475.6746,357.4063 Q1476.284,357.4063 1476.5496,357.6406 Q1476.8152,357.875 1476.8152,358.2656 Q1476.8152,358.6406 1476.5496,358.875 Q1476.284,359.1094 1475.6746,359.1094 L1470.534,359.1094 Q1469.9246,359.1094 1469.659,358.875 Q1469.3934,358.6406 1469.3934,358.25 Q1469.3934,357.875 1469.659,357.6406 Q1469.9246,357.4063 1470.534,357.4063 L1472.2527,357.4063 L1472.2527,350.75 L1470.534,350.75 Q1469.9246,350.75 1469.659,350.5156 Q1469.3934,350.2813 1469.3934,349.8906 Q1469.3934,349.5156 1469.659,349.2813 Q1469.9246,349.0469 1470.534,349.0469 L1475.6746,349.0469 Q1476.284,349.0469 1476.5496,349.2813 Q1476.8152,349.5156 1476.8152,349.8906 Q1476.8152,350.2813 1476.5496,350.5156 Q1476.284,350.75 1475.6746,350.75 L1473.9559,350.75 Z " fill="#000000"/><text fill="#000000" font-family="sans-serif" font-size="14" font-style="italic" lengthAdjust="spacing" textLength="101.9375" x="1488.1145" y="359.8379">DayCountResult</text><line style="stroke:#181818;stroke-width:0.5;" x1="1454" x2="1597.0547" y1="370.1094" y2="370.1094"/><text fill="#000000" font-family="sans-serif" font-size="14" lengthAdjust="spacing" textLength="84.8203" x="1459" y="388.6426">days: number</text><text fill="#000000" font-family="sans-serif" font-size="14" lengthAdjust="spacing" textLength="133.0547" x="1459" y="406.252">yearFraction: number</text><text fill="#000000" font-family="sans-serif" font-size="14" lengthAdjust="spacing" textLength="87.9307" x="1459" y="423.8613">basis: number</text><line style="stroke:#181818;stroke-width:0.5;" x1="1454" x2="1597.0547" y1="430.9375" y2="430.9375"/></g><g id="elem_GMN27"><path d="M1633.5,367.1094 L1633.5,384.6094 L1598.06,388.6094 L1633.5,392.6094 L1633.5,409.8125 A0,0 0 0 0 1633.5,409.8125 L1851.7788,409.8125 A0,0 0 0 0 1851.7788,409.8125 L1851.7788,377.1094 L1841.7788,367.1094 L1633.5,367.1094 A0,0 0 0 0 1633.5,367.1094 " fill="#FEFFDD" style="stroke:#181818;stroke-width:0.5;"/><path d="M1841.7788,367.1094 L1841.7788,377.1094 L1851.7788,377.1094 L1841.7788,367.1094 " fill="#FEFFDD" style="stroke:#181818;stroke-width:0.5;"/><text fill="#000000" font-family="sans-serif" font-size="13" lengthAdjust="spacing" textLength="7.2236" x="1639.5" y="385.6045">&#160;&#160;</text><text fill="#000000" font-family="sans-serif" font-size="13" lengthAdjust="spacing" textLength="197.2788" x="1639.5" y="401.9561">Single day-count calculation result</text></g><!--class Env--><g id="elem_Env"><rect codeLine="80" fill="#F1F1F1" height="83.2188" id="Env" rx="2.5" ry="2.5" style="stroke:#181818;stroke-width:0.5;" width="224.3721" x="2023.5" y="107.1094"/><ellipse cx="2119.374" cy="123.1094" fill="#B4A7E5" rx="11" ry="11" style="stroke:#181818;stroke-width:1.0;"/><path d="M2120.3271,119.75 L2120.3271,126.4063 L2122.0459,126.4063 Q2122.6553,126.4063 2122.9209,126.6406 Q2123.1865,126.875 2123.1865,127.2656 Q2123.1865,127.6406 2122.9209,127.875 Q2122.6553,128.1094 2122.0459,128.1094 L2116.9053,128.1094 Q2116.2959,128.1094 2116.0303,127.875 Q2115.7646,127.6406 2115.7646,127.25 Q2115.7646,126.875 2116.0303,126.6406 Q2116.2959,126.4063 2116.9053,126.4063 L2118.624,126.4063 L2118.624,119.75 L2116.9053,119.75 Q2116.2959,119.75 2116.0303,119.5156 Q2115.7646,119.2813 2115.7646,118.8906 Q2115.7646,118.5156 2116.0303,118.2813 Q2116.2959,118.0469 2116.9053,118.0469 L2122.0459,118.0469 Q2122.6553,118.0469 2122.9209,118.2813 Q2123.1865,118.5156 2123.1865,118.8906 Q2123.1865,119.2813 2122.9209,119.5156 Q2122.6553,119.75 2122.0459,119.75 L2120.3271,119.75 Z " fill="#000000"/><text fill="#000000" font-family="sans-serif" font-size="14" font-style="italic" lengthAdjust="spacing" textLength="24.124" x="2139.874" y="128.8379">Env</text><line style="stroke:#181818;stroke-width:0.5;" x1="2024.5" x2="2246.8721" y1="139.1094" y2="139.1094"/><text fill="#000000" font-family="sans-serif" font-size="14" lengthAdjust="spacing" textLength="212.3721" x="2029.5" y="157.6426">INTERNAL_JWT_SECRET: string</text><text fill="#000000" font-family="sans-serif" font-size="14" lengthAdjust="spacing" textLength="153.248" x="2029.5" y="175.252">ENVIRONMENT?: string</text><line style="stroke:#181818;stroke-width:0.5;" x1="2024.5" x2="2246.8721" y1="182.3281" y2="182.3281"/></g><g id="elem_GMN31"><path d="M2283,127.1094 L2283,144.6094 L2247.74,148.6094 L2283,152.6094 L2283,169.8125 A0,0 0 0 0 2283,169.8125 L2535.9434,169.8125 A0,0 0 0 0 2535.9434,169.8125 L2535.9434,137.1094 L2525.9434,127.1094 L2283,127.1094 A0,0 0 0 0 2283,127.1094 " fill="#FEFFDD" style="stroke:#181818;stroke-width:0.5;"/><path d="M2525.9434,127.1094 L2525.9434,137.1094 L2535.9434,137.1094 L2525.9434,127.1094 " fill="#FEFFDD" style="stroke:#181818;stroke-width:0.5;"/><text fill="#000000" font-family="sans-serif" font-size="13" lengthAdjust="spacing" textLength="7.2236" x="2289" y="145.6045">&#160;&#160;</text><text fill="#000000" font-family="sans-serif" font-size="13" lengthAdjust="spacing" textLength="231.9434" x="2289" y="161.9561">Cloudflare Worker environment bindings</text></g><!--class ErrorResponse--><g id="elem_ErrorResponse"><rect codeLine="89" fill="#F1F1F1" height="206.4844" id="ErrorResponse" rx="2.5" ry="2.5" style="stroke:#181818;stroke-width:0.5;" width="126.1514" x="2571.5" y="45.6094"/><ellipse cx="2586.5" cy="61.6094" fill="#B4A7E5" rx="11" ry="11" style="stroke:#181818;stroke-width:1.0;"/><path d="M2587.4531,58.25 L2587.4531,64.9063 L2589.1719,64.9063 Q2589.7813,64.9063 2590.0469,65.1406 Q2590.3125,65.375 2590.3125,65.7656 Q2590.3125,66.1406 2590.0469,66.375 Q2589.7813,66.6094 2589.1719,66.6094 L2584.0313,66.6094 Q2583.4219,66.6094 2583.1563,66.375 Q2582.8906,66.1406 2582.8906,65.75 Q2582.8906,65.375 2583.1563,65.1406 Q2583.4219,64.9063 2584.0313,64.9063 L2585.75,64.9063 L2585.75,58.25 L2584.0313,58.25 Q2583.4219,58.25 2583.1563,58.0156 Q2582.8906,57.7813 2582.8906,57.3906 Q2582.8906,57.0156 2583.1563,56.7813 Q2583.4219,56.5469 2584.0313,56.5469 L2589.1719,56.5469 Q2589.7813,56.5469 2590.0469,56.7813 Q2590.3125,57.0156 2590.3125,57.3906 Q2590.3125,57.7813 2590.0469,58.0156 Q2589.7813,58.25 2589.1719,58.25 L2587.4531,58.25 Z " fill="#000000"/><text fill="#000000" font-family="sans-serif" font-size="14" font-style="italic" lengthAdjust="spacing" textLength="94.1514" x="2600.5" y="67.3379">ErrorResponse</text><line style="stroke:#181818;stroke-width:0.5;" x1="2572.5" x2="2696.6514" y1="77.6094" y2="77.6094"/><text fill="#000000" font-family="sans-serif" font-size="14" lengthAdjust="spacing" textLength="68.4756" x="2577.5" y="96.1426">type: string</text><text fill="#000000" font-family="sans-serif" font-size="14" lengthAdjust="spacing" textLength="63.7998" x="2577.5" y="113.752">title: string</text><text fill="#000000" font-family="sans-serif" font-size="14" lengthAdjust="spacing" textLength="92.5996" x="2577.5" y="131.3613">status: number</text><text fill="#000000" font-family="sans-serif" font-size="14" lengthAdjust="spacing" textLength="75.4824" x="2577.5" y="148.9707">detail: string</text><text fill="#000000" font-family="sans-serif" font-size="14" lengthAdjust="spacing" textLength="101.9443" x="2577.5" y="166.5801">instance?: string</text><text fill="#000000" font-family="sans-serif" font-size="14" lengthAdjust="spacing" textLength="98.4238" x="2577.5" y="184.1895">errors?: Array&lt;{</text><text fill="#000000" font-family="sans-serif" font-size="14" lengthAdjust="spacing" textLength="79.3721" x="2577.5" y="201.7988">field?: string;</text><text fill="#000000" font-family="sans-serif" font-size="14" lengthAdjust="spacing" textLength="102.71" x="2577.5" y="219.4082">message: string;</text><text fill="#000000" font-family="sans-serif" font-size="14" lengthAdjust="spacing" textLength="12.8516" x="2577.5" y="237.0176">}&gt;</text><line style="stroke:#181818;stroke-width:0.5;" x1="2572.5" x2="2696.6514" y1="244.0938" y2="244.0938"/></g><g id="elem_GMN35"><path d="M2732.5,127.1094 L2732.5,144.6094 L2697.75,148.6094 L2732.5,152.6094 L2732.5,169.8125 A0,0 0 0 0 2732.5,169.8125 L3106.8359,169.8125 A0,0 0 0 0 3106.8359,169.8125 L3106.8359,137.1094 L3096.8359,127.1094 L2732.5,127.1094 A0,0 0 0 0 2732.5,127.1094 " fill="#FEFFDD" style="stroke:#181818;stroke-width:0.5;"/><path d="M3096.8359,127.1094 L3096.8359,137.1094 L3106.8359,137.1094 L3096.8359,127.1094 " fill="#FEFFDD" style="stroke:#181818;stroke-width:0.5;"/><text fill="#000000" font-family="sans-serif" font-size="13" lengthAdjust="spacing" textLength="7.2236" x="2738.5" y="145.6045">&#160;&#160;</text><text fill="#000000" font-family="sans-serif" font-size="13" lengthAdjust="spacing" textLength="353.3359" x="2738.5" y="161.9561">Standard error response following RFC 7807 Problem Details</text></g><!--class index--><g id="elem_index"><rect codeLine="105" fill="#F1F1F1" height="93.9219" id="index" rx="2.5" ry="2.5" style="stroke:#181818;stroke-width:0.5;" width="795.6104" x="3141.5" y="101.6094"/><ellipse cx="3509.3696" cy="122.9609" fill="#ADD1B2" rx="11" ry="11" style="stroke:#181818;stroke-width:1.0;"/><path d="M3512.1353,118.8359 Q3512.2915,118.6172 3512.479,118.5078 Q3512.6665,118.3984 3512.8853,118.3984 Q3513.2603,118.3984 3513.4946,118.6641 Q3513.729,118.9141 3513.729,119.5234 L3513.729,120.9766 Q3513.729,121.5859 3513.4946,121.8516 Q3513.2603,122.1172 3512.8853,122.1172 Q3512.5415,122.1172 3512.3384,121.9141 Q3512.1353,121.7266 3512.0259,121.2109 Q3511.979,120.8516 3511.7915,120.6641 Q3511.4634,120.2891 3510.854,120.0703 Q3510.2446,119.8516 3509.6196,119.8516 Q3508.854,119.8516 3508.2134,120.1797 Q3507.5884,120.5078 3507.0884,121.2578 Q3506.604,122.0078 3506.604,123.0391 L3506.604,124.1328 Q3506.604,125.3672 3507.4946,126.1953 Q3508.3853,127.0078 3509.979,127.0078 Q3510.9165,127.0078 3511.5728,126.7578 Q3511.9634,126.6016 3512.3853,126.1641 Q3512.6509,125.8984 3512.7915,125.8203 Q3512.9478,125.7422 3513.1509,125.7422 Q3513.479,125.7422 3513.729,126.0078 Q3513.9946,126.2578 3513.9946,126.6016 Q3513.9946,126.9453 3513.6509,127.3516 Q3513.1509,127.9297 3512.354,128.2578 Q3511.2759,128.7109 3509.979,128.7109 Q3508.4634,128.7109 3507.2603,128.0859 Q3506.2759,127.5859 3505.5884,126.5234 Q3504.9009,125.4453 3504.9009,124.1641 L3504.9009,123.0078 Q3504.9009,121.6797 3505.5103,120.5391 Q3506.1353,119.3828 3507.229,118.7734 Q3508.3228,118.1484 3509.5571,118.1484 Q3510.2915,118.1484 3510.9321,118.3203 Q3511.5884,118.4766 3512.1353,118.8359 Z " fill="#000000"/><text fill="#000000" font-family="sans-serif" font-size="12" font-style="italic" lengthAdjust="spacing" textLength="55.3711" x="3527.8696" y="119.0664">&#171;effectful&#187;</text><text fill="#000000" font-family="sans-serif" font-size="14" lengthAdjust="spacing" textLength="33.4688" x="3538.8208" y="136.2363">index</text><line style="stroke:#181818;stroke-width:0.5;" x1="3142.5" x2="3936.1104" y1="144.3125" y2="144.3125"/><line style="stroke:#181818;stroke-width:0.5;" x1="3142.5" x2="3936.1104" y1="152.3125" y2="152.3125"/><text fill="#000000" font-family="sans-serif" font-size="14" lengthAdjust="spacing" text-decoration="underline" textLength="698.4893" x="3147.5" y="170.8457">-createErrorBody(status: number, title: string, detail: string, errors?: ValidationError[] | undefined): ErrorResponse</text><text fill="#000000" font-family="sans-serif" font-size="14" lengthAdjust="spacing" text-decoration="underline" textLength="783.6104" x="3147.5" y="188.4551">-calculateSingle(startStr: string, endStr: string, convention: DayCountConvention, options: DayCountOptions): DayCountResult</text></g><g id="elem_GMN39"><path d="M3973,119.1094 L3973,144.6094 L3937.74,148.6094 L3973,152.6094 L3973,178.1641 A0,0 0 0 0 3973,178.1641 L4124.0825,178.1641 A0,0 0 0 0 4124.0825,178.1641 L4124.0825,129.1094 L4114.0825,119.1094 L3973,119.1094 A0,0 0 0 0 3973,119.1094 " fill="#FEFFDD" style="stroke:#181818;stroke-width:0.5;"/><path d="M4114.0825,119.1094 L4114.0825,129.1094 L4124.0825,129.1094 L4114.0825,119.1094 " fill="#FEFFDD" style="stroke:#181818;stroke-width:0.5;"/><text fill="#000000" font-family="sans-serif" font-size="13" lengthAdjust="spacing" textLength="80.939" x="3979" y="137.6045">Module: index</text><text fill="#000000" font-family="sans-serif" font-size="13" lengthAdjust="spacing" textLength="3.6118" x="3979" y="153.9561">&#160;</text><text fill="#000000" font-family="sans-serif" font-size="13" lengthAdjust="spacing" textLength="130.0825" x="3979" y="170.3076">Stereotype: &#171;effectful&#187;</text></g><!--class logger--><g id="elem_logger"><rect codeLine="115" fill="#F1F1F1" height="76.3125" id="logger" rx="2.5" ry="2.5" style="stroke:#181818;stroke-width:0.5;" width="163.375" x="4159" y="110.6094"/><ellipse cx="4210.752" cy="131.9609" fill="#ADD1B2" rx="11" ry="11" style="stroke:#181818;stroke-width:1.0;"/><path d="M4213.5176,127.8359 Q4213.6738,127.6172 4213.8613,127.5078 Q4214.0488,127.3984 4214.2676,127.3984 Q4214.6426,127.3984 4214.877,127.6641 Q4215.1113,127.9141 4215.1113,128.5234 L4215.1113,129.9766 Q4215.1113,130.5859 4214.877,130.8516 Q4214.6426,131.1172 4214.2676,131.1172 Q4213.9238,131.1172 4213.7207,130.9141 Q4213.5176,130.7266 4213.4082,130.2109 Q4213.3613,129.8516 4213.1738,129.6641 Q4212.8457,129.2891 4212.2363,129.0703 Q4211.627,128.8516 4211.002,128.8516 Q4210.2363,128.8516 4209.5957,129.1797 Q4208.9707,129.5078 4208.4707,130.2578 Q4207.9863,131.0078 4207.9863,132.0391 L4207.9863,133.1328 Q4207.9863,134.3672 4208.877,135.1953 Q4209.7676,136.0078 4211.3613,136.0078 Q4212.2988,136.0078 4212.9551,135.7578 Q4213.3457,135.6016 4213.7676,135.1641 Q4214.0332,134.8984 4214.1738,134.8203 Q4214.3301,134.7422 4214.5332,134.7422 Q4214.8613,134.7422 4215.1113,135.0078 Q4215.377,135.2578 4215.377,135.6016 Q4215.377,135.9453 4215.0332,136.3516 Q4214.5332,136.9297 4213.7363,137.2578 Q4212.6582,137.7109 4211.3613,137.7109 Q4209.8457,137.7109 4208.6426,137.0859 Q4207.6582,136.5859 4206.9707,135.5234 Q4206.2832,134.4453 4206.2832,133.1641 L4206.2832,132.0078 Q4206.2832,130.6797 4206.8926,129.5391 Q4207.5176,128.3828 4208.6113,127.7734 Q4209.7051,127.1484 4210.9395,127.1484 Q4211.6738,127.1484 4212.3145,127.3203 Q4212.9707,127.4766 4213.5176,127.8359 Z " fill="#000000"/><text fill="#000000" font-family="sans-serif" font-size="12" font-style="italic" lengthAdjust="spacing" textLength="55.3711" x="4229.252" y="128.0664">&#171;effectful&#187;</text><text fill="#000000" font-family="sans-serif" font-size="14" lengthAdjust="spacing" textLength="38.917" x="4237.479" y="145.2363">logger</text><line style="stroke:#181818;stroke-width:0.5;" x1="4160" x2="4321.375" y1="153.3125" y2="153.3125"/><line style="stroke:#181818;stroke-width:0.5;" x1="4160" x2="4321.375" y1="161.3125" y2="161.3125"/><text fill="#000000" font-family="sans-serif" font-size="14" lengthAdjust="spacing" text-decoration="underline" textLength="151.375" x="4165" y="179.8457">+createLogger(): Logger</text></g><g id="elem_GMN43"><path d="M4357,119.1094 L4357,144.6094 L4322.2,148.6094 L4357,152.6094 L4357,178.1641 A0,0 0 0 0 4357,178.1641 L4508.0825,178.1641 A0,0 0 0 0 4508.0825,178.1641 L4508.0825,129.1094 L4498.0825,119.1094 L4357,119.1094 A0,0 0 0 0 4357,119.1094 " fill="#FEFFDD" style="stroke:#181818;stroke-width:0.5;"/><path d="M4498.0825,119.1094 L4498.0825,129.1094 L4508.0825,129.1094 L4498.0825,119.1094 " fill="#FEFFDD" style="stroke:#181818;stroke-width:0.5;"/><text fill="#000000" font-family="sans-serif" font-size="13" lengthAdjust="spacing" textLength="85.998" x="4363" y="137.6045">Module: logger</text><text fill="#000000" font-family="sans-serif" font-size="13" lengthAdjust="spacing" textLength="3.6118" x="4363" y="153.9561">&#160;</text><text fill="#000000" font-family="sans-serif" font-size="13" lengthAdjust="spacing" textLength="130.0825" x="4363" y="170.3076">Stereotype: &#171;effectful&#187;</text></g><!--class scopes--><g id="elem_scopes"><rect codeLine="124" fill="#F1F1F1" height="111.5313" id="scopes" rx="2.5" ry="2.5" style="stroke:#181818;stroke-width:0.5;" width="635.7178" x="4543.5" y="92.6094"/><ellipse cx="4831.4233" cy="113.9609" fill="#ADD1B2" rx="11" ry="11" style="stroke:#181818;stroke-width:1.0;"/><path d="M4834.189,109.8359 Q4834.3452,109.6172 4834.5327,109.5078 Q4834.7202,109.3984 4834.939,109.3984 Q4835.314,109.3984 4835.5483,109.6641 Q4835.7827,109.9141 4835.7827,110.5234 L4835.7827,111.9766 Q4835.7827,112.5859 4835.5483,112.8516 Q4835.314,113.1172 4834.939,113.1172 Q4834.5952,113.1172 4834.3921,112.9141 Q4834.189,112.7266 4834.0796,112.2109 Q4834.0327,111.8516 4833.8452,111.6641 Q4833.5171,111.2891 4832.9077,111.0703 Q4832.2983,110.8516 4831.6733,110.8516 Q4830.9077,110.8516 4830.2671,111.1797 Q4829.6421,111.5078 4829.1421,112.2578 Q4828.6577,113.0078 4828.6577,114.0391 L4828.6577,115.1328 Q4828.6577,116.3672 4829.5483,117.1953 Q4830.439,118.0078 4832.0327,118.0078 Q4832.9702,118.0078 4833.6265,117.7578 Q4834.0171,117.6016 4834.439,117.1641 Q4834.7046,116.8984 4834.8452,116.8203 Q4835.0015,116.7422 4835.2046,116.7422 Q4835.5327,116.7422 4835.7827,117.0078 Q4836.0483,117.2578 4836.0483,117.6016 Q4836.0483,117.9453 4835.7046,118.3516 Q4835.2046,118.9297 4834.4077,119.2578 Q4833.3296,119.7109 4832.0327,119.7109 Q4830.5171,119.7109 4829.314,119.0859 Q4828.3296,118.5859 4827.6421,117.5234 Q4826.9546,116.4453 4826.9546,115.1641 L4826.9546,114.0078 Q4826.9546,112.6797 4827.564,111.5391 Q4828.189,110.3828 4829.2827,109.7734 Q4830.3765,109.1484 4831.6108,109.1484 Q4832.3452,109.1484 4832.9858,109.3203 Q4833.6421,109.4766 4834.189,109.8359 Z " fill="#000000"/><text fill="#000000" font-family="sans-serif" font-size="12" font-style="italic" lengthAdjust="spacing" textLength="55.3711" x="4849.9233" y="110.0664">&#171;effectful&#187;</text><text fill="#000000" font-family="sans-serif" font-size="14" lengthAdjust="spacing" textLength="44.3584" x="4855.4297" y="127.2363">scopes</text><line style="stroke:#181818;stroke-width:0.5;" x1="4544.5" x2="5178.2178" y1="135.3125" y2="135.3125"/><line style="stroke:#181818;stroke-width:0.5;" x1="4544.5" x2="5178.2178" y1="143.3125" y2="143.3125"/><text fill="#000000" font-family="sans-serif" font-size="14" lengthAdjust="spacing" text-decoration="underline" textLength="610.4834" x="4549.5" y="161.8457">+requireScopes(requiredScopes: string[]): (c: Context&lt;any, any, {}&gt;, next: Next) =&gt; Promise&lt;void&gt;</text><text fill="#000000" font-family="sans-serif" font-size="14" lengthAdjust="spacing" text-decoration="underline" textLength="623.7178" x="4549.5" y="179.4551">+requireAnyScope(allowedScopes: string[]): (c: Context&lt;any, any, {}&gt;, next: Next) =&gt; Promise&lt;void&gt;</text><text fill="#000000" font-family="sans-serif" font-size="14" lengthAdjust="spacing" text-decoration="underline" textLength="577.7871" x="4549.5" y="197.0645">+requireRole(allowedRoles: string[]): (c: Context&lt;any, any, {}&gt;, next: Next) =&gt; Promise&lt;void&gt;</text></g><g id="elem_GMN47"><path d="M5215,119.1094 L5215,144.6094 L5179.74,148.6094 L5215,152.6094 L5215,178.1641 A0,0 0 0 0 5215,178.1641 L5366.0825,178.1641 A0,0 0 0 0 5366.0825,178.1641 L5366.0825,129.1094 L5356.0825,119.1094 L5215,119.1094 A0,0 0 0 0 5215,119.1094 " fill="#FEFFDD" style="stroke:#181818;stroke-width:0.5;"/><path d="M5356.0825,119.1094 L5356.0825,129.1094 L5366.0825,129.1094 L5356.0825,119.1094 " fill="#FEFFDD" style="stroke:#181818;stroke-width:0.5;"/><text fill="#000000" font-family="sans-serif" font-size="13" lengthAdjust="spacing" textLength="91.0508" x="5221" y="137.6045">Module: scopes</text><text fill="#000000" font-family="sans-serif" font-size="13" lengthAdjust="spacing" textLength="3.6118" x="5221" y="153.9561">&#160;</text><text fill="#000000" font-family="sans-serif" font-size="13" lengthAdjust="spacing" textLength="130.0825" x="5221" y="170.3076">Stereotype: &#171;effectful&#187;</text></g><!--class utils--><g id="elem_utils"><rect codeLine="135" fill="#F1F1F1" height="164.3594" id="utils" rx="2.5" ry="2.5" style="stroke:#181818;stroke-width:0.5;" width="500.3115" x="5401.5" y="66.6094"/><ellipse cx="5621.7202" cy="87.9609" fill="#ADD1B2" rx="11" ry="11" style="stroke:#181818;stroke-width:1.0;"/><path d="M5624.4858,83.8359 Q5624.6421,83.6172 5624.8296,83.5078 Q5625.0171,83.3984 5625.2358,83.3984 Q5625.6108,83.3984 5625.8452,83.6641 Q5626.0796,83.9141 5626.0796,84.5234 L5626.0796,85.9766 Q5626.0796,86.5859 5625.8452,86.8516 Q5625.6108,87.1172 5625.2358,87.1172 Q5624.8921,87.1172 5624.689,86.9141 Q5624.4858,86.7266 5624.3765,86.2109 Q5624.3296,85.8516 5624.1421,85.6641 Q5623.814,85.2891 5623.2046,85.0703 Q5622.5952,84.8516 5621.9702,84.8516 Q5621.2046,84.8516 5620.564,85.1797 Q5619.939,85.5078 5619.439,86.2578 Q5618.9546,87.0078 5618.9546,88.0391 L5618.9546,89.1328 Q5618.9546,90.3672 5619.8452,91.1953 Q5620.7358,92.0078 5622.3296,92.0078 Q5623.2671,92.0078 5623.9233,91.7578 Q5624.314,91.6016 5624.7358,91.1641 Q5625.0015,90.8984 5625.1421,90.8203 Q5625.2983,90.7422 5625.5015,90.7422 Q5625.8296,90.7422 5626.0796,91.0078 Q5626.3452,91.2578 5626.3452,91.6016 Q5626.3452,91.9453 5626.0015,92.3516 Q5625.5015,92.9297 5624.7046,93.2578 Q5623.6265,93.7109 5622.3296,93.7109 Q5620.814,93.7109 5619.6108,93.0859 Q5618.6265,92.5859 5617.939,91.5234 Q5617.2515,90.4453 5617.2515,89.1641 L5617.2515,88.0078 Q5617.2515,86.6797 5617.8608,85.5391 Q5618.4858,84.3828 5619.5796,83.7734 Q5620.6733,83.1484 5621.9077,83.1484 Q5622.6421,83.1484 5623.2827,83.3203 Q5623.939,83.4766 5624.4858,83.8359 Z " fill="#000000"/><text fill="#000000" font-family="sans-serif" font-size="12" font-style="italic" lengthAdjust="spacing" textLength="55.3711" x="5640.2202" y="84.0664">&#171;effectful&#187;</text><text fill="#000000" font-family="sans-serif" font-size="14" lengthAdjust="spacing" textLength="24.8965" x="5655.4575" y="101.2363">utils</text><line style="stroke:#181818;stroke-width:0.5;" x1="5402.5" x2="5900.8115" y1="109.3125" y2="109.3125"/><line style="stroke:#181818;stroke-width:0.5;" x1="5402.5" x2="5900.8115" y1="117.3125" y2="117.3125"/><text fill="#000000" font-family="sans-serif" font-size="14" lengthAdjust="spacing" text-decoration="underline" textLength="304.6572" x="5407.5" y="135.8457">+parseDate(dateString: string): DateComponents</text><text fill="#000000" font-family="sans-serif" font-size="14" lengthAdjust="spacing" text-decoration="underline" textLength="228.416" x="5407.5" y="153.4551">+isLeapYear(year: number): boolean</text><text fill="#000000" font-family="sans-serif" font-size="14" lengthAdjust="spacing" text-decoration="underline" textLength="488.3115" x="5407.5" y="171.0645">+actualDaysBetween(start: DateComponents, end: DateComponents): number</text><text fill="#000000" font-family="sans-serif" font-size="14" lengthAdjust="spacing" text-decoration="underline" textLength="337.3262" x="5407.5" y="188.6738">+daysInMonth(year: number, month: number): number</text><text fill="#000000" font-family="sans-serif" font-size="14" lengthAdjust="spacing" text-decoration="underline" textLength="307.7949" x="5407.5" y="206.2832">+isEndOfMonth(date: DateComponents): boolean</text><text fill="#000000" font-family="sans-serif" font-size="14" lengthAdjust="spacing" text-decoration="underline" textLength="456.4014" x="5407.5" y="223.8926">+validateDateOrder(start: DateComponents, end: DateComponents): void</text></g><g id="elem_GMN51"><path d="M5937,119.1094 L5937,144.6094 L5901.73,148.6094 L5937,152.6094 L5937,178.1641 A0,0 0 0 0 5937,178.1641 L6088.0825,178.1641 A0,0 0 0 0 6088.0825,178.1641 L6088.0825,129.1094 L6078.0825,119.1094 L5937,119.1094 A0,0 0 0 0 5937,119.1094 " fill="#FEFFDD" style="stroke:#181818;stroke-width:0.5;"/><path d="M6078.0825,119.1094 L6078.0825,129.1094 L6088.0825,129.1094 L6078.0825,119.1094 " fill="#FEFFDD" style="stroke:#181818;stroke-width:0.5;"/><text fill="#000000" font-family="sans-serif" font-size="13" lengthAdjust="spacing" textLength="72.979" x="5943" y="137.6045">Module: utils</text><text fill="#000000" font-family="sans-serif" font-size="13" lengthAdjust="spacing" textLength="3.6118" x="5943" y="153.9561">&#160;</text><text fill="#000000" font-family="sans-serif" font-size="13" lengthAdjust="spacing" textLength="130.0825" x="5943" y="170.3076">Stereotype: &#171;effectful&#187;</text></g><!--class ValidationError--><g id="elem_ValidationError"><rect codeLine="149" fill="#F1F1F1" height="83.2188" id="ValidationError" rx="2.5" ry="2.5" style="stroke:#181818;stroke-width:0.5;" width="124.5996" x="6123" y="107.1094"/><ellipse cx="6138" cy="123.1094" fill="#B4A7E5" rx="11" ry="11" style="stroke:#181818;stroke-width:1.0;"/><path d="M6138.9531,119.75 L6138.9531,126.4063 L6140.6719,126.4063 Q6141.2813,126.4063 6141.5469,126.6406 Q6141.8125,126.875 6141.8125,127.2656 Q6141.8125,127.6406 6141.5469,127.875 Q6141.2813,128.1094 6140.6719,128.1094 L6135.5313,128.1094 Q6134.9219,128.1094 6134.6563,127.875 Q6134.3906,127.6406 6134.3906,127.25 Q6134.3906,126.875 6134.6563,126.6406 Q6134.9219,126.4063 6135.5313,126.4063 L6137.25,126.4063 L6137.25,119.75 L6135.5313,119.75 Q6134.9219,119.75 6134.6563,119.5156 Q6134.3906,119.2813 6134.3906,118.8906 Q6134.3906,118.5156 6134.6563,118.2813 Q6134.9219,118.0469 6135.5313,118.0469 L6140.6719,118.0469 Q6141.2813,118.0469 6141.5469,118.2813 Q6141.8125,118.5156 6141.8125,118.8906 Q6141.8125,119.2813 6141.5469,119.5156 Q6141.2813,119.75 6140.6719,119.75 L6138.9531,119.75 Z " fill="#000000"/><text fill="#000000" font-family="sans-serif" font-size="14" font-style="italic" lengthAdjust="spacing" textLength="92.5996" x="6152" y="128.8379">ValidationError</text><line style="stroke:#181818;stroke-width:0.5;" x1="6124" x2="6246.5996" y1="139.1094" y2="139.1094"/><text fill="#000000" font-family="sans-serif" font-size="14" lengthAdjust="spacing" textLength="67.6963" x="6129" y="157.6426">field: string</text><text fill="#000000" font-family="sans-serif" font-size="14" lengthAdjust="spacing" textLength="98.8203" x="6129" y="175.252">message: string</text><line style="stroke:#181818;stroke-width:0.5;" x1="6124" x2="6246.5996" y1="182.3281" y2="182.3281"/></g><g id="elem_GMN55"><path d="M6283,127.1094 L6283,144.6094 L6248.03,148.6094 L6283,152.6094 L6283,169.8125 A0,0 0 0 0 6283,169.8125 L6491.8716,169.8125 A0,0 0 0 0 6491.8716,169.8125 L6491.8716,137.1094 L6481.8716,127.1094 L6283,127.1094 A0,0 0 0 0 6283,127.1094 " fill="#FEFFDD" style="stroke:#181818;stroke-width:0.5;"/><path d="M6481.8716,127.1094 L6481.8716,137.1094 L6491.8716,137.1094 L6481.8716,127.1094 " fill="#FEFFDD" style="stroke:#181818;stroke-width:0.5;"/><text fill="#000000" font-family="sans-serif" font-size="13" lengthAdjust="spacing" textLength="7.2236" x="6289" y="145.6045">&#160;&#160;</text><text fill="#000000" font-family="sans-serif" font-size="13" lengthAdjust="spacing" textLength="187.8716" x="6289" y="161.9561">Validation error with field context</text></g><!--class validators--><g id="elem_validators"><rect codeLine="158" fill="#F1F1F1" height="93.9219" id="validators" rx="2.5" ry="2.5" style="stroke:#181818;stroke-width:0.5;" width="411.6084" x="6527.5" y="101.6094"/><ellipse cx="6699.0957" cy="122.9609" fill="#ADD1B2" rx="11" ry="11" style="stroke:#181818;stroke-width:1.0;"/><path d="M6701.8613,118.8359 Q6702.0176,118.6172 6702.2051,118.5078 Q6702.3926,118.3984 6702.6113,118.3984 Q6702.9863,118.3984 6703.2207,118.6641 Q6703.4551,118.9141 6703.4551,119.5234 L6703.4551,120.9766 Q6703.4551,121.5859 6703.2207,121.8516 Q6702.9863,122.1172 6702.6113,122.1172 Q6702.2676,122.1172 6702.0645,121.9141 Q6701.8613,121.7266 6701.752,121.2109 Q6701.7051,120.8516 6701.5176,120.6641 Q6701.1895,120.2891 6700.5801,120.0703 Q6699.9707,119.8516 6699.3457,119.8516 Q6698.5801,119.8516 6697.9395,120.1797 Q6697.3145,120.5078 6696.8145,121.2578 Q6696.3301,122.0078 6696.3301,123.0391 L6696.3301,124.1328 Q6696.3301,125.3672 6697.2207,126.1953 Q6698.1113,127.0078 6699.7051,127.0078 Q6700.6426,127.0078 6701.2988,126.7578 Q6701.6895,126.6016 6702.1113,126.1641 Q6702.377,125.8984 6702.5176,125.8203 Q6702.6738,125.7422 6702.877,125.7422 Q6703.2051,125.7422 6703.4551,126.0078 Q6703.7207,126.2578 6703.7207,126.6016 Q6703.7207,126.9453 6703.377,127.3516 Q6702.877,127.9297 6702.0801,128.2578 Q6701.002,128.7109 6699.7051,128.7109 Q6698.1895,128.7109 6696.9863,128.0859 Q6696.002,127.5859 6695.3145,126.5234 Q6694.627,125.4453 6694.627,124.1641 L6694.627,123.0078 Q6694.627,121.6797 6695.2363,120.5391 Q6695.8613,119.3828 6696.9551,118.7734 Q6698.0488,118.1484 6699.2832,118.1484 Q6700.0176,118.1484 6700.6582,118.3203 Q6701.3145,118.4766 6701.8613,118.8359 Z " fill="#000000"/><text fill="#000000" font-family="sans-serif" font-size="12" font-style="italic" lengthAdjust="spacing" textLength="37.3652" x="6730.8716" y="119.0664">&#171;pure&#187;</text><text fill="#000000" font-family="sans-serif" font-size="14" lengthAdjust="spacing" textLength="59.917" x="6719.5957" y="136.2363">validators</text><line style="stroke:#181818;stroke-width:0.5;" x1="6528.5" x2="6938.1084" y1="144.3125" y2="144.3125"/><line style="stroke:#181818;stroke-width:0.5;" x1="6528.5" x2="6938.1084" y1="152.3125" y2="152.3125"/><text fill="#000000" font-family="sans-serif" font-size="14" lengthAdjust="spacing" text-decoration="underline" textLength="399.6084" x="6533.5" y="170.8457">+normalizeConvention(convention: string): DayCountConvention</text><text fill="#000000" font-family="sans-serif" font-size="14" lengthAdjust="spacing" text-decoration="underline" textLength="345.666" x="6533.5" y="188.4551">+validateRequest(body: unknown): ValidationError | null</text></g><g id="elem_GMN59"><path d="M6974.5,119.1094 L6974.5,144.6094 L6939.55,148.6094 L6974.5,152.6094 L6974.5,178.1641 A0,0 0 0 0 6974.5,178.1641 L7106.0762,178.1641 A0,0 0 0 0 7106.0762,178.1641 L7106.0762,129.1094 L7096.0762,119.1094 L6974.5,119.1094 A0,0 0 0 0 6974.5,119.1094 " fill="#FEFFDD" style="stroke:#181818;stroke-width:0.5;"/><path d="M7096.0762,119.1094 L7096.0762,129.1094 L7106.0762,129.1094 L7096.0762,119.1094 " fill="#FEFFDD" style="stroke:#181818;stroke-width:0.5;"/><text fill="#000000" font-family="sans-serif" font-size="13" lengthAdjust="spacing" textLength="105.498" x="6980.5" y="137.6045">Module: validators</text><text fill="#000000" font-family="sans-serif" font-size="13" lengthAdjust="spacing" textLength="3.6118" x="6980.5" y="153.9561">&#160;</text><text fill="#000000" font-family="sans-serif" font-size="13" lengthAdjust="spacing" textLength="110.5762" x="6980.5" y="170.3076">Stereotype: &#171;pure&#187;</text></g><!--class Variables--><g id="elem_Variables"><rect codeLine="168" fill="#F1F1F1" height="83.2188" id="Variables" rx="2.5" ry="2.5" style="stroke:#181818;stroke-width:0.5;" width="119.3584" x="7" y="107.1094"/><ellipse cx="35.0469" cy="123.1094" fill="#B4A7E5" rx="11" ry="11" style="stroke:#181818;stroke-width:1.0;"/><path d="M36,119.75 L36,126.4063 L37.7188,126.4063 Q38.3282,126.4063 38.5938,126.6406 Q38.8594,126.875 38.8594,127.2656 Q38.8594,127.6406 38.5938,127.875 Q38.3282,128.1094 37.7188,128.1094 L32.5782,128.1094 Q31.9688,128.1094 31.7032,127.875 Q31.4375,127.6406 31.4375,127.25 Q31.4375,126.875 31.7032,126.6406 Q31.9688,126.4063 32.5782,126.4063 L34.2969,126.4063 L34.2969,119.75 L32.5782,119.75 Q31.9688,119.75 31.7032,119.5156 Q31.4375,119.2813 31.4375,118.8906 Q31.4375,118.5156 31.7032,118.2813 Q31.9688,118.0469 32.5782,118.0469 L37.7188,118.0469 Q38.3282,118.0469 38.5938,118.2813 Q38.8594,118.5156 38.8594,118.8906 Q38.8594,119.2813 38.5938,119.5156 Q38.3282,119.75 37.7188,119.75 L36,119.75 Z " fill="#000000"/><text fill="#000000" font-family="sans-serif" font-size="14" font-style="italic" lengthAdjust="spacing" textLength="58.3652" x="51.9462" y="128.8379">Variables</text><line style="stroke:#181818;stroke-width:0.5;" x1="8" x2="125.3584" y1="139.1094" y2="139.1094"/><text fill="#000000" font-family="sans-serif" font-size="14" lengthAdjust="spacing" textLength="100.3857" x="13" y="157.6426">requestId: string</text><text fill="#000000" font-family="sans-serif" font-size="14" lengthAdjust="spacing" textLength="107.3584" x="13" y="175.252">actor: ActorClaim</text><line style="stroke:#181818;stroke-width:0.5;" x1="8" x2="125.3584" y1="182.3281" y2="182.3281"/></g><g id="elem_GMN63"><path d="M161,127.1094 L161,144.6094 L126.31,148.6094 L161,152.6094 L161,169.8125 A0,0 0 0 0 161,169.8125 L314.2407,169.8125 A0,0 0 0 0 314.2407,169.8125 L314.2407,137.1094 L304.2407,127.1094 L161,127.1094 A0,0 0 0 0 161,127.1094 " fill="#FEFFDD" style="stroke:#181818;stroke-width:0.5;"/><path d="M304.2407,127.1094 L304.2407,137.1094 L314.2407,137.1094 L304.2407,127.1094 " fill="#FEFFDD" style="stroke:#181818;stroke-width:0.5;"/><text fill="#000000" font-family="sans-serif" font-size="13" lengthAdjust="spacing" textLength="7.2236" x="167" y="145.6045">&#160;&#160;</text><text fill="#000000" font-family="sans-serif" font-size="13" lengthAdjust="spacing" textLength="132.2407" x="167" y="161.9561">Hono context variables</text></g><!--link DayCountRequest to DatePair--><g id="link_DayCountRequest_DatePair"><path codeLine="178" d="M816.88,203.6094 C719.3,203.6094 592.5,203.6094 592.5,203.6094 C592.5,203.6094 592.5,286.5494 592.5,341.0894 " fill="none" id="DayCountRequest-to-DatePair" style="stroke:#181818;stroke-width:1.0;stroke-dasharray:7.0,7.0;"/><polygon fill="#181818" points="592.5,347.0894,596.5,338.0894,592.5,342.0894,588.5,338.0894,592.5,347.0894" style="stroke:#181818;stroke-width:1.0;"/><text fill="#000000" font-family="sans-serif" font-size="13" lengthAdjust="spacing" textLength="27.46" x="604.95" y="200.1045">uses</text></g><!--link DayCountRequest to DayCountOptions--><g id="link_DayCountRequest_DayCountOptions"><path codeLine="179" d="M988.5,207.6294 C988.5,250.7894 988.5,302.2894 988.5,340.7894 " fill="none" id="DayCountRequest-to-DayCountOptions" style="stroke:#181818;stroke-width:1.0;stroke-dasharray:7.0,7.0;"/><polygon fill="#181818" points="988.5,346.7894,992.5,337.7894,988.5,341.7894,984.5,337.7894,988.5,346.7894" style="stroke:#181818;stroke-width:1.0;"/><text fill="#000000" font-family="sans-serif" font-size="13" lengthAdjust="spacing" textLength="27.46" x="960.5" y="273.7045">uses</text></g><!--link DayCountResponse to DayCountResult--><g id="link_DayCountResponse_DayCountResult"><path codeLine="180" d="M1525.5,199.2094 C1525.5,240.0594 1525.5,291.2494 1525.5,332.0694 " fill="none" id="DayCountResponse-to-DayCountResult" style="stroke:#181818;stroke-width:1.0;stroke-dasharray:7.0,7.0;"/><polygon fill="#181818" points="1525.5,338.0694,1529.5,329.0694,1525.5,333.0694,1521.5,329.0694,1525.5,338.0694" style="stroke:#181818;stroke-width:1.0;"/><text fill="#000000" font-family="sans-serif" font-size="13" lengthAdjust="spacing" textLength="27.46" x="1497.5" y="265.1345">uses</text></g><!--link Variables to ActorClaim--><g id="link_Variables_ActorClaim"><path codeLine="181" d="M66.5,190.1394 C66.5,223.4094 66.5,265.0194 66.5,305.2594 " fill="none" id="Variables-to-ActorClaim" style="stroke:#181818;stroke-width:1.0;stroke-dasharray:7.0,7.0;"/><polygon fill="#181818" points="66.5,311.2594,70.5,302.2594,66.5,306.2594,62.5,302.2594,66.5,311.2594" style="stroke:#181818;stroke-width:1.0;"/><text fill="#000000" font-family="sans-serif" font-size="13" lengthAdjust="spacing" textLength="27.46" x="38.5" y="247.1945">uses</text></g><!--SRC=[jLTHRzis47xNho3wCXbpckwfW-SvI1qNov0uWPssAugYeAMJGqGYDP9owcRvxxsZ98koR3S1Ei0mHEfuztrtnxkJ5JO5TiRNaIgaPKTid79Zs9dWIysp831tGkOS7rb4BqwjrM9HM3YFb9oBRy1UUIAfa63NEJ2bxQqA0Y4jw8H7m4uZgpIg5Xbx21WJnWoOGLLoYIjJBBoLLYcSUEiSTBQH_lGPTvHU-WA5Y9lbOo2L1QR5yjOobNY6KJ9mAsA2E1AjCkOGIfwolp_S13F8DHYGrh0NSz0hWS3_OJoog9WbUF2T0Sq-lWX0nepC-0pFk8Mnod8bdG9YkGQk1qmMsG8qBZCbxQstZlbwizg6tTP6qA-vDX3Z8HIB6Zi4A-9fLAJS2YLDi1VSDHVQmJAMQ-lv3m_iTLzza13GCyj92nabSkX3yewIFeGz0DPZIh2htA5qE41biyB5Ug4mvbpYNgBXtm9aj3uvu9gMAa9MQoLSwDMZCfTRRZa4QaOsZNMWY1zcMytRvHkc-WgTZNe6cpFZpHubP6d_PB03t0gqmSUJ0ovkeI0-DQ25YjUEr37FnN5SNTBZrM_79KCabIlaymDs1fF5WAE7-LsarWpyjxZnD9eLbISmAIsML2hhFuiBedLCK8FnBXEbuzig6xtj1JV2_32LIhK4Tuwyi1xkJABAUJi1JkJAeJgVtancqzEBBrXFlimduzdanhjfa-dxyzdLz78olTcV3wYAa8nJLSH9oZMm3qhVOU41kH9QoGpZmHP2ndXuTrvFj5Qw5NOgoXuEIqNVBy2MsyBtPWoMYzIJ419bPDGgp41cAEbFjURh8Td12omWRShn7sul0sFu4lpDnr6Nju_QnG8jnbp7fI7oVaaeKMcgxgacpzwEsUlVNxrcrrejKiZOcSFjUyLrBOGVmrSs74AIG6IJ8XsDd5-E7eYwY1vPf06llCFm1ZCrRBkattPPVyj1_SONxtagOfSkJjUdp-m_Lg3r15jZt1jqM7e8gao3CWT3LwRdLdj6PDnQ7xwm_ReiTQfIR_lwTsBX_8NeBbLS4ErwZRyvPXceCg5Q3kquFLNB9QPjr-k_RddzmWc62Ajywi0fDNbuDXlF0cGYbOCv28ZQZz0mTv9XjOhBPJE38D8m6Z3qjOMlTiZbki_StyFZgCyaxWtO5FzxxCyHvMOc30nNIiIZNSPEvTeP23dbzVzjROQjjhP4pp_7q7R4IbTx4TjiF2jYXSNRV31WEOr5rAr3cepcZadDg3Vepb7DIM4kWESViM-4_g3MyyUHHXexIy5Jl3Rc3TXx01bMOrJRGh-SfjgRFQ-oDXgfWPtBIneAMm3wxK5nzs5X9ZA-IihJn7o7pLqqLcLvSXwxqZ7UkcVHe61tOks2v8MwNZynqatVsggTBjAkdtXDPwkNTC1iwI0OpLRLIUw5lIqLKmcbNEyaNkKdhEc8EoyqT19FAfsXq3TeAcxe5sGl1NUCKjs8L3DVI7CI-b3UINKlUvs6Wkr45cdQuTq0zYBHsko4ewIr9n9QSEoefXeQ7RHpFmwSlgG6_kTLDnAL3hBzbvAgTZR2gjyqjdzXCwXczLkHcs1xDd_vSjHynQ1_3EoJQNzeT4Ih8SANhQRAIhJXJZBUXslr_Zi0]--></g></svg>